<mxfile host="Electron" modified="2023-08-09T01:35:09.824Z" agent="Mozilla/5.0 (Windows NT 10.0; Win64; x64) AppleWebKit/537.36 (KHTML, like Gecko) draw.io/21.6.5 Chrome/114.0.5735.243 Electron/25.3.1 Safari/537.36" etag="mpVnnDv3Nx7sTNxBngk_" version="21.6.5" type="device">
  <diagram name="第 1 页" id="cjq0wIYWm7wHnOLOJKQ9">
    <mxGraphModel dx="1050" dy="629" grid="1" gridSize="10" guides="1" tooltips="1" connect="1" arrows="1" fold="1" page="1" pageScale="1" pageWidth="827" pageHeight="1169" math="0" shadow="0">
      <root>
        <mxCell id="0" />
        <mxCell id="1" parent="0" />
        <mxCell id="CJdQFB9uFAcgrzNMfLmj-5" value="" style="edgeStyle=orthogonalEdgeStyle;rounded=0;sketch=1;hachureGap=4;jiggle=2;curveFitting=1;orthogonalLoop=1;jettySize=auto;html=1;fontFamily=Architects Daughter;fontSource=https%3A%2F%2Ffonts.googleapis.com%2Fcss%3Ffamily%3DArchitects%2BDaughter;fontSize=16;" edge="1" parent="1" source="CJdQFB9uFAcgrzNMfLmj-1" target="CJdQFB9uFAcgrzNMfLmj-4">
          <mxGeometry relative="1" as="geometry" />
        </mxCell>
        <mxCell id="CJdQFB9uFAcgrzNMfLmj-1" value="Environment" style="rounded=1;whiteSpace=wrap;html=1;sketch=1;hachureGap=4;jiggle=2;curveFitting=1;fontFamily=Architects Daughter;fontSource=https%3A%2F%2Ffonts.googleapis.com%2Fcss%3Ffamily%3DArchitects%2BDaughter;fontSize=20;fillColor=#dae8fc;strokeColor=#6c8ebf;" vertex="1" parent="1">
          <mxGeometry x="80" y="300" width="120" height="60" as="geometry" />
        </mxCell>
        <mxCell id="CJdQFB9uFAcgrzNMfLmj-2" value="配置文件" style="rounded=0;whiteSpace=wrap;html=1;sketch=1;hachureGap=4;jiggle=2;curveFitting=1;fontFamily=Architects Daughter;fontSource=https%3A%2F%2Ffonts.googleapis.com%2Fcss%3Ffamily%3DArchitects%2BDaughter;fontSize=20;fillColor=#d5e8d4;strokeColor=#82b366;" vertex="1" parent="1">
          <mxGeometry x="280" y="180" width="120" height="60" as="geometry" />
        </mxCell>
        <mxCell id="CJdQFB9uFAcgrzNMfLmj-3" value="属性配置" style="rounded=0;whiteSpace=wrap;html=1;sketch=1;hachureGap=4;jiggle=2;curveFitting=1;fontFamily=Architects Daughter;fontSource=https%3A%2F%2Ffonts.googleapis.com%2Fcss%3Ffamily%3DArchitects%2BDaughter;fontSize=20;fillColor=#f8cecc;strokeColor=#b85450;" vertex="1" parent="1">
          <mxGeometry x="280" y="410" width="120" height="60" as="geometry" />
        </mxCell>
        <mxCell id="CJdQFB9uFAcgrzNMfLmj-6" style="edgeStyle=orthogonalEdgeStyle;rounded=0;sketch=1;hachureGap=4;jiggle=2;curveFitting=1;orthogonalLoop=1;jettySize=auto;html=1;entryX=0.5;entryY=1;entryDx=0;entryDy=0;fontFamily=Architects Daughter;fontSource=https%3A%2F%2Ffonts.googleapis.com%2Fcss%3Ffamily%3DArchitects%2BDaughter;fontSize=16;" edge="1" parent="1" source="CJdQFB9uFAcgrzNMfLmj-4" target="CJdQFB9uFAcgrzNMfLmj-2">
          <mxGeometry relative="1" as="geometry" />
        </mxCell>
        <mxCell id="CJdQFB9uFAcgrzNMfLmj-7" style="edgeStyle=orthogonalEdgeStyle;rounded=0;sketch=1;hachureGap=4;jiggle=2;curveFitting=1;orthogonalLoop=1;jettySize=auto;html=1;exitX=0.5;exitY=1;exitDx=0;exitDy=0;entryX=0.5;entryY=0;entryDx=0;entryDy=0;fontFamily=Architects Daughter;fontSource=https%3A%2F%2Ffonts.googleapis.com%2Fcss%3Ffamily%3DArchitects%2BDaughter;fontSize=16;" edge="1" parent="1" source="CJdQFB9uFAcgrzNMfLmj-4" target="CJdQFB9uFAcgrzNMfLmj-3">
          <mxGeometry relative="1" as="geometry" />
        </mxCell>
        <mxCell id="CJdQFB9uFAcgrzNMfLmj-11" style="edgeStyle=orthogonalEdgeStyle;rounded=0;sketch=1;hachureGap=4;jiggle=2;curveFitting=1;orthogonalLoop=1;jettySize=auto;html=1;entryX=0;entryY=0.5;entryDx=0;entryDy=0;fontFamily=Architects Daughter;fontSource=https%3A%2F%2Ffonts.googleapis.com%2Fcss%3Ffamily%3DArchitects%2BDaughter;fontSize=16;" edge="1" parent="1" source="CJdQFB9uFAcgrzNMfLmj-4" target="CJdQFB9uFAcgrzNMfLmj-10">
          <mxGeometry relative="1" as="geometry" />
        </mxCell>
        <mxCell id="CJdQFB9uFAcgrzNMfLmj-4" value="接口" style="ellipse;whiteSpace=wrap;html=1;fontSize=20;fontFamily=Architects Daughter;fillColor=#dae8fc;strokeColor=#6c8ebf;rounded=1;sketch=1;hachureGap=4;jiggle=2;curveFitting=1;fontSource=https%3A%2F%2Ffonts.googleapis.com%2Fcss%3Ffamily%3DArchitects%2BDaughter;" vertex="1" parent="1">
          <mxGeometry x="300" y="290" width="80" height="80" as="geometry" />
        </mxCell>
        <mxCell id="CJdQFB9uFAcgrzNMfLmj-8" value="&lt;span style=&quot;color: rgb(25, 30, 30); font-family: -apple-system, BlinkMacSystemFont, &amp;quot;Segoe UI&amp;quot;, Roboto, Helvetica, Arial, sans-serif, &amp;quot;Apple Color Emoji&amp;quot;, &amp;quot;Segoe UI Emoji&amp;quot;, &amp;quot;Segoe UI Symbol&amp;quot;; font-size: 16px; font-style: normal; font-variant-ligatures: normal; font-variant-caps: normal; font-weight: 400; letter-spacing: -0.0444444px; orphans: 2; text-align: start; text-indent: 0px; text-transform: none; widows: 2; word-spacing: 0px; -webkit-text-stroke-width: 0px; background-color: rgb(255, 255, 255); text-decoration-thickness: initial; text-decoration-style: initial; text-decoration-color: initial; float: none; display: inline !important;&quot;&gt;profile是一个命名的、逻辑上的bean定义组，只有在给定的profile处于活动状态时才会在容器中注册。无论是用 XML 定义的还是用注解定义的，Bean 都可以被分配给一个profile。&lt;/span&gt;&lt;code style=&quot;box-sizing: inherit; font-family: var(--monospace-font-family); hyphens: none; background: var(--asciidoctor-code-background); border-radius: 0.25em; color: rgb(25, 30, 30); font-size: 0.95em; padding: 0.125em 0.25em; font-style: normal; font-variant-ligatures: normal; font-variant-caps: normal; font-weight: 400; letter-spacing: -0.0444444px; orphans: 2; text-align: start; text-indent: 0px; text-transform: none; widows: 2; word-spacing: 0px; -webkit-text-stroke-width: 0px; text-decoration-thickness: initial; text-decoration-style: initial; text-decoration-color: initial;&quot;&gt;Environment&lt;/code&gt;&lt;span style=&quot;color: rgb(25, 30, 30); font-family: -apple-system, BlinkMacSystemFont, &amp;quot;Segoe UI&amp;quot;, Roboto, Helvetica, Arial, sans-serif, &amp;quot;Apple Color Emoji&amp;quot;, &amp;quot;Segoe UI Emoji&amp;quot;, &amp;quot;Segoe UI Symbol&amp;quot;; font-size: 16px; font-style: normal; font-variant-ligatures: normal; font-variant-caps: normal; font-weight: 400; letter-spacing: -0.0444444px; orphans: 2; text-align: start; text-indent: 0px; text-transform: none; widows: 2; word-spacing: 0px; -webkit-text-stroke-width: 0px; background-color: rgb(255, 255, 255); text-decoration-thickness: initial; text-decoration-style: initial; text-decoration-color: initial; float: none; display: inline !important;&quot;&gt;&lt;span&gt;&amp;nbsp;&lt;/span&gt;对象在profile方面的作用是确定哪些profile（如果有的话）是当前活动（active）的，以及哪些profile（如果有的话）应该是默认活动的。&lt;/span&gt;" style="text;whiteSpace=wrap;html=1;fontSize=20;fontFamily=Architects Daughter;fillColor=#d5e8d4;strokeColor=#82b366;" vertex="1" parent="1">
          <mxGeometry x="50" y="10" width="560" height="140" as="geometry" />
        </mxCell>
        <mxCell id="CJdQFB9uFAcgrzNMfLmj-9" value="&lt;span style=&quot;color: rgb(25, 30, 30); font-family: -apple-system, BlinkMacSystemFont, &amp;quot;Segoe UI&amp;quot;, Roboto, Helvetica, Arial, sans-serif, &amp;quot;Apple Color Emoji&amp;quot;, &amp;quot;Segoe UI Emoji&amp;quot;, &amp;quot;Segoe UI Symbol&amp;quot;; font-size: 16px; font-style: normal; font-variant-ligatures: normal; font-variant-caps: normal; font-weight: 400; letter-spacing: -0.0444444px; orphans: 2; text-align: start; text-indent: 0px; text-transform: none; widows: 2; word-spacing: 0px; -webkit-text-stroke-width: 0px; background-color: rgb(255, 255, 255); text-decoration-thickness: initial; text-decoration-style: initial; text-decoration-color: initial; float: none; display: inline !important;&quot;&gt;属性（Properties）在几乎所有的应用程序中都扮演着重要的角色，它可能来自各种来源：properties 文件、JVM系统属性、系统环境变量、JNDI、Servlet上下文参数、特设的&lt;span&gt;&amp;nbsp;&lt;/span&gt;&lt;/span&gt;&lt;code style=&quot;box-sizing: inherit; font-family: var(--monospace-font-family); hyphens: none; background: var(--asciidoctor-code-background); border-radius: 0.25em; color: rgb(25, 30, 30); font-size: 0.95em; padding: 0.125em 0.25em; font-style: normal; font-variant-ligatures: normal; font-variant-caps: normal; font-weight: 400; letter-spacing: -0.0444444px; orphans: 2; text-align: start; text-indent: 0px; text-transform: none; widows: 2; word-spacing: 0px; -webkit-text-stroke-width: 0px; text-decoration-thickness: initial; text-decoration-style: initial; text-decoration-color: initial;&quot;&gt;Properties&lt;/code&gt;&lt;span style=&quot;color: rgb(25, 30, 30); font-family: -apple-system, BlinkMacSystemFont, &amp;quot;Segoe UI&amp;quot;, Roboto, Helvetica, Arial, sans-serif, &amp;quot;Apple Color Emoji&amp;quot;, &amp;quot;Segoe UI Emoji&amp;quot;, &amp;quot;Segoe UI Symbol&amp;quot;; font-size: 16px; font-style: normal; font-variant-ligatures: normal; font-variant-caps: normal; font-weight: 400; letter-spacing: -0.0444444px; orphans: 2; text-align: start; text-indent: 0px; text-transform: none; widows: 2; word-spacing: 0px; -webkit-text-stroke-width: 0px; background-color: rgb(255, 255, 255); text-decoration-thickness: initial; text-decoration-style: initial; text-decoration-color: initial; float: none; display: inline !important;&quot;&gt;&lt;span&gt;&amp;nbsp;&lt;/span&gt;对象、&lt;/span&gt;&lt;code style=&quot;box-sizing: inherit; font-family: var(--monospace-font-family); hyphens: none; background: var(--asciidoctor-code-background); border-radius: 0.25em; color: rgb(25, 30, 30); font-size: 0.95em; padding: 0.125em 0.25em; font-style: normal; font-variant-ligatures: normal; font-variant-caps: normal; font-weight: 400; letter-spacing: -0.0444444px; orphans: 2; text-align: start; text-indent: 0px; text-transform: none; widows: 2; word-spacing: 0px; -webkit-text-stroke-width: 0px; text-decoration-thickness: initial; text-decoration-style: initial; text-decoration-color: initial;&quot;&gt;Map&lt;/code&gt;&lt;span style=&quot;color: rgb(25, 30, 30); font-family: -apple-system, BlinkMacSystemFont, &amp;quot;Segoe UI&amp;quot;, Roboto, Helvetica, Arial, sans-serif, &amp;quot;Apple Color Emoji&amp;quot;, &amp;quot;Segoe UI Emoji&amp;quot;, &amp;quot;Segoe UI Symbol&amp;quot;; font-size: 16px; font-style: normal; font-variant-ligatures: normal; font-variant-caps: normal; font-weight: 400; letter-spacing: -0.0444444px; orphans: 2; text-align: start; text-indent: 0px; text-transform: none; widows: 2; word-spacing: 0px; -webkit-text-stroke-width: 0px; background-color: rgb(255, 255, 255); text-decoration-thickness: initial; text-decoration-style: initial; text-decoration-color: initial; float: none; display: inline !important;&quot;&gt;&lt;span&gt;&amp;nbsp;&lt;/span&gt;对象等等。与属性有关的&lt;span&gt;&amp;nbsp;&lt;/span&gt;&lt;/span&gt;&lt;code style=&quot;box-sizing: inherit; font-family: var(--monospace-font-family); hyphens: none; background: var(--asciidoctor-code-background); border-radius: 0.25em; color: rgb(25, 30, 30); font-size: 0.95em; padding: 0.125em 0.25em; font-style: normal; font-variant-ligatures: normal; font-variant-caps: normal; font-weight: 400; letter-spacing: -0.0444444px; orphans: 2; text-align: start; text-indent: 0px; text-transform: none; widows: 2; word-spacing: 0px; -webkit-text-stroke-width: 0px; text-decoration-thickness: initial; text-decoration-style: initial; text-decoration-color: initial;&quot;&gt;Environment&lt;/code&gt;&lt;span style=&quot;color: rgb(25, 30, 30); font-family: -apple-system, BlinkMacSystemFont, &amp;quot;Segoe UI&amp;quot;, Roboto, Helvetica, Arial, sans-serif, &amp;quot;Apple Color Emoji&amp;quot;, &amp;quot;Segoe UI Emoji&amp;quot;, &amp;quot;Segoe UI Symbol&amp;quot;; font-size: 16px; font-style: normal; font-variant-ligatures: normal; font-variant-caps: normal; font-weight: 400; letter-spacing: -0.0444444px; orphans: 2; text-align: start; text-indent: 0px; text-transform: none; widows: 2; word-spacing: 0px; -webkit-text-stroke-width: 0px; background-color: rgb(255, 255, 255); text-decoration-thickness: initial; text-decoration-style: initial; text-decoration-color: initial; float: none; display: inline !important;&quot;&gt;&lt;span&gt;&amp;nbsp;&lt;/span&gt;对象的作用是为用户提供一个方便的服务接口，用于配置属性源并从它们那里解析属性。&lt;/span&gt;" style="text;whiteSpace=wrap;html=1;fontSize=20;fontFamily=Architects Daughter;fillColor=#f8cecc;strokeColor=#b85450;" vertex="1" parent="1">
          <mxGeometry x="70" y="500" width="560" height="140" as="geometry" />
        </mxCell>
        <mxCell id="CJdQFB9uFAcgrzNMfLmj-10" value="" style="shape=image;verticalLabelPosition=bottom;labelBackgroundColor=default;verticalAlign=top;aspect=fixed;imageAspect=0;image=data:image/png,iVBORw0KGgoAAAANSUhEUgAABjAAAAEtCAYAAACmiCk1AAAgAElEQVR4nOzdeXhV1b3/8fc5GSAJQ4AkJCEMIYxJmMKgVgWVUJDhh6VIUSsBbb292lrxVkN7q6L1WtFbpVVbW6sMVkVAqwVULqACWmUOyDwlDCGQhAwQQiDJ3r8/zpBzTk6SkznA5/U8Po852cPaa6+1T1jfvb7LMnrMeBMREREREREREREREZEWxB/g9OlTzV0OERERERERERERERERACIjo7E2dyFEREREREREREREREQ8KYAhIiIiIiIiIiIiIiItjgIYIiIiIiIiIiIiIiLS4iiAISIiIiIiIiIiIiIiLY4CGCIiIiIiIiIiIiIi0uIogCEiIiIiIiIiIiIiIi2OAhgiIiIiIiIiIiIiItLiKIAhIiIiIiIiIiIiIiItjgIYIiIiIiIiIiIiIiLS4iiAISIiIiIiIiIiIiIiLY4CGCIiIiIiIiIiIiIi0uIogCEiIiIiIiIiIiIiIi2OAhgiIiIiIiIiIiIiItLiKIAhIiIiIiIiIiIiIiItjgIYIiIiIiIiIiIiIiLS4vg3dwFERERERERERERERKR5xcbGEhvbo077pqdnkJ6e3sAlUgBDREREREREREREROSaFxvbg+9973tkZWXVar+oqCgABTBERERERERERERERKRxZGVl8eabb9Vqn/vvv6+RSqM1MEREREREREREREREpAXSDAwRERGRa4w5dR4rx2fx1KyX2G6xYg55hAXPJMO6J5h1cjqrZiZi7lnApNTllfe1bxues5anZr0EsxfxTHJE1efKXuM8T1NylpMc1j2Zwvwdem/HoaJu9rB44mMss98b05zKvJUzSahFnd05byUpCZZq77NjG1e7164hYnQyERZLpe2h+nZjmkOYveB3JEdYyF77W+6bv8P7Mezbjc5Z6LUtO8pV3TFqw3G+yE/GM2d5zXXnqO9Eex3sXni7T/s1FXPqPNuzwNzt1k5ERERERJqSAhgiIiIi1xDTnMq8lAQslkR+Pns9983fwdBRg4iwWMiuw/G2z5/Fkyzg6dG4DXo7Bodzdq13DkJ7G8i2lSlbQYYm5Ljf5p4tboPSQ2dPINFiwczeyYbtgMutcgxmV8USMYZnVo2p9PnuhbczJ3UiSz0CX9uSHmXBaCoFyiqCK1WzWHawYVcOyckRhI+ezp0vb/M+uJ4UR+auPViSZ7HirZgGC6R5Bnpe5lEWPOMSjJn5KStn4kNwpSJ40dKZQ2bz1u/GVAp6iYiIiIg0NgUwRERERK4hFstyUp+MsQ0Sj36YR9avInK0bbg4IvlZVjm2S5jFypWzAJxvYPPCJxUBiIgxPL1yEOueTGHDyWxySGD0M4vgyRQyp3/ifCv/1Ze3QTMMdlp2zOe+SfPtP12bg63ON+jtsxm2JbkPtDvuse3+LqHLQFs78AxG7F54O6mOY1YxM8ftvC4zJHwqpyNosXchE5e4/y7pkQXVzvCxWBJJWfUpKR6f24IHy1m2YzlLT85j1cwxTJsNP/cy6yMi+VlWJjvKXn0wzRF4cAYvtg9l9gLbMR317JiVZOtfVRwraRT26naZedFy26llx8vMetLCgmeSmbHgUY40w6wqEREREbk2KYAhIiIico2x7JjPp3uTGbolhQ2jFvGMpSKNjnPQ23Og2mIFL2/Sb7dYYUcqs7Dtl/y7TwF70KOqFEBe0wNpMLShDY3xPvDvGdAIB7rMftgtJVN1QQhHG3Fu6zm7ogGvYfv8WUy0x6GqSn1VE8vyVCY6mvL8+c7Pq04hVfVxhzrr6U/2wEQckfZAxJ5P7CnZXl7F7tEzSbREEBkHeJuEERdlC3qY2Zw+4tNlNDvHcyMlYYxz9paIiIiISGNTAENERETkGrQsdSLLsAKzmPDyEIYmbaOuQQRvb8lbLIm1flPbc22DV3nYeVzXPPzOdRdcPnPd19yzgIlLYtzWwHh5+zTnegO7Fy6AFPe1HrylSHId2Pa1bK7rGlTazh4Ucj2Xt/UFPMviGvDxpRxLGeoWfHDMqDDOppPvpd4tlkSSk22zD3at994OXIMAQ4ccYeLEHdw5byUrVuSwbtFOj+PtYP59E7GFCny4947B/Jq3rBVz6jxWpkQ0WHoy05zKtNHhmOZuPrXPLLJYlrNt70wSEyAiZiiwA5JiiIAqgxOuqdQslgiSf/cpo13bUI1tcapLW65YN8PRD50BKpd2UF2bdXDtx6a5m8WLKpd96ZK13P5MMuEDR5FkbtMsDBERERFpdApgiIiIiFxD3AYps9ewLieZZC/rUrimkIKq8vlP4/kVtoFUzwFR2yCtbeDcczaHZ4qiigFXFwMf5pmIiqCIxZLIjBemsSx1uXMQNcKSyNA7YdlynCl5TDObdUuWAo9WWQeJMx2psSrXiauI5GdZEeUlZVI1Zat2u4RZvPXWBCI893UJ9HgNBkWM4ekF+FxHSx+v3Sv9zhRSL4yqvPaFxyB80iMu652kTmQZ9pkR1Rzf7Zocqcc8gh6NYRqwh3BnarN6BzHuHG5r6x5rhyx9fCFDV84k0SUVFcDuhbU/Z63boq9qaLOe69NYLImkzPRynO3r2ZWTzOjwQYxMgu2ahCEiIiIijUyvzIiIiIhcQ7bPn8WEJ9aQbR+93/D4eCZOnMCTa21LeO9eeLvb/0+cOIGJEydUCl5YIsbw9MrhbJto23/SpFSW3vkiK1euYsW8qSxLnejcty6DruHh2SyaYDv/oj32SEP8cO40Dfsgqu0j21vvFQtTk2NfgLoaZvYanpxwO5MmzeJlHuXn9jVAzD0LnGV21AHxE3hkiOF72Vy3YydPTridCRMWsNte3+HhsPYJj33Do4ij4g1/qKj7CRN+y9psE0vEGKbd6VsdTWMb8++b6LwG5/XOP0w5jgDSp6z63RiX9SC2sSFrEE+/MK36ylu/inU54ST/7lNWrJhnu2b7DApyTnp9I9+1zZnZa3hqYgovuwRFHKmucrJqCLzYz+NY92LlylWV/lvx1iMk2e/DsuWppE58gnU54Yz+xaPOz+tq2vAE38pp52ibnpalTmTCwt2ALUC09onbbf0nqfZt0VfVtVlzyCPcHo/beR3tzpPFsoPMHNvMkYGjvF+fiIiIiFzZQjt04Lbbbq3yvw6hoU1aHs3AEBEREbnGmeYQRg4Mr3jbPsb7dq5vaTtmTcS98AkrPWZwuC8AXnlRZK9rYFisuOYQylm3xPmW+9Ite0hJqEipY7HsYMOuHJKTI5ypbOKibAO/ObvW15jWxrFWAeC2FoFt5obt820u6xgMHDUUXIIi1ZXNlaMsFirSDDkDLBYv+9rf8AdInPkpKz3egPccEPe1HJ68rYHBnS/a3/yfxVuPHGHWy9733b5jOdvvW86GRxbwdJRtJoLPAYgqOO5d9sltwKgqt3Ocx1v7qWrmgiOd1cvmEGYv+IRnvKzpEeExc6Kmhcpt5bSd2zNlmOuaIBHJz/L8yYoUTzWqQ1v0VbVtxct5LZYdvPzJHpJnVm5TR7JyIKHqhdVFRERE5MrWITSU2267rcrfp6dnkF9Q0GTlUQBDRERE5BrnWJjY3LOK+TusJLmMIZtT57FyfBZPzXqJZa6LeNt/v8yeRsixrdcFwBth0u+29TvJHp1MePggRiZNIzK++jUc6sM2YH2Vv22+7DEm8CKrZiYSkfws807+ltMuv/ZMMWTjnmbMMxAANQcDYDhD7W//J878lHlr11S5pSPQUdVMD28ca4YM3PUE99nX5XAGGDzWkKgTR1op13UxnItdQ8LwabC8jmmfvLC1xbgGO56IiIiISEunAIaIiIjItcz+5r3rQLMjOJA481NWAZDItDtfYnvDjcPWnz0Xf3JEBAN/McH2Brk9AFMrR7LINhOIsEQwevo05u+wXeTQ2RPsA9PeF2JuFM6yVDewPqT2x7WnqNpWw2aW5aksGr6S27OeIHUZzB5f8TvXQJUr15kP3tdJ8RTFtAWfMO2T8dw3ab5tf9fAyMmXuG/SfHuBXGbt2NMcec5OqMQzuGFfGyV89MM8sj6Fl7cPZfYvbMELM3sNS5eBmWQLaGQvGu9TMMO5WLf7p3RJsn1smkPoEu5lx5rUoS06AiSOWVR14nLegaOGwo4dtsDP+ASvmzsDSSIiIiIiTUABDBEREZFr2bLHmOgxaGvZMb9iENnJy8DunS+y0kuKGc8FwGtaxBtsaz6kehshr4JrGinHoth7tlQzsF3VcVzelvcsNwB76xAUqSPXsnimkPK60HkNtp3MBiKca0bcezad/Br2qQhU1Bwo8ZyV4ZiB4TWQ4UhTFB7B6SfHM3+HFXPII/x8tC112Z69kGhPS2SbIRHFp/ZF4U1zSEXQoZZBqmnTbftlr/0T83dYmfbC72yzjcxs1r3yEtuoCGhEzPyU56l6RoYjdVJ4VBzOAMayLexOSSDREkHy7z7FYwJKrdqkr23RYqlISea6XXa27X7XmjMY6H0WjSvX4IxrKi0RERERuXaMH387JSUlbp9FRUWRnp7eKOdTAENERETkGmKaU5lnT59DxBieXkDl9Sh85RH8qDqFVOOoWBvAlsJn2zKg8hIHNVqWOpGl9rK7qnd6oTpYljqRI97Wc3DMLKi8rnKVHDMqPFM/eQaQTK/HjCMyHCCbTPuaHQ5ua6G43GvnehAegYw7561kRvhanpzwmL2dWZ0zNxxrpGwYtci2RgjYgx2JzHhhGksfP8LsBfagQxXtynX2ges6HBWzNnbz6cvwyIKVJNvXwMhZZwtocOd052dgCxxVFcRwpi2LH86d5lKWWWzBhNSJONfBcFWX9uNrW1z6+BN0sdcL2Or6VR7mmWqCD1WxWHbw8qwnwOV45p4FPJU1wcu6IrZ2UZ/+JiIiIiItV3p6Bp9//nkd9ksnPT2jEUoEltFjxpunT59qlIOLiIiISMuS9MgCnh640/42/1Dn4HBNPAc0vQ3ONnUAQ2rHsfZDeM5aj0W897B44mMsvfNFt4Fz1wXYXRerhpoH5x0BCm/bOYMXrsEPl3UpXM+dOf0TUhIslWZ1mF4G+T0X9zaHTGXeL2aSkLOQSanLve/jUgZH31j3yUnmV7FuhSN40xzBrZbAce98SxcmIiIiIlI/kZHRCmCIiIiIiIj4whHISbAHfZbVZebSFepavnYRERERaR6RkdFKWioiIiIiIuILi2U5qYv2YLEkMmPli9xpGs1dpCbhOgNnzyIFL0RERESk6WgGhoiIiIiIiIiIiIiItCiagSEiIiIiIiIiIiIiIi2SAhgiIiIiIiIiIiIiItLiKIAhIiIiIiIiIiIiIiItjgIYIiIiIiIiIiIiIiLS4iiAISIiIiIiIiIiIiIiLY4CGCIiIiIiIiIiIiIi0uIogCEiIiIiIiIiIiIiIi2OAhgiIiIiIiIiIiIiItLiKIAhIiIiIiIiIiIiIiItjgIYIiIiIiIiIiIiIiLS4iiAISIiIiIiIiIiIiIiLY4CGCIiIiIiIiIiIiIi0uIogCEiIiIiIiIiIiIiIi2OP0DHgPP1PpDh15aS1r0oCwjDtATW+3giIiIiIiIiIiIiInJlsBrFBFw+Q2DJIaxmab2OlVfaFrAHMOqrNKAzF9skYWpCh4iIiIiIiIiIiIjINcewBnOpdSylgZGEnP8Wq1Fc72PWO+JgWltzsc1gBS9ERERERERERERERK5xhjWI4pCkBjlWvaMOlwO7YjbMRA4REREREREREREREbnClfu3pyygY72PU+8ARpl/aL0LISIiIiIiIiIiIiIiVw/Dr329j1H/FFIWv3oXQkRERERERERERERErh4mAfU+RrMvXGH1C6BN5wRCIvpzueg0l4tOExLRnzadE7D61f8CReTKZgSGMnL8rTx5T19aG2ZzF0dE5IpnGP58/57JPDS+Jz0D9VwVERERERGRlqvZFq+wWP1oHzOCsF5jMc1yzh79nPLSiwAEBHWkU8/bsFj8yD28msKTmzGN8uYqqlwFjLC+PPazG+nFSf7559X8X56luYskPogcchMP3z2ChE4BGAfXNndxrhnqLyJXv9Cuffj+6H7ccms6q9/9hL/vKGruIomIiIiIiEgT6NujAwm9IvH3q8isVFZezlfbM8jOu9iMJfPOr2dc77nlF8/W+QCXW8VgWoNrtY/FvxXRA++hbdQgTqW9zfFvX+N8Vprz90Wnd5FzYBWlJflE9J9McGgsRbn7QEEMqaPQ28byyPeiaNshitDzW1lzSG2ppYu4bhy/++kwevjns2XlKv7wjz3kGBpIbwrqLyJXN4vF4Lst+zhVFkSv+N4kjYgjJvsA/84sbe6iiYiIiIiISCManhjJ7Ad+SHBrPzq0DyasY1vCOrYltnsUyTcPZt+BdAqKLjfY+fzL8vAvq1vs4aLRijZt2jb9DAyL1Y/oAXfh16oNB1enUlrs/QJMo4y8o19w/vQueo76DdED7uLUzrd9nonRbsw0FkzvgR8m+5f9iTmfXaq0jdH7Nt6aM4wOez/hh3/YXa/rqo5hdOKh39/P2MgMFs16n39ar6xBWF/LbxiDeGHBWPpbqr6+oyteY/Y/m/4tz/w9hzmYHEkPskjbUwJcWfegJWmK9mx0GMSjKQOJKMvi4/nvseBQGbpnTael9RfDCGbktO8z/YZudG7XmkA/W3nMw59z97ObKb7CnqlXAiPie/z59zcRc+QL1fFVynopn43/WsGWffnMm/09bkqZwKGD7/Nxge61iEhjmvLY48wI28bcx9aS1hh/R/cZzZupQ4mwWMhev5ifLspq8HNcaaY89jgzWM0dL+5s7qI0+v0XuZqp/8jVxjCi+OWL9zKapm3XNw/vy6ZNm/jgg+Vun1utVu65+x4ee/AO/vD6RxzNPN8k5fFFkwcw2ncZQav2XTjkEbyw+gcR1KEH/q3aUlJwnEtFpwEoLT5L+vrn6D12Hu27jKDgxDc1nsMwrHyvfzR+pSUU05rYfr2wfrIbQw+4JmFeOEPavly8xeqyTjTP253W9M089shm+09qBy2ZYVi55Uc30a9VGYf/ucIevJCm1NL6S4dbx/Lz23vjX5jFnrR8LjlS9mfleH3OiIjvSg59xUuf9eAPk3vwgztj+fiv6aC/l0SuCINTHuDpUR0wc7ZW+4/eKY89Tkp/C3vee57frFH/bk6GEUWXsMY8/iCeTx0KG95msgIXLU5j3/8riWugzZWvz6nBKQ8wN2JTrYJSvuzjHEwMy2DxrPf5sIrnquP568o081k376+8ctBS7XZQcZ2DUx5g7siCKs9V0/7etq0ucGmMmcaKu2Iryuzx/VGb8zmP6aiz3MYNEqr/VKZ+dPX0o/qqbXAvOKg1Z7JOVPrcMAz+8c47TJ8+nScfvcfrviWXStieto8FH26htMyod9l91aQBDIs1gE69v09W2mIuuwQvQrvdQJdhD2CUXaSspIDWod0oPLGZk5texzAuc7n4LKd3vUvU4BkUZm7FNGoaBO/KwJ6BkLWVf1uGkRzbne+xm68a9/LEoTCdxa9+yVENgEhd+MUyMiEEivfzyap8WsIAujSvAf2iac0lNi15m99v9vilnjMi9Za+YjO7xt5BUmIiN1vT2djcBRIRn5k5+eSExXFzv7WkHaz8e6PPaG7vV0B2TmjTF04qsVqzeCX1BV6Bxvkbpl8Y4RSw65tT6G/olqfR7/8Vp4C1z7sPVNbUbl0HbM19vp2lNvskzZpEcrgF06x+OwDTTHcbMB2c8gBzU/8DPAZfvQeZfb//vuxvGFHcHB/Knn3pxMfHM9g4VWkQ0zHIu2jm884yG2Om8easaLeB2tqWN2nWJNvb4/PSGrVdq/9URf3IFy21HzVUu14+7226vHgvD83aW++Zl6ZpsGTJe2za9C0WLxl2goKDmTz5Dibdco4P1/rYgBpAkwYwQsJ6Yxrl5KVvcPmsD92uf5jjm16l4NjXtkIFhdLzplS6DJvFic1/BSAvfQORA+8hJKw3Rdl7qz9Rn570bgs52/bxb2svkrvGMLgvfHXI++ZGuUnU8JH8/I4B9AoLwlpSwJGd37Jg8XccKPNo0Jb2fH/aLUwaGkNE+xCC/MopuVDEmfQDfPrBV3x2wva2uGH05LevTeW6ENf9Y5m5cA4zXT5xTalkGBE8/MJMksOOsvDJ3cSm3MTQbu0J4hI5xw6y6t11rDjunkLLMFozbNzN/PDGOGI7t6GVcYnC/Bz2ffUVCz89QU6lDhnI4LGjmD6yF7HhIQQ6tv/6KxZ+UrF9XcpfWxUpvD7lV5s6858T+9OjQwCXz+WRvuPfvPHeAY6bjvJ05pf/m8Lo0BO8+6t3WXrO47pCh/Hyi7cRl7eNJx5by3dWSxXXUHWZ61b/rRg+4VbuvKknPcJCCOQy53JPs3vjBt745BSFLg+g2l2vPU2TuZnXt3Vm+ve74Hc6jdf/sI2wmVOZntiWkuO7eOvVdWx0qQvDCCAxeRT33NKb2IgQWnGZwjOZbP9iA3//PJuSOpen8dtDxWG70j0YyvdlsKEcsFa9aa3qvy731xLKuHuS+cGwrkQEQ3FuJt/+azUnb/wps+ILWP3sG/wlve5fMr4+TwCM2Fv4+29HEL5/NQ9+0Y6HJg+kV0QQfpfPkb5rMwsX7WDv5bpfb637Sy3aT33rMyjAHyjjcolJVX+kNObzs7H7ozFkHO/+fCDHl/yB36wpx7AM4Pm/3U68eZS3/mMZ/zItGNdPYtlPu7HlT6/yvzsd5Wrc9l+V7t+fxvM/6oH16Jf85n82caSOAyS+fh9VbN/I/b0Wz8+6XW9jPZ9r//1YSfkRdmeUk9QvigGxsDG9XpcqIk0prICc/T0YPXkwr3h5GzLphjjC9xewt58CGNeE7p0Ib+4yiPiieyfCKSBzP9X+e8/V4JQHmBt/hLmz5tEzNZUZDbyP0Wc0D42EPfvyie/nW5lcbV+wib0jxzLwhmg42MQzoMbebHvb/c2zhKcOZdrYtaStqfi1YQxi2shQcjascHtD3bpmKT+tx2kdx927RCmdmoX6UcNqpn7UEKzWLP64NoN/Tb+ZKQuqnvXiK9M0OXr0aJW/7xoTQ5+47nC1BjBMTPKOfo5pVAzKdU6cSl76F87gBUDZxQIyvv4DIeEVrd22JsbnmNQcwosd3I1wLvLN3lNstZ6keGQifQd3gEMFXrc3gvrzq5TOtDqexb68IGLioul343h+HVDMz/5ypGKQyYDrZ93JgyM7Ul54mkN7jlNUZiUkLIo+A0bws9j2lM/5iDUXLUARh3cfIjAIIIDI3j2IbH2BY9+dIt/l3FmnvM0mCebmn4ylgyWLwwcKaBvVhZ69B3P/f4VgzP2QVfmO8vhz06wfM3tkR/wuFpB+6BCF5UFExsZw49S76Bv9AQ+/ccSZu9wwrAy/+27mjIkgoPQ8x44cIa+8FZE9unLjD+8ioccKZr+6j3xrfctfSyGJPHx3RwIyMtmbE0S3uC4MGD2ZJ1sv5cG/Z3DZasFqPcOXu/IYfWsMw29uw9JVF9wOEXlTH2KtcGbXdy6DM+fZv2MvtLb95B/Rg6HdQnwokK/178d1M+7h8VvDCLhUyNHDhzlnhhDTszs33XkXsZ2W8su3T1Dm+eDw4XqdWvXktoRzZJy4QELcMGY83JFi8jh8pjUJccO4f+phNr513F4eK4On3cUTt0fiX5zHkcOHOW8G0aVHHMn3diOu4zv81/IzlVOp+VSeJmwPYW1oCxQVnqtcdy7qXP8+319IuncqP7u1I9ZL50g/dIZz1vZcN2MS3c/U/zJr9zxx0bovj8wMJ+REFvsKWhMT24W+N4xlTkAxD756gKI6Xm+d+4uP7bk29WkYIYy7+1aGdbT93L6bP+BH77GT+M1NLhtm7eaFD9I97nHjPD+BxuuPR/LIATpGdAKyoUcnwspLKLaG0qUHkA7Rke1pRQGZRxx11Ljtv0rdrueRH/QgqDiDhX+rT/CiNt9HTdHf6/j8rMX1NtbzuW7fj+6s1nLOFJQAwbQPBxTAELmibP14G+Gp1/GLPmlubyva/qEN6+YdIKpfD7d9HOkdksNt27u+AVlVGgLPzz1TV7i+beiaUmRu9nXOVAqu5/E177O3FBmeaRgcZVu8N44Uj7Ranqkestd/xq74sdWmOzGMQTy/YCwJ9nO6ns9ZD2/CQ67Xv+8zt+NVVaaeqanOetxOdI315CxTDdfhSBUGkDxnDqPtaTgyJ6d6LYfj3N7agLP8eJTLvi+z/qP6slbTNry1ryo/c1m3oj7twJOjrrLXL+b+BVRqh1fi/a+J5zV5vh1c737my/Ognjne0xb9jTsArBZ6NvA+hhHFL++3pV9byiTm1mHgtTlNHdwD9q9m+f5suuQOZfTgwbCmcrsIj4gAGnBQeGxf4nO3MXc1zgF09R8qXXd111RT/2lo6kdVa65+VOnvq2r+RnPdvtL3+uqNrEu+l2Fj4cM11Z2xtiyUma0wLRYslOFPKeXl5fj7+TXkSWrUpAGM/KNfUl5a7PZZUIee5B39otK2l4tzuXzMPelT1s538AsIJrBN5yrPYRituKFPBJQe5rs0wHKMI6WJJPTuRTtjC+e8PAD8uwZz+JW/8Zd9tsFXa/ggnn1yLPHDbmBKpyO86xyhjeLGxI5YLx3lrSeXsbLIMfARwG33TGZcVwiPAQ6B1ZrN0r/+0/5729u7kZE5fPnShzUvemwJw2/fP/jZ+2e4bLVgWNowZfYsZiX2YcLYCFYtybFXXn/GDQ2hLHsvf31hBWsdAzFt4nji6R8y/PrrmbT0CO871lxpP4gf3RZBwMXjvPfcUt4/Zdi378Gcp+7ke0Nv4kc99/F6Rj3L3z6WGT9vWzk3vdfBRrBGt+LQH//Gn+317991BPN+fQtxN1zH+MUZfGSPd+386hBnbr2OuCGJRKz4lmznwFYQ3x8cjZU8tn91Bscb2lZrDh++tdJ5nqgf3OvbgKyv9R86iDtHhhFwMYN/PLuU5aft1+NoP6Nu4viZH/gAACAASURBVAf/eo9lHmve+Hq9AITksW7OP/m0NIJfzJvFmLa5/Dr1C/YE9OfpP/0/hnSLIco4RpbVAu0GcHdyJAEF+3jl6X+xzv4WrtGuD088dQfDx4xk0mfL+Li49uWpV3uoraAAAoCiy5eq366O9e/z/Q1M4Ic3d8RamsVHz7/LQvvb2u0HJvP8Q1ENcKG+P0/cit+lDSf+/Hde3WWrH2vYAJ556nYSk65jSsQBFufW7Xrr2l98bs+1qs/WxA2I57oo97YV1T8B1y3Nw2cIJB23VVIa6/kJjdcfC3LIvgBDOtkCGNZuHelYcIp9ft3p3M0C6dArvD2cO0LGOWz/OGjs9u+F4RfJQz+9kdjAC2x7ZwUf5dSj79fi+wia4Hrr+Pz0WSM+n6H234/eXLxcCgTRKqiO1ygizWf/Wj7dP5TbPd5WTJp1HfH7NzFnPzzvsUvSrJvhzXlMPljxD+UZLyZz9LG1LE/LYMZ097RUtlRUON+yNcZM41/TQ1k3bx6vuBxj7ovYB5ZsLP3H8VD2Yibfl+UcAJqROpgPfcy37Rh02vPe8/x0jetAUSpvRL/tlibBEj6MGRGfMfk++7GtFmceas8BtJRwC6bn30yOc9rLGe6yjsSUlGQGGxWDSZbwYcy9fytzZ81zGXway0eP4TYY5q1M3gZ/aqonX67jwxdfYLnzvjhSb1iYUkU5klKqbgPO63Qtl32A7emFwzD32Y7lraw1tQ3P9mUYgxjWD8D1M1uu+71r0wBLvduBa50PTnnAY00Y979Dr9T7Xx1H/WWvX+y8JqPPaH45FtLW1L+f+fo8cJUUHYrF0oGUhXNIsX/WnOv0TE21B1gWnIJZdT3GWOLJYPGCU02a4qji+ZyG1Wph494CRo90D2pbrTvZun8sCf3HVWqn9TF1cA/IPVAxkK/+4/x9Q/Wf6oIY6kcNpzn7kafq/kZz7UeebclKFpm5VBl4qYtyAig0oiknAMd8glZcwGyGNJU+TjK6ggT2IqGbhfJjJ/i6FLh8mD3HTazdujMy0PsuflkHWbqnYrjdyNnJF/svgbUjMW4vK/lhsQJGOYZL5gmrtZQv31vOnBc+5t1DDXETc9i+5ozzzWWrWcSHXxzivGnSuUvFH1jWS9/x5MN/5K5fr3QOvgFYi46w/VgpWNsTFeNy2P5d6OYHF/dtdw4W2bbP4J//t4c9+wu41K7+pbeEdGbIsASu8/hvRP9wvN0CS9Z+lrnU/+VjW/k63QRrKDGxLhse/Y4dp8HavQ9jI1w+75hIUncrnD7I5w3y1qhv9U+/aLr6wcV9ac7BNHBpP36d6dW/HtcLcPEieaUA5yi8AFwoJhOgtIiiEiAgkLbO8nShWwDk7dnhHBwDsJ47yP/tOQeBUfTtW8/ytCR1rH+f72+3cCIDwDjyHYszKobI89O+ZXNWQ/TzOj5PTu9neVqJ80cj9zvW7r0Ilo508Xq/fLzeOvK5/dSiPq3Ws/zlv19g8n3zmHzfPF7dXoJpFrFh/vPOzybfN487ntviPkOiFtdb6+cnNGJ/PEPWWQjs1JEow6RvVCjWsxnsO2slIrIThuFPl7BgyDmLM4FiY7d/D4bhz00pkxgT7Ufe5s/444a6juTb1fb7qLGvt47PT5819vO5yb4fRaSlWp6WQfjIm5li2P516UzrkZbmdfu0RUtd/kFuSztAWCfb4NDqjazLDbWlb7BLuiGOcDLYutr+hmVyD/Yu+av7Md7cZl+Po+I8Zs5WXltwyr7NTpZuKIB+fZlimM68z3ekrvM6QGMYg3h+eg+y1y92G4yxHlzHaxsK3K4X7G8ozktz23/ayNBK+y+f9zZrc6qZ1d8vjHAg59Qp50cfLnIvo2mms9hlIMFRJse1VVWmqlRXT3W+DtfjeylHtW3AW7kOruPT/e7Hsg3mAGFhDDZM39rG6gPsJZSo7vaTjO1LPAXkuLa5fvEMDCsg61j924ErY8w05+KsjmNVaodX2f133BNz32duA6nWg+t4ZY2lAfpZzffcW19PW/Q3t7/rn1qfT8Jdc3hujG9tuiENTnmAGf0y3O6pLyyWWFIWzuHjt1L5+K1UhqXN4477l1ZK3WIJH8bTLtt99OY0tzqt8Tw17O/6fAbY/s0RcnB/hoMtyPnU+nws/cfZjvPYoDqdz8ERaMzJzq74UP3H7Zoaov9UR/3oyu9H3vj0/VxF/1ieluH8Tq6PUjOIPLMreUZ3Atr3JO62p+gzdh49bnyUUv8wDLOKAfZG1KQzMDr0vIWA1h3I2vmO87OL+Udp03kABce/cds2MDiMkPB+5LvMwogadA+lJflcyK4mx9aQ7sQFwMkDhyi0WrByiW8OZjM9rgsDhlhYuaXyLuXFRZz16Bxniy4C7Qh2G9A/xVffFXDzzb2Z9ewMhu8/yfFTuaQfPsbmA4UUN1QEyrxIYR7u4aWTp9iTHkZYdglWw3SmmTAswVx3y0CSuofSIdjfuUv7GCtgxS/A5Rj2N9vzizxfUYVDaz7hv9dAQyz2Zp76lkd/U8Ui3l4+Ky8qIsc1f5zV4PzFy0CA25ugVmse63ZmM25sJMNGhvL2h4UARN/chx5WOJm2m0MNEaH1tf6DAgjEe33a2k9br2+y+nq9tRbSilYAPUbwmwcHu/2qVWQgEODRnhu5PI2tjvXv8/3tEEwwUHz+nFtaF6u1iPzzhudR66BuzxPzwgVOez6vzl8EOhLcxtsOvj9P6sLn9tPo9WnXWM/P2qpFf7RaizmRUwJ929MLaBPRnvycLDL8ipjcORwIJLKjhYID2RXrPDR2+3cI78fsn3fG9Aul36AOmNnb+cubh73OZqyV2n4fNfb11vH56bNGfj432fejiLRc9rQBt8+K5sNFWe5pPargmnIIbP8YBts/ljfuLWC0fQHL7URzc7xLzuc+8QwMg4i75vDxXZWPG9Ud2G//ITe37ikw3AbC3I+x/VQBEEqXfoBj8fLcsxz1cf9q7d/LrtyhJN81h4+Sq0jj4XkuX8tUlerqqa7XUUN5oeo2UG25PI51NLsAwhxlrbltWA/a3mCdYX9DNCk6FPZv4rXs65hrb3PcEEd47hE27qf+7cAh7DrenG4byKx2gdMr9P5XTjliSyH2R2z3xDGbpTbH962f+fA8OFj5c09pi/7GoojHmZGczODVTbeegjFmGnNHwrp5tc8ZXyn13vQfMWV15eN4TQdUi3NVt79jgJ79myrOa2/Do0dWzoWftuhvTF7k6Pvj+OjN61xmbNWtvG5tR/2ndtfkQ/8x9nsvm/ui3TbqR9Wcp4X3I081fz9X0z/swY6aw3/emaaVQqJoF/M92kUOwj8olNKLBRz/9x+JHfVrWrWL5Mstxzh+urCOZ6ibJg1gWLDQsedtnP7ufec6GGd2Lyfutqcpyt7jtoh3jxv/i4uFGc4AhsXqT8eet5G998NqzzE8oSvBlBHQbQSzHVOW2vtRSmt6J8TAlpN1Lr/VavDt2+/zysVbmTysO4OujyLJnqOu7NwpvvnoE176PLdeg4FVnjtnF79/dpf9B3snC+zGL56YwpjoQK8rw5tNH3RtdAc2HuTk9yPoNmgA3ZdvJJ0QxgyKxmpms/WrszREAMYbb/Vfs+YZLAqJ6c11nm+OA6bp2wK9zc60r3TjpU3Xju/7e72/FtsRvHWjhuhaLe150ugauT6r05zPT1/746EzBTA0lOiQDrQLDyBn/xn2BBbSakQYPfz8iWgP2VmnKx+oSvVs/46jtI9mxLCKt07Onz7Fgcu0wPmbDXO9jf38bMzj1/v70QJgXpV/O4hcC9yDDnBzcg9y9m60/cPZ4z0BR4qNeDJYNNO+HsWYafxresU22785Qs5I2wKW24/Z3obf9Y37AE3VaSqu7ICp423xP7qmTGrEfOTNwZc2UB81tY2j2QUQH8ZgI4qb40PZuzaN7cfCyBlpf8M0IpScvXsbpb7D7UGSqo59pd5/R7lfcfvUAn2a5vwN8TxwC4Y1Acfb7xaLheQ5c0h2+60tLc8Mj7UZqrJ83mqG1TJFXoMY29e2LkP/cXz81jiPX8ZWmQv/wxdfYLljbZLUH5E5q/6L/oL6T11V13+qLFsV1I/qoAX1o8b+fvZFGYGYppWIfpMozNyKadr+kDyXtQOAdtHDuHwhl80HtjVdoWjiAMaF3ENYrH50jB3J2SOf2z87yPFv/0SXYQ8QNegeykoKaB3ajcITm8ncusC5b8fYkVisflzIPVTV4TGMDgzr1R6LxUKXgUl08fh9x15x9DROeJ8Z4CNreSGfv/8Ra9+DdhHh9O/ZmX7x8dx6Qw9uunsSuUcWsPBEnQ9fKwk/GE1ydAD5u9fx2j92sf3MZedg55if/5KHhjRNOZpU5m62nryJmK69SY7ZyBsXE0nqbsE8cYA1mbSwQbXmGQXKXP13Hnz/bBW/bbl/NDhdvMxlICgouJ4Hqmf9lxqUAQF+7o9Jw4AAv4ZpaC3pedLomqA+a6Opnp++9seMzHwu0YXO3SNo1/Ecp46Xkh+UT1GnjvSK8aOT3wUOnSjB9z7cMM8f8/Dn3P3sZooCu/Los3dxy8Bbeej6I/x+cw1r1DS5hrnexn5+Nurx6/n9GBrcGrhMyYXqtxORlmv7gk3sXTCWaamdiA+rJn+0PWWP65uSSdGhQIFzE1u6oKHMGDyYpOg4wvdvqnizcH8uOUB4dDQNuhisp2rO4yhv5n6qfr5VuX8EUWFADbnPrQfX8dP719nzmw9j2ti1pDkGMLy83WjLBb/NNmugIf+0qed1eOVDG2jYsrqzBcjiuHksDAzL4NPVAHvZlXsvw8YOhn4F7PrYHjCrbztwyN3E/W+G8WbqUOam5tY4mHbV3P+a7kmj9bPa6xkRWr9ZW7XkfWDYlgpn7siCSgtBV3+sncxZ0pcVd43juTFpTbIGgTO9kZcAgXPh9GrexHekphldz4FRb/de/afp+4+D+lHttJR+5NQQ38++zl6qisUCpm0iQf7RL2gTmUhIWEW+5lZtownu2JPW7WM4lfZ2fc5UK006amQapZw99H9EDrybwOBOzs8Ljn/Dvn89yPFvXiF770cc/ORXHP/mTxiGLe9zYHAnIgfezdlD/4dplFZ9go696BsJZfv/j7tmVuRKnzTzDyzaVwaRMVzfsfJufsFt6OCRH6xTmyDgEsWVs1UAYLVCUW4OWzbv5u2FS3lxQy74hdOvf31yjvjOMKBPTCcsFLDlo61szSmtSItiQHArL7Gpi6WUAiFt2lb6Vd9xk5g3Zxo/HVx5t5bEaj3HmrRTmIQz5OZORN7Ui+5WyEjbTWZTR/QvlnIZ7/Vpaz9lXKpnmvhauXCJS0BwG295hK4gxwrIA0IiwomqLm9fY9f/qUIKgaDISGJdy+HXjdjO9TiuF7V5nlhCQoj0fF61tT+vihq2XA2qCeuzJnV6ftZWbfvjsXxyaUN4nzAiWhWQeRRIzyO3dSjd4tvTkXxOHnbZvomfP9ayk7z+7k7yzBBG/Gg0NwfWM2BQ2++jxr7exn5+NsHzuT7fj4bRlu4RrYHznDneaEUUkUbmyP2d0D+WnA0bqx0wsFg6ONcgMPqM5qGRoZW2WZ6WAf2u46F497U0HOeJGDXDLc+20Wc0b1SRC9obw4jiF/Me56N5o73maq7yPPZ1DPYuqX5QxLE+Q/jISfyiT8X+U1PH2t60dJZjEM+9+bgzj7XRZzTPpbivC2Wa+WQdq/jZYollRmrFF5UxZhop/S3sXdvwbxn7eh215UsbqC2f28b+vezKDSVqcCfC9x/gQ6vFOYsoPvm6ivRR1R3Tx3bgVr6D67h/3jZy+o2tuN8e7fBqu//V1d9zY8wG6Wc13XNvfX3KYw+4XY8tf34B6z5Os+/j3i99UZd9GvS4qzeyNsckPjm53vnnfdLPkd6ocruryJtvW0fBdg3ude4YuMXeB2vLarUtGBweUbEAm/pPxe8bqv9UR/2oATRxP/KlHurz/ZwU3fgBrKwdiyg4/jV+AfV96bh2mnQGBkBh5mZCwvoSO+o3HF3/HKXFtjcRjbKLXMipvLZFQHAnYkf9hkuFmRRmbq722G2GdqebBbKOZrgt7Gq1lrH5aA4z+kUSnxQAn5e57WfG9ONH/bfx+gFbcMQaPohb+7UCI5OTLmEro9sNvDw7ibCcHTz7+685ZDoGvPzp1KYVUE5xsfuxbYq5UAIQTGgkkO1lk1qyWiGvqARoS8/EjnAkz/mGVWj/mxjZw0tj3Z/J8fJ4+sQnMT36MEvsC6cabWL5weh+9O2Yz9H3TCq/Bdrw5a+PE+sPkDEhmh79EhhfHIXVyGTLhnM0+eyCfZmcKI+nT//BTI086FxY1tl+yo5zsJrlWhrc/pMcK02kf+JgxnY4xup828eGfwT/+d/3kByVw8q5b7PodH3rqZHbw+mjHDh7EzExvRgT+W8WV3X8xq7/M0fYe/omukYP4ZcpObyx8ignA8IZM3UUCQHVr9nQYcQYfvfjAXQmj6/eXsIft5RU2qauzxMzsi9TB2zlVfvCvtawRJLjg8DMIrMlL9Jbj/psaHV6ftZWbftjZi7Zl62E948htCCP9BKgJJec4hHEJZoEnsshvYiK1w6a4flTnPYFC7fE8eiIBFLu3cOWNzIo8fKHkS/tv9bfR419vfV4fvp2vU3zfK7z92OXBIZ0Ac6eYNsZWthsRhGpje3fHCF7ZFyldE+urGuW8lT0Azxtz7lt5mxl7pIM5nq+Pbj6AHunjyWebby2GrdnQ9qiv/EUFccAR77ntAZNT5m26G9MOjWNFa7nMfNZ+/zzXvN/e/rwxRfgscdJcUlrsee9xawNu5fRzq2yycqFePtP1oPr2Dr5cT5+q+p842bOVhZnX+eWaqLqFCD159t1+M7nNlAHvrQNR7Di6VGx7HnvfRxt1ZG6jA3u6aPq2w5cWQ+u4/4lnVhx1zg+mhfGU/+1p9Lvr7b777X+9n3GHS9aqv59Leq3Ls+D5fNW8MsXU/nYmdc/3eNNbfd+6Zu67NNwx3UsvjzQY5aPbTHfYW7bmi4pdRyLGKdU9fsq9l/MUMKxz2Dy9reb/Rk+evJgXjm4kzmz4PkFqXzsMnCfvX4xd3isCVNTeV0tT8tgRrJtweA0q0X9p4n6j4P60ZXXj/7fvOrroT7fz4Y9LWPO3poH6YovltC2bX0WeWx6ltFjxpuXzx6o8wGK2l5PuX+nmjd0Pal/K6IH3EWr9l3I2vkO+RkbnWtiOLex+tOhx81EDbqHS4WZnPruPcyyqlNWGAaMffiXPDSklPXzX+Pl79w7utE/mUW/SqL19o+465UDYLVg9L6Nt+YMo8Pxk5zsHIolPYuzRjBd46IJa2WhYPNyfvaXI84BGsOI4MHf38u4SD8u5pzkUOZ5SsqthIRH0adbO/wL9jD/iZWsL678kOk7dSbP3R6BkXeKA5kXsF3tRXZ98Ckfnqg4/sMvzCQ57CgL7lvGxzU8rAL73sIf/2sEUdZSzh4/wfH8cgLbh9EzppT0Y22J72Ww8Y+v8oddjuNbGX73DOaMiSCg9DwZR06TV9aKqNiuRIVAwbZ/MfvV/eR7Oa9v5R/ECwvG0q84m7R9uVz2UuaszWtYsNV2H531v/cTfviH3W7b2VK4lLmVv+JeB/Hj3z7EtNhLFF0OIijzC3727Ga3hU4BjD5D+XVyFH72n/0jejC0Wwjnju9nX7Yj33gB/168kS+LLLWuf8Owct29M3n8tjACLhVy9OgZCmlD157RhLUq4+Ta93nknZOUOdpPLa7XMDrx0O/vZ2zrnfzP7M/YRGtmPPlLpvIlM57ZRAFdeezlu7m5ZDOP//oLDlotGAYM+tG9PDEuioCL+RxJz+FceSBh3WLo1t7K2a0rmfPaPmc91bX+wbf2UB9xU+7lhQlRXPhuFf/10u5K97ZO9V/L+wvQZvBo/vCzoUQGVmx7OWsTGwuGcVu/AlY/+wZ/Sa98nHEPz+Y/BwcCULLjI370SuVnbG2fJ0bsLfz9tyPocOQo6dGdCT5+ipzyIGJiuxARbKVw6z958NUDFNXxemvdX+rQfupanzW1x7pcb22en03SH42O/Ofvf8Kt7S8ReHIjdz+3jWLacv/vHmRMx0sEZX1NyrNbnItnN3b7NyK+x59/fxMxR77g7mc3O18KMIJ78cT/TGF4mwLWzX+TV/ZUXrvBt/Zfu++jRr/eWt6v2l9v0zyfff1+dN8nmP/36P38ZEAg6SveYvZH+dXWlYjIlc6ZEiJ3tU85uT1NeexxZoRta/ac7vW9Dqkb3X+RCo58/SyZ51MAQv1HpLIpjz3ODOrfFo0+o3kztROf+pC2a3hiJA/OnMyJkycpvew+envy1BkWfLSLPmPnkb7+984UUofW/IZB05c6P2sTnsCJLX/1qWytLx6iVcnBmjf0Iq+0LZGR0U0/AwPALLvEqZ1v0z5mBF2GzCR68L2cPfo5WWn/ACBq8I/p1PM2LBY/cg+vpvDkZkyjpgUuYxjYsxWUHufAbi+/3nec9EtJJMX1ZDgH2OL6u6LvmL8ugv+Y0J/4Tq2xXsznwNZveWvxEbe3S63WbP784vvkT/keoxI603dgDK0s5VwsOk/Wd5tY9cHXXoMXAPs++Bdvtvk+dwyJIn5ANH4WC6ZZxPnPgTrmuC/Zt4Fn/lLC/ZMG0qdzdwZGl1J45iRfvLWW/UkplSJ6VqvBlnff5dmzt/CjkXHE9upF1/ISCvNP8PXqr1i46oTX4EVty28J6cyQYd5zwhzN+hK21i93utV6kdU7TvLDuG60aW1wYIf3AW6iujFiaG/8PaYGtuvWj+u62f7fNM+QtXwjX9Yh9Y7VarDp7XeYl38rU2+MI7Z3b3pQyvnc43y1cQNvfJLpHExrClYr7Hx/CXPPjuKeW3rTs3cvYo1LnMvP5KsvvuWdFRnVDmLVRmO0Z1eH/rmGNUPuYdyAscz9SRkvLNjPMdNzOl/j139R2jp++UwGPxgVR9c2cP50BmtXHyDh4eHV7rdt6z5O9U4gnHw2b/Gej6WuzxPrpf28vCiHn9+RSHx4ENZLhRz8ZjMLFlUEL+qkkfsL1L0+G0Ntn5+1Vdv+aLXmkZlTRlBUa85mZ1NitWCliJM5lwjp2pr8MznO4IVt++Z5/liLD/PnDw7wyqy+3HLPKDb+9zrSPPqmb+2/dt9HjX299Xl++na9TfN89vn70c6wtGfsT35AyoAgSk99y4KP87gi1koSEakPZ7qINK7oZ97Vch1SN7r/0gLYUiBdx9xq1ghokdR/pIUwjCi6hOHTrImaTJ08FDa87VMqqy27T/P8q0tJ6BWJv5+f2+9yztrWUjCNMjr0vJXA4DACgjsSPeReAOdnnhMRGluzzMBwZfULIDisD6ZpkH/0C8BWGRaLleLcgxjl1ax5ISJXLSOsH7/51XiuD/fn0tnj7Ph8PS98csq5VkFz+sFjj5PSL4/PnnmD1481TXkcMzDC9n3GlP/d1STnbCrNUZ8i1zLDgCHjx3P3bX3o2ymQ0pzd/P1/V7E6V/1PRK4ug1Me4CFW8FN7agfH28LxuXV/A7g53iBujOuQutH9F3FXm9kM6j8i7owx0/jX9NBKqdZqqzH6Vvuu19Mu0vtaHaZRRt7RLyjO92258Ct2BoYro7yUojO2vJOBbSIBuJDdlAsHiEhLZM3dz3NP5TH1ntH8vxHduD4phtafnKIp10X3xjAi6NIRMM6Rndn057fUY7HGlqi561Pk2hRAfFIifdud5+DXX7DoH2nsuXx1PVtERMCWW/zTxyrysYNLTuwraNDqarkOqRvdf2nJrNYsXkl9gVeauyBVUP+RlmhwygM8PaoDYFsDpj7BC7Ct9fIhNGibLjzxLYUnvm2w49VXvWdgXGgznLKAiAYskoiIO2ubTtzU08JXaTlNOgPDMIIYe9dohjsnmfkR0jmGfjEhXPxuFb98aTdnm6g8jhkY4ftX84MrNE9nS6pPkWuZYUD/wT0xj2ZwsMho7uKIiIiIiIjIVSro4l4CS9LrtG+DzcDwLytQAENEGpVRdJYNu2iGNyRa03NAPNdF285rmuVcOn+OjM1rWfyOBttrT/Up0hJYrXBgl2/TfUVERERERETqylpeWO9j1HsGhmltzfn2ozCbPxuViIiIiIiIiIiIiIg0M7+yQtqc/6rO+ztmYFjrWxCLUUJQURoWlIJARERERERERERERORaZjUuEnxhe4Mcq0GmTQSUnsHv3FeUtO5FWUAYpiWwIQ4rIiIiIiIiIiIiIiJXAKtRTMDlMwSWHMJqljbIMRss75O1/DzBF3Y01OFEREREREREREREROQaVu8UUiIiIiIiIiIiIiIiIg1NAQwREREREREREREREWlxFMAQEREREREREREREZEWRwEMERERERERERERERFpcRTAEBERERERERERERGRFse/uQuAfxv8uk6g3BJC/tE1AHToOQY/8wLlJ1ZBWVEzF1BEmpNpbUu7qN50apVHxuF0sFqau0giIlc00/AntNcNhFxKJzfrBJcNPVdFRERERESkZWq+AIY1gIB+DxLa/8eYZjlnj37OJb4FwNKuFx163oYl6VcU7PsHpfv/DEZpsxVVrnxm9BR+NvtOenKAlX94io2nNVhzJfDvMJDufXvTPsgfMy+NjOYu0DXCDIyle0JfgjlL1p7NFF5WfxG52gS0jSSyezQRXc9w+sAmTudfbO4iiYiIiIiISBOI7TOQPvFJ+PlXhAbKy8rY+u81nM3ObMaSeefXM6733PKLZ5v2rIGhtL357wTH3MSptLc5/u1rnM9Kc/666PQucg6sorQkn7CEu/CPvJXLp9ZBeUnTllOuGu0mPMrPRsbStmMs7YtWsX5PcXMXSWrgH3Y9fRLjCLFcIC9jK0cPH6UcDaQ3Bb/oYfSM7kBA6w4EXD5M3rny5i6SiDQgi8XgQs4JLpS3pk2HKEIjuxB44RSFxXpZ02WsSgAAIABJREFURERERERE5Go2YPgo/vOR39I6pC2hHTrRMSyCjmERdO8Zx8jREziwdxfnC/Oau5gAXDRa0aZN22aYgWENoO2Nf8baugMHV6dSWuw9eGIaZeQd/YLzp3fRc9RvaHvjnzm/PsXnmRjBU17jtR8nYsXg4DvT+J8PciqfI/HXvPTMODp+91dmPfVuvS6rOqYxgBmvv0py5B7eveM/WX2FpcDxtfymcS///dFP6Gep+voyPvwxT759vLGKWqVzO7dxeFws3TjKd2nZoIHwOmuK9mz696FHv260Mgo4tfNzzpwvQ/es6ZTnneL8pfaEkE/h2RKau+5NI4h2scOJju5EUGAAVnubM/N3sWP7XqUVawRm6wH0u74/wQXfqY6vUhbjPOeP/5u9+QPpO6gfnfoNp+jbL8gr070WEblSdBo4jW5BRznwzRaKG+Nv8rbDSBjak9YWCyXHP2fvkcr/pr7WdBo4jW6ksWPXweYuSqPff5ErlfqGXElMI5yYG24lgqZrs9fdmMymTZv44IPlbp9brVbuufseHnrsGf7y0lxOpB9o9LL4qskDGAF9HyQwtAeHPIIXVv8ggjr0wL9VW0oKjnOp6DQApcVnSV//HL3HziOg74OU7vtjjecwDX+Gx8dhLb1AMSF0T7gV67L3MfTgahLmhWPs2p3JZS+/yz52ocnLA2DZ9zrPzHzd8VOzlEF8YxpW2vXuT1v/coqOfGMPXkhTslzYy6F/73X81KxlAfCLGkFsbGeslwoozCnCMO2/uFDQrOUSuSqc30X68Qjie0YQHdeFs/sysejvJZFrTnDcePp1a4tZfKTafzx3GjiN7p0sFB5YwpFTelY0J9MIp3VQYx6/D72G9oQTX7BdgYsWp7Hv/5XENdDmytfnVHDcePqGHK5VUMo54BiUzfHPv+BsFc9Mx7PVbV/zPNnbVpF53lLtdq7XEBw3nr5di6s8V037e9u2uqCkGX0LQ/t2rvjZ47uhNudzHsNRZxcbNwCovlGZ+siV0UfqqzaBu+DgYE6fya70uWEY/OOdd5g+fTq/euJ/ve5bcqmEtO1bWL5wPqWl3kZ+G0fTBjD829I+/h6y0hZz2SV4EdrtBroMewCj7CJlJQW0Du1G4YnNnNz0OoZxmcvFZzm9612iBs8g99BbUHa+hhPdQnyvIDj5GZut47il12CSeJ+tjXt14lCwk/efe5GTGgCROommU4dWUJrJ6WPn9Oa3EBIaih+l5B1azbFcj/ag9iFSb5eOH6ag2wg6dOpBOzKp6a8sEbk6mcXnuRQUQYf2UOzlQWC2HUbnjkWUFLdp+sJJJRZrDpmblpIJjfP3UPt2tKKIwmzNXm+JGv3+X3GKOLPVfcCzpnbrOqhr1jKrekjv4XQOtmCaNW9rmmfcBlWD48bTd+gE8Big9R5A9v3e+rK/aYTTIawNhWfP0C6sO8GHsisNdDoGgo+tW+Issxl9Cwm9I9wGc2tb3pDew21vmKcdaNQ2q75RFfWRltpHGqrN5qZ9QesbbqVH72P1mjFpmgZLlrzHpk3fYvGSYScoOJjJk+/gtgl3s/qjhXU+T201aQDDP+Z2TKOcvPQNzs9CwvrQ7fqHOb7pVQqOfW3bLiiUnjel0mXYLE5s/isAeekbiBx4D/4xt1OWsbT6Ew0YRq92kLvlSzZbhnJL9z4MGAxbd3nfvLy8nLBRv+Ind46kZ0QbrCU5pG//mHf//A7pHovXmtY+3HTffzBuRG/CQ9sR5FdOyfkCco5uZs07r7L+iG2GgWmM4+F3f83wENf9E7nn443c4/KJa0ol00hi1t9e5tbwXbzzqy/p/h/TGNIjjCAuknt0C58teIF1h9wX2TSNziROfYBJI4fQPSqUVsZFCvNOcvCLd3h/+XryKnXGDvT74S+YcusQenRuT4BRTOHZTA6uf5f3l33p3L4u5a+tihRef+O3X8dy35Tr6daxFaWFZ8jYupTFb3zMacNRnhHc//cXGRV6gKU/+ymr8jyuK+wnPP36vcSeXcP//PR3HLRaqriGqstct/oPZ8C0XzD51kF0C29HIJc4n5PO3s/f5h/LvqbI5eFTu+u1p2kyPuGtTT2YMqEX/pmf89YzH9DpoaeZMqgj/5+99w6P67gO9t97scBiK8oCC6K3RSEpkmCTKFGiRFq0JcpNblJcFH92HCu2ZTuxndiKndj+8jmWe0nkuPxiR7IUUbFiRbJaZLOoszcRJDrRiSXaYjt2ce/vjy3YXSyARSeleZ+Hz0PcnTv3zMw5s3fPmTnj7zzAb7/9LY7E9IWqZFHz7nt4382bqSjIQouf0f5mTj//ax5+8gT+ecuz9PoQxWRFnwHq4KVZnWiqosVQupGiYit6nRZZnSDoG2Gsp5Gunotxk7+q5FCybTdW3QCdR7rQ164mx6wnjSDjjl76Wo4x6lES6jeRXbOJwgILmRqY8A0z1HEEX+GtlOd6GDj8FH2e+X/BqJjIrmygwJpLZmYGaZLKhN+Lf6yfgY7TjHomd5+o+k2svdpGxvBJXu/RU15djkGXjhz04B5qo6vlPH5l/u1VlRIqbrgOS0Z8e1xtT9DcNfVwX9WwhbVbq8gYPk5jfzbllSXodWkofjceeyOd7Z0Ep8w/8+tPOS0NmGBihgyC8xtfLYbSdRSuKsRg0CIrQQLjYzh7z9LXfZFg5GVEyaJ429soUFvpGMiipCIXydlJx6kmMuqvpyRPh+LsovPMEZzB2DHQkFnUQElxuH4mCLiHGO05Q2//cFQ/1ZxtrN9Qiqf5Mdr6FFRs2G7chFkdoPOF0Lys5m9nw9o8Rk89TteIFCP/0un/dGQU30R9jRUcr3P+2FnG5/mSpSpa9CXrKSpcNdn//jGcfefo6+6L9n/8eC2lvac2XvNlLvXPxb6iq5u0g3S98ieGElJAqZrV1G5fh9HXzvlXj+BN1g6lC+fYFnJyszGZwLkymyUFAsFKo/PgH7ZirayjN8kqS4PVinbYw1iuCGC8KTAZ0a60DAJBKpiMaPHgcwByarfoq/dQl2enad9edA13UDaHx6mmLVSUgmPIiTl37uK6W1oZK20gy2ql17nMu5tK1oZWxDe60G6uorDkCG19kx+rSi2FpUb83UfiVrFLfQdoTFJdqkTqHWt+SqR0WgmEjaTOCtnIYiDJl+jptmOtXYulZfpdL6mgqirt7e3Tfl5aUoKtbg3PzfsJc2dZAxhB2chw+z5UZdIpV3DV+xju2B8NXgAEvaNcePn7GPLro9dCZ2LsQ5Vnf2Eu3rqGPNwcOvUKr6e9A8+u7dg218Pp5Lm7FP12Pv2JCjI622kaNlJks1G745N8XjPMl77zTNQ5oyoaNnzm//IXu1YxMXqBttPncQXTMORXYWvYw8eq85n41Bd4yS0BdjpOnyAjEyCDVXVrseocdJ9sZyTm2QO9Ux2DYOa6z3yCbKmNtkY7pqIaKup3cdfXclC+8Dn2X4rIY2LTZ3/MZ3YVInvtdJ4/gUMxsKq6lm0f/AY1pffxle8/E3Vaq4qWdZ/8KZ+/tZT0wDBdLacZmdBRUFnLtj/7BvXVP+EfvvUYDnmh8s8R44385UdXoelo5bzdREmNjbVv+xv+Vufhyz94nnFZQpIP89KJi9y4u4bNu8t5am+8kzzv5msol8F+4jmao0Z6kZajr0Jm6C9NwVVsrDCnIFCq/a9j/ad/zOd3F6PxD9LRdBKnaqbYtoZrP/RNyvO/ydfuPzjFCZdKe6NkbmDH+kG6usZYbbuFO+8twssA7f1GVttu4cN3vcaRH+0Py6Ol/uM/4UvvqEDjuUhH00lcGCms2sBNH/8OlZZ7+fpvjkxNpZaSPMuoD7pMNEAw4JzRYagqMoaandSWmpGCblwjAwSVDPTZ+Vhqr0eX+RJNrReT1KHFUteAVhrBNeRGY7BgzKmkskFPx+EDjAYj46tiqLmeylITUtCLe9RBQNKRW3cd/kVw7oXkv4HKUiP4R3EODhJUZDSZ2RjzbVSadbS/+hKOxAi9poiK1VmkuUYY82egN+VgKmqgRvby+tnOebcX3Lgu9UBa6C9JZyU3K4WfrWllVNSZkMaGGfNp0ZtzMJddQ50myNnzvZNO+jn0p6oYyLZtIDv8+HSTDEiYy7dTHhvEcHfQeaEvoc2pjq8GU80ubKUmCLhwjw4QUDRkmi1YanZgMrzK2fPd8XWnWcm3eHA7fWRlVVG23kAQN25XBqasKsqrenm9uT86vvrKXdRWZiMFXLiH7QRkDXpTAdbVeRgyD9LcMRiq3zmGHwltZg4wBAYzWjXABAYy9YAH0nV60nDjccTqz9Lp/3So+quoqLaSFrDTdXYhwQsZg20nNWVmZMWLe9TOeLT/r8dsPkLj2Y7ofLX09j6H8Zpne+dVfwr2JcmXGB50Yi21kFtoZKg73qDSC4sxSOAf7EgevAAkWcHvDwCZpOsAEcAQCN60jHa0o91so9jUFL/qUamlsBTsx/rIzLXG3RMJpBbow3NqzErK6dIZJF5PTG8Ru2oxNu1Ik9sWTckQ+5xU80cnS6ORmM4hIlvXoJXyhLRaiSkjfF0ncOQ1zJgSRVVqse1qICv8zNjnRfuhESpi2z90Iq6+6WTSNdwR7Uc31ln7KSrTLO2IpAoDKNhyJ9ZwOg9f5R1J5Yg8O5kOROUnQa7wvdTcNrOsM+hGMv2a9lrMuRUL0YNEIn3l69rH2Ram6OGVOP6zkdimxFXGC7azVOaDBeaK97Q9zYk2QJaYS7YhVcmnZE0otVo/W+flnF1J8vKsMHySQccImd4qrHl10Dd1zLWGHGARHcclRZi97TT1EHWgC9tgSrtnatNstrHYCBtZXhuZ8l40w7tVbPkp38c9Z7GX7iS7BIb6Znri3FCDPlQUJCkNKU3LxMQEaWlpi/eAFFjWAMZI+/P4eS3umi6niuH2/VPKjnsGGe98Ke5a/6mH0OIkZ4ZnqIqFLatLIXCKxtcA+RQdn9rO6vobMCrn41bER9CUZ9H+3Y/w4PGQZ0guvou/u+/j1G97P3sKnuHxqE5ezTUNq5B9p3jwr+9hn2Nyde61d/8Tu8ol8qqB0yDJx/nDd47zB2JW0+t6ePHrn5v90GOpGPnsV/jbXx1mXJZQ5TLe9o8/48PrN3HLuzey/5cnQ+VM7+Tmq7MJDLzCg//wZV6OONazbuVzP/wym7e/l7f+5hmejHiYLR/kPbtLSfee43df+xxPtvvD5d/Kp757L9uuvoN3rn6MB5sWKH/2Bu64976pZ2D0/pGf/cfzUxz6Uometvs+wgPh/tdU381X/+nPqNx+Ozvvf57nwhU17TuKfffbqdx6G5b/vH9yq5ZSxI7N1cj0c2rfYSJbsiT5JM/+6CTPhp9j/civUwtgpNr/eX/G7TuL0XjO8si9n+WZrlBgLqo/uz7EW/ce5OmRhOpTbC8A+oscvPuvOTi+iY/+/EfsMvXw9bu/TXvGe/niA59jfcU6rMo+7LIEOXfwvlsqSB89xM+/+CVeCe/MUHPfyee/9wU27flz3vL7IzzvnLs8C9KHuZKmQQaCwVlWg2fUUVxsRgrY6Tr2AkO+UHk1oxbb1gbMJWuxXLjIUGI1kglp+ACvh52FqqLDsv5tVOSvYlVZLqPt4QGTbRQWm5CUEfqO/4mByGrtrC3UN2QvQkPzyc03IgUv0nHoIKPR3S4azLbtWI0yWhMkbkORjDq8p56l1xG23wwbti2bMBfUY23rxJ5oeCm2V5JHGGp+hcjOUE3Z7pQCGJIpA9epp+hzhAPTmWuo2XIVxsJaLM290frm1p8aDHklWBJ2T2VaSiPxyFDbR0ZCAYx5tBdNBfkFOhRPD53HX8YRcWTLJVRccx25hfXktXYzGKs/Gg+XXjvIiJJL8bbdFKQ7aTt0DJ9cSeX1V5NjzEOjhHcOaGwUl2cj+3tpP/LSZP2aMiq3biOn/Cpyuw8wrADjo/jHQaczA0NgNJLhG8IpWUM64AGdTg/jA/iChF76l1r/k6CST/HaOgyyn5FzhxgaX4Dta+ooLjEjBy7RfeIgg2F9UOUiyrdux1KwGmtnBxc94fJL3d65jNe82ju/+lO1L0//RfylNRjyK9F0nonZPaQjNy8bCSfD/YPMtMVaCQaBdOTlfQ8VCASXG44jDAzfQUHCqkdDjQ3zcCutDrAl3GKoWQuNeznunPzBXXbtVryvHmFw0E5ZbXxaqlAqKhhrngwKbKrVYz+2l8aYOuquJex8CiFZNlLh3sfx/ZeiTqKyhjqGUszJHXFMOZoeobEv1pl0B2t0++PSLUj6asoMJzi+P1y3LEXzWSc62cr1Euo0a3gicmpjzpGwVG9Fr0w6nCR9NXVr2mjatzfGQdXAxvXEOcySyZTMqTRbP6XSjqHTjzIYHZdICg8JyzRyGKqn14FoO2PlCjvh6t9SjToUqiuZrLPpRqJ+qUot2bkAsddC+fDHupsAacF6ENvn+uo9CWfC5L8hxn8mIv3n69oXbZNq2kJJCXj6Fm5nqc4HsRh0eiTJRPlb7qQ8fG2p8sznNYSDJy12qJlvHQ2YsdPVYl/WFEeTc28TkiwxMujCWhofsJbkZkaHG8iybJyigwshL88K3r5JR76wjejni2UbMwUxhI2kxkraSCIzvVvF2kiinkhcwudl2sDLXFGVIMGxbtSJSUeTnGFKKTXYYpPi5qEriMybqa+Qmeg4w9FxwLeP8xcU5Ip1XJ2Z/Ja0vkM8eXTyMFil9wFePOsFeRWFcQanQZIAVSFmEwmS7OC1X9zDt/7+Czx+ejGMq4eTTx6OrmyVlC6ee+44TlUlv/Sqyee6H+K7d93C3X/1lWjwAkByPMPpDj/IeRRUxlTbUEexBryvPxMNXoTK/y9PP/MS584OML4IflnJUM6Ga65ja8K/LVdVkswvIvW8yh9i+j/Q8mtea1MgrYDC2piC557hdD/IFdewoyTmesHb2VCZBn1HefH8wuVPtf9ZX0ORBrxnn4sGLyBGfzTlVG9YQHsBfGOMjIdkGnMBbkcoxjs+hMsHZOjQR8puqKckHUZOPRUNXgBIw0+w79QwZFRhW7dAeS4nsnPQyTAxciHqzASQxpsZHAmCnI0xabTfyWjv5EpnSfYy1HuRgKqSaYz50WHIQiuDOtrFgGsielkdOcuIc5G+RCVAlSDGaSnJQZztB2k7/SL2ZM9x9TAw4pssP96KfTQAGNAljc+l2N754uzBPjK5LUL1nGd4TAXJQKYhptwc+lOSHfQdfpTj+/dyfP9e2gYCqKoP+/FHoteO79/LiZPnkrzQpNZeSWml45X/5vThV6LO5ND1HhxjQZD0oeBBLBM+xhUAD8EAEPQRAFD8BCcATfrkHJdtQS9DYLA9vv5gF/ZBL8g5GLMiV0fw+UDWmtAoKpkGPfgu4fRJaPXZqIoGrS4DvA5c0fqXWP8TCO1Y2YrVIDPef4wLA55py6ZEbkT+jmjwAkBS+hjo7mZs2I2aHlN+qds7p/GaB/OtP1X7crUz7AHJVERu7LtORgVZZhncFxlxIRAIBCkxOGhHW7oWixL6dRpN/TGYfDe7p+1AzA/7UPoCdMaQA6nnLHavkSzr5K4Ng9WKFjujPeGVmqVWxpqfiq+jsT16HkcE1dPGhRZ7uEwz/d0uyC3CoqjR/NEnDh1N6sRRlVpstVZ8XfviHDaS8ygXul1x7YXwSseTTXH3F5Yap9w/eHI/A54ZfsVnmdECfu/kQZlDbfEyquoAXbEOibBMkbZNJ9N0zNRP825HbP1J5JhRB5LJ5TzKwHB8XSGnEKAzo1fU1HSjp48xjGRG3tlKijDjwh+rc1nlZOlc+JwL14O4fii6KXrIa6SuKXr4Bhv/yJioQyfina3Oo/T2SYtgZ7OPeTJb97Q9Hfcb4XyXk6y6O6kuWlwPm756D2W59rjxSgVJKqD8LXeyaecdbNp5B9mDezlx4MCU9C6Svpr6mHIbb7oprr9mfc4s98fOvQBuux0/8fMzhAKY57ucSJaNoXrWJ3cKpCpvJIjod8cslBK2EdemxbCNmRA2ktr9K2UjyUjpe3Ua3R8ctEe/S+eLGvAQcHQQGGlDk1WH9T0vU3Dn61hufTwUvJhYvsO7IyzrDoycqt1Ipmr6Tz0UveYdacdYsI7Rrlfjymbo8zDk1zMSswujcMOHUJ1t0P7v0z/k2g1UpkPfuYO4wtGno+e6eW9NDWuvTWPfwanLJxXXKKMJhjHidAG56OMc+od47aSd63Zu5MM/+Q2bG5vo6emms+k1Tpxsxb9Yh5upTpwDxIeXOps431aEZWAMWVEn02rIJay/7V1sqCgg25ARlSCrNA1IIy12hHWZZADDSXLIdf7+q3z797AYB7SpvU/w95+a5hDvJNcU1wjDsbnjZD8ujx/IQKsn5vrrvHC8m5tvq2DTzTX8/oFWAPJ3X025DL3Hn6VzMaKzqfZ/uD9HkvRnSH9yyEgS+k+1vXPGoAvlqa2+nXu+fGvcR9oiLaBFn+SLbcnkWWrCOzXG/VOXQwT8fkCXfCWx6ic4Tvz4uocZcxjJ8PpQFRVJlkCrRQNMBNxxeivJXgKz7Q5JiUsMD7rIKy6g4tq3Mjo8hNc1hmesH6fDNe1KAzXon7KLKej3AwY0yWb0VNs7T9QJX5w8kqwQDHnzkWLlWfL+jAiUentVRYehqBqzwUhGhhyd/dKNoZRVC5pN0tNDIphrKF9dGfeRrNcAaaRlhP6WZC8+bwByDOiANJ2egHcYj+RnlT4XyECrlQiMOCb7bqn1P4KuhIq1OaiSAZPVCO52Opq6F74SZgb5/X2vhfOMSimVX5T2zmG85sU860/VviTZwcilMQrLs8guNGLvDK1PjKSP8tjb485AEggEghkJpx8oqLEy1HYpPvXHNMSmHILQj2oI/egeGXRhDR+E6cZKTl5M7mhTOVk6yKy7k011U+v1m4Bw+kS8Y/NPkxHnLIuvw+31AHoys5jc+ep14U3x/hlxdOLwVlFQdycbS6dJ9ZH4rFRlmo6Z+mm+7ZhFXpheB2aUK6Eur9tF1DuTNbtuSM7QStiy8EpTg04Pw61ccNuoC+scVitar50RBwvXgwg6G2trQ87OGQ9KvULHf2rqklAKsR5CYxLZzTKX+lOzsxTmg9kOSSTkrO00fICy0q3oexYnvY5adBN1pWA/Nve88lPS6tXuxNIztZ6k6YDm8KyZ7o846BlunXxuWD+tpVPz5XvanuZ4W8SuN7LxJlvMbqz5yRunF8I25tamFGxDdSSXrTfJokhhI5enjSQy+/fqDLofDnbMa9mhqhBw9aGreh+ZZbeQZigk4Bmg/8VvU/6Wf0aTU8uhF56iv6d1PrXPm+U9xFtxkVW1i4tn9kbPwRh4/XdU7/oGLvvZuEO8K7Z/Aa/jQjSAIckacqt24ThxiuC0T4B16+vQM46j/IN84rPhi9kaAhioWn89HHxhhrtnRpL9nPrZV/i596+4bdtartpexQZJAj5J0NHG4f/6Ab948vTUMwYWAan3t/z0S78N/RExMP1OPvrtL7OrJDPpyfArsaVnqbnwx8P07imldNPbKfrND+mllBs2VSOrXZz80xkWIwCTjGT9jzSbg1NaKnGmeVxIHkPpJraWTv1YVYPLK898Cfuyl7XrxpvpPBHaXrcQZ/6cnikruFsO0hbcRFFBPtmFOeSG7VjxDzPcdpjO/tElkWcl2ruSJGuvKhdSvPlaCkyaaebPGU4MnwMacyGWJDtjVHUi7m+32w0FBrSyGU1mGr7RITyyhzSTiXTSyNSC3z00taJFYCZ9kDJzyV01ubUh4BnCp3BF79+cqb2pjtd8Wcr6ff29eMpXY8irJqPjFH705ObnIOFgdGCUVGdVdRHjiQKB4MokPugAOaVW/INnQz/AE+aISBoOM3Y6/xQ+j6LoJjbFLEZ02+34S0MHYbY6Q6vhHfZ4J870qSyu7PeUyGrxntiUSUuYs3wlSEUHFsJsuuF1uyDPjF7JJyfPyFh3E26nGX9peKWqwYh/cGn6WxsOkkxX95U6/hG5e+OvQuLu5CViMeaDuGDYAomsfpckiYItd1IQ92koLU9ZwtkM0zF48iTZc0x/tyiUFIXOZbBsZNPOjQkfFkybL3/o9KMMRs4d2bwT376FHQwcQdjG/JjJNqaVbRqEjSRwGdnIUn+vzvr8oB+UCcwb/w5n1x9JV0MrBUcvtVEO6Cpvxzt2gVOnnlgegcIs7yHePc8gbf4iuZU7GGrbB4B7sJmu135C8Za/pHDDhwj6RsnMLsPRfZjeo7+O3ptbuQNJTiPY88y09avKajbU5SFJEkUbb6Yo4fPcuqspUQ4m3xmQIlKwlVd/9QVe+YWMvmQDttrV2NZtZ8cNV3Htn/8tw+c/zKNt865+TlR98C/YWaJl9PQD/PKXv6OxezQaPLn+3mf5xJblkWNZ6XiKk13vobh8Kzts8J/ut7OxQkbtPMSBDpbXqaaqzBwjUpmlwOISlqfvqU/z5V+dmabQ5fsyEGUigAKkaVM4QHopUSdQAUmKnyZVRV7o2vwoEm6cHS9yvk1FysxFb7ZgzCkhv8iKpW4bfsezDPhmr+eKYBn6cy5klm+gwJRGYPAM7c0tuH2BqDM7a817qLLOUkGKeC48y/kOxzSfTrY74HUzQS7arBzSdT58rgATsotguQmdUUYr+xlz+VhuG1ZHTnPieCOqvIqSq3dgzV9PqbWPzkH/7DdfgaQ6Xpdl/Z52Rsfq0ZuLyDWeon+8kmyThDrWx5CHWb8f0zIygAmUxYnVCASCKxx3SytjpQ0UNhgx62bIQx1O2RO74tKg0xO75i+ULqiKsrw6DDor2uHWyRWKjjH8gFZnZVEPjE1khudE5PU5mH6unPb+HDJ1MNvyX8l5lMYDR8M50KspLDkS3m1I0lWSoXzx7aFdA4v5+2aB7UhKCjqwuLLGEwqQWckpgSydnYEegE4c3p1kl9RBrgtHRzhgtlA9iODwIACuAAAgAElEQVRt5WyjmbWbq6hrGJvVKfeGGf/ZxmTJ7Gzu6AxG8LYuijM8uWM4lC6nrtQz5SDometqprW5iM11G6kualqSMwgSiaY3ShIgiB6KPsNK/Ej6GusCnafJxlXYxvLbRgRhI5NcLjYSZTG+V1PdmZQEVQo7MtMyGG5/EdOqOvR566Ofp+WsIcN6Nem5axl9+a/n+ZS5s7xrKINOHI0PsWr9B8nQW6KXR7te5dwTn6Lr1Z9ib3yc5qe/SNerP0FRQjm1MvQWVq3/II7GhyA4w55B6w3UFMJE47/ziXfdwF237+Cu23fwkXfdysNnA1C4mi1JnFKyMZushNxgOSYj4MUzjZ9BkhW8fSc4c+Bhfv/TT/Mv+/pAU4ptQwqHRC8CqiJTU1aIhJ1je3/F672OybRSigadNn3qTV4f44DBNDXPeeV77+Or/3w/H7z28l5WK8ltHDjWgUoJG3auI2/XFkpllc7jT4UOsl5OZujPkP4EGF/ge/uccHvxA3pTwaxFL2s8LvxAWmYWmply9k0EUQCNduqygXStlgU74txexoE0QzYZcXIUYDAsrq5JsgTjI3gGW7G3HKC1ewxkM0bLVDuWNNop/aLRaoEgwZm2p600y9ifs6EqKgaTEXAz3NGIZzwYk1ZKJk2zCPIEQoE4Tbph1qIAOJ340ZKZlYU2LZSnGacLv8aALttAOu7QtQhLrf8JSAzQ23SBcbTk2jZhkhcYnZ1Bfm3Rddg23MSqHDWl8ovS3rmO1+VWPyDJboYGR1Exk1WQTXphEXpJxTPYPiXtXCKqYkCvSwc8+MVZGQKBgMn84FmWAvzdZ2d0PEiSKXoGgWraQkWpcUqZwUE75NqoyIs/SyPynMyyXXG5uFXTFtZMk1M6GaqST/E1H2DjNVuS5nye9jnhcwzGmmd2rkTOZ9CWbqXYNHl/XkNDaMVmVI5aqm/6QDQftmraQnV1wsHOqjPuO12SCihrmMwJohbdRLlFYqx78Vcip9qOOdebgg7Muc5UdcPRicNrJDPPiHa4jyFZiu4iMpfaJtNHzVRninoQJ5/zKGePtePPbZgc7wQ9fKON/0z9V12kLoqdzTbmyWzdsn5PXHtCefhd2DuawvfE22UqLOk9PWcZ8KiYS7cuKEd9ymRF0htN1anJ3PqhcxRCbYjvz4hzl7B9zRVJDh0qrDXkTNYpbCP6+WLZxkwIG5mFZbaRVPphId+rBp1+YWk3Z6H/2K9xXPhfJO0iHKI8B5Z1BwZAoOl+xlddQ+WN99J+8FsEPKGUGErQi/vSuSnl0/UWKm+8l/HRCwSa7p+x7szt6yiToK/1UFyuZ0l2c6Klhz9bU0HddWZ4Ij4IopZexzs3PcSDJ0NvNnLxR7hhrQ6UVvpjFlOoNZ/hG3//ViwDz/O9r/yETiXi8DKQa8wEAnhd7iSSDeL2ApjILge6Z+ul2ZFkhVGnB8ihcuMaONsYXRVl2PQZtlcnUdRTTfQGr6X6qj28s+pZnggf5K1mvY09t1xDjeUiF4YmmLoKdPHlXwgDz79G57urKF/7Vt7iqURW2jjxfDvLvrvgVDO9weuwrX0bt5Y9FT3IWy6+K6Q/wXO0nlxOeRrpCmynfsOt7MjfxwuXQnv81YxNfPjb/8zO4j6e+dJHeaxrof20xPrguYjLuxq9qZBc/Wns0+1AGB7Cq5RgzKnAktkVPdhXzaglL0cDyiVcwwuQw9eD01OP3lBFRZ2Dzo4+AppsciqvwizNnGNFzttKTW0ZOtxcat5Pb5LV6qp+HbUNVWg97bQcPx2ds1RFQ0Z6BqAwMR4gUa9VYzEFlmZ6R8L2m2HDmp0O6ijesQW0d6lZQH8uNpIsEQgEAR2GXDOqcywawJCyrsJiWoS5ZHQIt1KKOa+a7PZeRsMHN6tYKNx0I6uMTvoO/y92X/hZnjH8iow2x0KG34U3CDCKP2DDlAeyfxRPkMllB0ut/0lQR07QNbAKW0EJZbZizp7vTboaNxX9Z3QkJH9uFXn6ruhB3qpcREFZMaZMF66WmPJL3d65jtec2zv/+udCoK8XT2UOhpxKLMFsJHWU0T4Xs34/6qvINgHeIcZ8XNEpwgQCweLhttvxlTIl3VMsUt8Bzuv2UB/Oy6162mhqtlOX+Ju8p4+x2gbMtHOhh7h5xtP2NOeZrAMieaObFn7mUgyetqc55r2JzbHPUZ0MHH0kaY7wRIZOPwrrP0B5THoMR9M+BnQ7mVwjN4LPC5ElbZLzKKOVH2DTTin6vGQ5srvctriUFdOnCVk4qbUjdVLWgXmQim5EghX1ZQU4mvYT0dVI6jISHFIL1YNYJOdRzjYb2Vy3kY3XmDn/cseUz99o45+0/4ZOcOK0NP3nc+jf+cwHgyePUHLtHWyK5v4fSFjxHW+XqbF090QOX85K2METOvC3Oq6sGpN2J3LQcfl0n09zfxdVaAnvTkr2jheen62VdfSebqZ1H9h23cGmGMe9r2sfJxLOe5lN3lgGB+2UlYYOFfbIkrCNZbKNCMJGLi8bOX5y5n5YyPeqGk6n6B8cmbGcx+PBZFqeBfiLxbIHMFACOF/+FKbt91P7tvvoP/UQIxdejJ6JEUGSNeRU3EDhhg8xPnoB58ufAmX6nOSqIrN1bQ1pjNL5eiOJL9kXz7Qw+q4KqtbugscfjzNwtcdH7d8+wP9r72BYMVJks5GXCaOv/BdPxx7m3HSINtftVNa8l6/cv4H27iG8ExoM+ZXYKnNRR17hlVenBgAkuZ8Tr3fxjsoydv/jr6noGguf4+Hk7ENf5dm2+U3AJ59/kYtb91D13h/zw81N9AwHSc8upqJsnM4ODyQq9+DD/Pfzb+Hzt9bz3n9+hC0tFxgJ6lhVVccqI4we3suT55lisHOWP3sDd9x7H8nOpLe/8l32vrDAPO79T3Ki/Q4qKt/CTeMalLbXeKF/qtzqho/x6VtriZzrqikIRfgtmz7HPcURXbJz5Gff5zXHPMZg6GEe37ebz791LXfet5drWjpxkkWxzYYlM0Dfsw/x/MhUuZaMkUd47Nmb+dI7tvCxHz7CzrZuxiYyyauopSQ7jeHDT7L/wsLlWSp9nqz/EpcujpJfmU2Bzcbw6dbkq4eDLfT2VlJbaqVsy63kjjoJkIEhO5cMzQSerkaGYh2+c5ZjhL6WDrLXVWEsuZq1JaHriquFS64srLnT32suKMWg1QBZWKxF9A52TC3k6sMZqMOYXU/dtgKcLg+KmoYmMxtjViaqr5uhZKYy5kW/5hbqnCP4yUBvyiEzQ2L84vlQsGee7VVNdZSXWKKzl6QLrRTX5m2h3BBZ2u5huOkETmU+K2/m359LgbOnC2++DWP1bq7KG8LtV0nTGjGYFNxjQVjoYoJgK32dFRgrC6m45jbcTieBiTS0Zgt6rcS4vYXhuLQ+4ZcYYw6yayC8OXQEnzeDApME7u74DaNLrP/JkOQgY02nGMneRk5hA8WXLtI7MjX4lJL+jzfR21NOTVkepVtuI3fUwbiSRqY5D10GBAbOYXfFyL/U7Z3zeM2xvQuof06MdzA6tgaDuQLrhIzq6GE48RDzBFRFR46tGr2k4O5vwnsZ5x0WCARLh6ftaU60EfcbKZTaA2J/20hyM20HmuOuRQ6yjOVEX0Jd0ftI6mhJVkesgzpZaopYmSViysy0irXvAMen5LCOLz90+lGGpqkn+lmY0KrLmJqSyJp4T7JgkLflKY7HvUOnJlPs9bg+iCHZ2M7WDgj11Ym+eFmmk2M2HZjaB8nrSibrTLoxtUyi/h4lGQvRg8S2xNWlYYoeXqnjPxPJ+2+2z1O3s5Tng5nmiLj5J3nfTJElVtpZ7onIGdu3ye5J1v8wVT+Ttjmhnvl/3jxtX4fkjpmfk/w9H3mmEHYAx6aIErYRvTqt7ImkMh8mfa6wkcvKRiSZ5H0Xs2si5e/VRJmzykPpFKdL/Rnm0Mt/5ON3f4Gi4mIC4/He276eTn73Hz+csX0rwfIHMADGR3Ee/HPS6z9F8caPUtTwEYba99F/MnRIcmHDh7FU7UKS0hg991sC5++fMXgR4gbW2nQQOE/zsSQfHz/DBd9uGmo2sY7HiTshwLmff3u2ko++ext1eXpk3wAtL/wPD93/DONxRn2EB77+DUY/fAfb11Vga6hBKwfxOkcYOPUUz/32Xzk0TeS0/T/+mf8wfpa3b6mivkFLmiShqqO4ngXmeWaG//j3+e6PXHz4vTdRvWoNa0v8jPU388LPfkrb1T+mPqG8JPs58/N7+N7gZ7l9VwPltQ2UTngYHW7mtT88zN5HD+CYRsHnIr9kKGfDNeVJ67nQa4ApU9/ckOQ+Dhxu5l221Rh0E7Qc+QPDyeQuXs/WqzeSlrDlz1Sxla0Vof+raif2h+C16VKSzyiHn9P3f44fDt3Du3Y2UF6/iXT8uC6d49V9D/Lb/3pp1rQdi4kkB2n6/z7HfUP38L6bN1NZv5FyxYtzqJVXn3+M//7P55P30zxYCn2Oxd95govWHRTmNVBdP0FHcwfjUwKDCu6W/TT7NlJUXIA+twADEwR9lxhqb6Sr5+LCV+2NHKXx6EXyVhWiT4eg5xJDvR0Y11TPeJtroAdPdhmZuBi+dDFpGUkeov/EiwSrVpNnycacn4vMBBMBH77BFgZazyQPFCi9dJxzUF5djlmXjhz04Oxrpaulc2Ht1ReQW7AKOcFe0rOKsGSF/q+qo/g6wDnfcznm2Z9Lgeo4SeuZACUVpRgNeWSbFIKuIeyNx3Dn757jSpKpSLKCp2Mf5/0NlBQXYsguwKAECfqHGeppoq+zN25+kGQHPu8EGmMG457R8Mu2G58viCYrg/FLjoSXzGXQ/2TtUrroai3FtLaY/JpNjBw+gifBNlPTfwV3636afespKi7EkFOAfiJAYHyIoc5z9HX3RdMiLkd75zpe82nvfOufWzu8DNqHKMrKR6NRcF66MGO9Kgay62+gPC8D1d1Cd9cYy76bUSAQCK5komknmrii5883SjsE80OMv2CJCaVAslE3wzkClyXCNgTLgKrkk6lj1l0TqZBXWQXds6dDPHPkID92jFC7ZhNpmvjQwPClgdB/JsbJrbqBdP0q0o2rKF23ByB6DWV5D2yV3rJ7jzo+1DR7yaVCYySt9DYmJAMj7c8DkFO1mzTVzUT3UxAUyZgFgjcjakYF5Q2bsejTmPAOMtp9hq6emaPIy4Vl/fspy3XRf/hpLnqWRx5Vv4m1V9vIGDzJyddnjvZfaaxEfwoEb2ZURUZfcg3FpYWYdBoUTzedJ19hdFzYn0AgEEyHvnoPFRyhMZwiQlVqse1qwOxtn3LoZ6pY1n+AMt38758PS9EOwfwQ4y94MxE9DNl7ctaD74VtCN5MqEU3salWPyWN2lxZbLvR2e4gs+yW5B8qAdyNv2Dcnnyn42IyHDCxalXRCu3AiCXoYqJjLwDRI33a/51FPHtUIBBcgUjjF+g86sRt20Dhqjws1rxQAGOFUZUcMjMlUL0ElvOQ9ghvsNz0K96fAsGbEhmDtRST1oer73W6WpvwzyM1nEAgELyZ8LQ9zcD6yZztEJNb+wpybL1R2iGYH2L8BStFKimHVhJhG4LlRl+9h/qy0Endjqa5n8OUyEzpx+aDt3Uv3ta9i1LXYrDyOzAEAoFgFlQ5C7NJxjkyvKwvD6qiI7t6I9mZkSsSGn0eJpOWicFjnD3dGpfmZklliezAGD7JyVlWrFyuXE79KRC8mVEVmcycInD24VemnmMiEAgEAoFAIBAIBALBSnP57MAQCASCWZAUB04HK7DyQYMurwSLMfRcVZ1gYtyDu7+ZnhbhbJ87oj8FgssBSVbwO3pWWgyBQCAQCAQCgUAgEAhmRezAEAgEAoFAIBAIBAKBQCAQCAQCgUBw2RDZgfEGy6YuEAgEAoFAIBAIBAKBQCAQCAQCgeCNgAhgCAQCgUAgEAgEAoFAIBAIBAKBQCC47BABDIFAIBAIBAKBQCAQCAQCgUAgEAgElx0igCEQCAQCgUAgEAgEAoFAIBAIBAKB4LJDBDAEAoFAIBAIBAKBQCAQCAQCgUAgEFx2iACGQCAQCAQCgUAgEAgEAoFAIBAIBILLDhHAEAgEAoFAIBAIBAKBQCAQCAQCgUBw2SECGAKBQCAQCAQCgUAgEAgEAoFAIBAILjs0Ky2AlJ5GZlkOGYVm0vRaACY8fsb7x/B1jaAGJlZYQoFAIJg/qmzCXFiDRTvMhdYOkKWVFkkgEAiuaFRFQ7btWgz+Dgb7uxlXxLwqEAgEAoFAIBAIBG9UVi6AIYFpfTHGDcUoSDj7R3E5fQBojRmYt1eTvV3FdaoX5+leUFdM0hVBLXoPd//1+6miiT98/x958aL4cf5mRujDlYkmZz3ldTVk6TSowye5sNICvUlQMyopX1uHniH6zx7GMS7sRSB4o5FuWsWq8iKspQNcbDrExRHvSoskEAgEAoFAIBAIBFcElbXrqV2ziTTNZGhgIhjk6CvPM2TvXUHJkrMiAQwpQ0PuzXWk5erpPtrNUOsgqhIfoZBkCYstj6JNJWQUZzP8xybU8eBKiLsimHfcynZbMVDMzhv/lRf3XlppkQQriNCHKw9N3jZq15ShVZwMtZ2hv6db7L5YJtIKqsnLzgKysBacxtHtX2mRBALBIiLJQS6deRZ/yTpKy0ooXLeTjMaDdA26V1o0gUAgEAgEAoFAILisWbf1Rj5+9xfo7ukhMD4evW4wGrhh51v52ff/kd6ulhWUcCrLH8CQIPfmOhR9Oi1/OMu4azxpMVVRGWy+xFifg+qba8m9uY6hZ87OuhNDVXJY+77P8q6dGykvyELLOO7hbppe3svDD/4vQ6yMA1FVStj6sb/h9hvqKcgykJEWkkNtfpC//NIv8Cc4NsdOHaP1lkrKaOfMSTuskNxLiXrVV/jBN28h98zP+T//+PCMZa0f+TXfe091/P3qKK98+x38/PDi9I2qfIS/f/wvqJemr+/Cf3+Yf3iwa1GeNxfeDPqwXKjKOu76t3/h5lVnefjdf8VzSxBUUDW1VNSXoVVG6Tu1jwFnEDFmy8fEcB9OfxYGRnAM+VjpvlcVHebKrRQVWdBlpCOHdU4dOc2J440isLUEqJnrqN+2Gv3oGdHHb1AkxYmz6xUaR9ZTt6EeS/1WXK/tZzgoxlogEFzeWNZ/gDJdO02vHsGzFO+hpi2s3VxFpiTh69pHY5tY+GRZ/wHKOMmJ080rLcqSj79A8EZG2I/gjYaq5FNy7U6sLK9eX7P9Zg4dOsRjj/0u7rosy3zogx/i01/6Jj/7wdfp7mhaFnlSYdkDGKb1xaTl6mj5Q2M0eKHL1aPL1cWV8w578Q57GHeN0/bHZurfvgbT+mKcp6bfxqIqGq76y5/w13vKSB8fprP5JI4JA6uqa9ly+99TtSqTr933BK4VmOjMb/8in3jnRtJHO2g8dhF/JBDT20GyUz6kc//GNz/6b5G/lknKyxdP5wmOHBqI/p1VtZWavKV5luru5PTrvSQLrdk7V2Z1p9CHKwdVkTHXrMakmcDV9mo4eCFYTiR3Iy2vNEb+WlFZANIKr6aysgDZP4rjkovohkP36IrKJRC8IXCepqPLypoqK0XVxQyd60USP2gFbxL01XuoLzOhetpm/NFrWf8Byi0SjqZHaOsT9rGSqEo+mbrZy82//lpsm6ugez/HReDismOpx/9KIjbQFkuq85S+eg91htY5BaVSuSfqTNTZ6dq3n6Fp5tXI/Bt3r+rEfuwpep3SjOVgsp366j3UlXqmfdZs9ycrO1PgUi26ic11BZN/J3x/zOV50ToifeZd2iChsJ+pCDt649jRQplrcE+v13NxwD7luqIo/Pahh7jzzjv54te+l/Ren9/HyeNH+N1vfkQgkHxTwlKwrAEMOT0N44Ziuo91x+28MBWYsK4tQJOZDkDQF8B+dgDvsAeAcdc4fSd6Kd1cirvxIsp0B3ub7uSdu8tI9zXx2Ffv4Yn2UNoQNfedfP67X2DTtjt5u+0JHmlf2nYmo35NNZl4OfrAx/jpASX+Q/FDe1ZcL/yEn74w+ff19z67ZAEMRk+x91vfpUeMi2BeFGHJ0UKgl4udY8K+BRiys0kjwHDLc3QOJuiD0A+BYMH4u1oZLbuaHEsFZnpxrrRAAsEyonqc+HVWcrLAk0T5VdMWCnJd+DzG5RdOMAVJvkTvoUfphaV5B8gyo8WFwy52bF+OLPn4X3G4GDga76icTW9jHbbqUGpPmcs9hpqtFOgl1BTOYFXVgTiHqb56D3Wbb4ME52vyIHPq45/K/aqST06eEcfQAOa8cvQt9ilOzIiTt/NPj0RlVotuYm2NNc5RO1d5DTVbQ6vHTzYtqV4L+5kOYUcpyX+Z2tFi6fXgyf1kXruTiprOBe+8VFWFRx75Tw4deg0pSYYanV7Pu971bnbd9kGee/w3C3rWXFjWAIa2NBsVGGoZjLtuPzeA/dwA5ddXAtD5UseUe4daBinZXIq2NBtv+zTWstZGUToEz+3jiVZfdPCl4Sf44/EPsm5HHkX1adA+GUBQlXzWfeAe3rVzA2X5ZjLw47zUQeO+B/ntf70ct1tjMuXRL/jqy5V87D3bKMvVEnAMcOHoozzwy//hopJc4bQZ6cA4454JpjMyVbmFzz78FbYa4j+fKW2RKtey4+57ePvVdVj14Bls5fBjP6Bvxy/48LpL/PHvP8CD58JGdfXX+Zcv7yTj6A/55Lcej6vn+nuf5RNbxuNSMqnKJv7PL37IzvzTPPTFA5R/8gNsrMhDh5fB9iM8++vv8KeW+EMzVaWAq973l7xjx0bKC7PRKl4cwz0073+Ivb87yHCStk9MTJB34xf5i/fvoMpqRPZdouP4//Dw/Q/RscDDd1Uli5p338P7bt5MRUEWWvyM9jdz+vlf8/CTJ6ak7ppT3XPQB1W5mo//6rvcmN3Eo3d/gqeGEybKvL/gG//2ESqHnuf/feL/0ixLc9aH+Y3X0uh/NE2T8jT/fqiC99xmQ9O7j3//5mNYPv0N3rMhF3/nAX777W9xJKYv5jJec5MnWV9exYf+50U+lELfzgmTFX0GqIOXZnWiqYoWQ+lGioqt6HVaZHWCoG+EsZ5Gunouxn2BqUoOJdt2Y9UN0HmkC33tanLMetIIMu7opa/lGKMeJaF+E9k1mygssJCpgQnfMEMdR/AV3kp5roeBw0/R51mADWAiu7KBAmsumZkZpEkqE34v/rF+BjpOM+qZ3H2i6jex9mobGcMneb1HT3l1OQZdOnLQg3uoja6W8/iV+bdXVUqouOE6LBnx7XG1PUFz19TDfVXDFtZurSJj+DiN/dmUV5ag16Wh+N147I10tncSnPJCM7/+lNPSgAkmAjP05bzGV4uhdB2FqwoxGLTISpDA+BjO3rP0dV8kGHmhUrIo3vY2CtRWOgayKKnIRXJ20nGqiYz66ynJ06E4u+g8cwRnMHYMNGQWNVBSHK6fCQLuIUZ7ztDbPxzVTzVnG+s3lOJpfoy2PgUVG7YbN2FWB+h84QDDSKj529mwNo/RU4/TNSLFyL90+j8dGcU3UV9jBcfrnD92lvF5fg+oihZ9yXqKCldN9r9/DGffOfq6+6L9Hz9eS2nvqY3XfJlL/XOxr+gKLe0gXa/8iaGEFFCqZjW129dh9LVz/tUjeJO1Q+nCObaFnNxsTCZwiqMwBG8mdB78w1aslXX0JlkNabBa0Q57GMsVAYw3BSYj2pWWQSBIBZMRLR58DkBO7RZ99R7q8uw07duLruEOyhb5HtW0hYpScAw5MeemJlMs7pZWxkobyLJa6XUu8w6okrWh1e6NLrSbqygsOUJb3+THqlJLYakRf/eRuBXqUt8BGpNUlyqReseanxIpnVYCYUeLywrZ0WIgyZfo6bZjrV2LpWX6XS+poqoq7e3Tr/4vLSnBVreG5xb0lLmxvAGMQjNj/WNTDuxOBVVRGesfQ1tonj6AkZmBBvB5Rqf8UD/7r3fyF/+aWKeO9Z/+MZ/fXYzGP0hH00mcqpli2xqu/dA3Kc//Jl+7/+AUJwTGG/nLj65C09HKebuJkhoba9/2N/ytzsOXf/A847KEqpSx45OfosESuiWrIh1Iw/bO+7hnV0xdvX/kZ//xfPgZF2k5+ipkhj7SFFzFxgrzDH0is/bub/KxmwuR/UN0NnUylpbHlo/fy6X+2Xp0Lpi57jOfIFtqo63Rjqmohor6Xdz1tRyUL3yO/ZciTggTmz77Yz6zqxDZa6fz/AkcSiiF17YPfoOa0vv4yvefmRI0UPTb+fQnKsjobKdp2EiRzUbtjk/yec0wX/rOMwtyLtV//Cd86R0VaDwX6Wg6iQsjhVUbuOnj36HSci9f/80RlIV+0aagD5J8mJdOXOTG3TVs3l3OU3vjneR5N19DuQz2E8/RHJVnbvowSarjtXT6HyVzAzvWD9LVNcZq2y3ceW8RXgZo7zey2nYLH77rNY78aH9YnnmOV0ry2Ok4fYKMTIAMVtWtxapz0H2ynZGYqgZ6pzq654wuEw0QDDhndBiqioyhZie1pWakoBvXyABBJQN9dj6W2uvRZb5EU+vFJHVosdQ1oJVGcA250RgsGHMqqWzQ03H4AKPByPiqGGqup7LUhBT04h51EJB05NZdh38RnHsh+W+gstQI/lGcg4MEFRlNZjbGfBuVZh3tr76EIzFoqSmiYnUWaa4RxvwZ6E05mIoaqJG9vH62c97tBTeuSz2QFvpL0lnJzUrhJ3xaGRV1JqSxYcZ8WvTmHMxl11CnCXL2fO+kk34O/akqBrJtG8gOPz7dJAMS5vLtlMcGMdwddF7oS2hzquOrwVSzC1upCQIu3KMDBBQNmWYLlpodmAyvcvZ8wsHxaVbyLR7cTh9ZWVWUrTcQxI3blYEpq4ryql5eb+6Pjq++che1ldlIARfuYTsBWYPeVIB1dR6GzIM0dwyG6neO4UdCm5kDDIHBjFYNMK0j9j0AACAASURBVIGBTD3ggXSdnjTceByx+rN0+j8dqv4qKqqtpAXsdJ1dSPBCxmDbSU2ZGVnx4h61Mx7t/+sxm4/QeLYjOl8tvb3PYbzm2d551Z+CfUnyJYYHnVhLLeQWGhnqjjeo9MJiDBL4BzuSBy8ASVbw+wNAJuk6QAQwBG8yRjva0W62UWxqil+tqNRSWAr2Y31k5lrj7okEDwv04XkkZgXkdGkIEq8npq6IXW0Ym1KkyW2LplKIfU6qeZ+TpchITMMQka1r0Ep5QlqtxFQPvq4TOPIaZkx3oiq12HY1kBV+Zuzzov3QCBWx7R86EVffdDLpGu6I9qMb66z9FJVplnZEUoUBFGy5E2s4DYev8o6kckSenUwHovKTIFf4Xmpum1nWGXQjmX5Ney3m3IqF6EEikb7yde3jbAtT9PBKHP/ZSGxT4urgBdtZKvPBAnO8e9qe5kQbIEukmkko1XtUJZ+SNaH0a/1snZfjdSXJy7PC8EkGHSNkequw5tVB31S90BpygEV0CpcUYfa209RD1IEu7Icp7Z6pTbPZz2Ij7Gh6VsqOprxfzfCOFlt+yvd6z1nspTvJLoGhvpmeOHfUoA8VBUlKQ0rTMjExQVpa2uI+ZBaWN4WUQcv42PzzY407x8k0L+Kakrw/4/adxWg8Z3nk3s/yTFdotbBcfBd/d9/Hqd/1Id669yBPj8TfJpXoabvvIzxwPOSJ0VTfzVf/6c+o3H47O+9/nufGAbKo2HgtWwvjJ5yCtddREPO32txGGhAEJPkkz/7oJM+GP7N+5NczO6wz38/bdxYiB9r5wz98iv8Kr643Xv1VvvbFqvn2ylSkYuSzX+Fvf3U4FJyRy3jbP/6MD6/fxC3v3sj+X54MlTO9k5uvziYw8AoP/sOXeTniKM+6lc/98Mts3v5e3vqbZ3gyoT815Vm0f/cjPBjuz2j/b3s/ewqe4fH5zgs5d/C+WypIHz3Ez7/4JV4Jr/RXc9/J57/3BTbt+XPe8vsjPJ+4TD57A3fce9/UMzDigk0x3ZOSPkDTvqPYd7+dyq23YfnP+ye3mylF7NhcjUw/p/YdJrJDZ876EBUoxfFaUv0Po7/Iwbv/moPjm/joz3/ELlMPX7/727RnvJcvPvA51lesw6rswy5L8x6vVOSR5OP84TvH+QMxu0N0Pbz49c8t/iHeaRpkIBicZTV4Rh3FxWakgJ2uYy8w5AuVVzNqsW1twFyyFsuFiwwlViOZkIYP8HrYWagqOizr30ZF/ipWleUy2h4eMNlGYbEJSRmh7/ifGIis1s7aQn1D9iI0NJ/cfCNS8CIdhw4yGt3tosFs247VKKM1QeI2FMmow3vqWXod4RR/GTZsWzZhLqjH2taJPdHwUmyvJI8w1PwKkfC2pmx3SgEMyZSB69RT9DnCu0Uy11Cz5SqMhbVYmnuj9c2tPzUY8kqwJOyeyrSURuKRobaPjIQCGPNoL5oK8gt0KJ4eOo+/jCPiyJZLqLjmOnIL68lr7WYwVn80Hi69dpARJZfibbspSHfSdugYPrmSyuuvJseYh0YJ7xzQ2Cguz0b299J+5KXJ+jVlVG7dRk75VeR2H2BYAcZH8Y+DTmcGhsBoJMM3hFOyhnTAAzqdHsYH8AUJ/bhZav1Pgko+xWvrMMh+Rs4dYmghO/w0dRSXmJEDl+g+cZDBsD6ochHlW7djKViNtbODi55w+aVu71zGa17tnV/9qdqXp/8i/tIaDPmVaDrPxOwe0pGbl42Ek+H+QWbaJq4Eg0A68vK+RwsElweOIwwM30FBwmpFQ40N83ArrQ6wJdxiqFkLjXs57pz8oVx27Va8rx5hcNBOWW18WqpQKioYa54MCmyq1WM/tpfGmDrqriXsWAohWTZS4d7H8f2Xog6gsoY6hlLMtx1xOjmaHqGxL9ZRdAdrdPvj0iRI+mrKDCc4vj9ctyxF81AnOtDK9RLqNOtWInJqY86RsFRvRa9MOpMkfTV1a9po2rc3xvnUwMb1xDnDksmUzPkzWz+l0o6h048yGB2XSOoNCcs0chiqp9eBaDtj5Qo72OrfUo06FKormayz6UaifqlKLdm5ALHXQrnux7qbAGnBehDb5/rqPQlnwuS/IcZ/JiL95+vaF22TatpCSQl4+hZuZ6nOB7EYdHokyUT5W+6kPHxtJc/pyWsIB1ha7FAz3zoaMGOnq8W+rCmOJufnJiRZYmTQhbU0Pqgtyc2MDjeQZdk4RU8XQl6eFbx9k458YT/RzxfLfmYKYgg7WjxW0o4SmekdLdaOEnVJ4hI+L9MGXuaDqgQJjnWjTkw6auQMU0rpwRabFDcZvUFZX0ORBrxnn4s6bwGU3gd48awXNOVUb5h6m9TzKn84Onn4aqDl17zWpkBaAYW14TLyGR781I3cdfsO7rp9B7844kFVR3n5n2+IXrvr9h38+d/9cv5pjGwVFKSD0nKAx5o80cvO1x7g+KJOWD2cfPJwdKWqpHTx3HPHcaoq+aVXRUtJ7of47l23cPdffSUavACQHM9wusMPch4FlVNrT+s7xJMx/Rntf3kVhfOc9ADYUE9JOoyceirqDIdQSrF9p4Yhowrbuqm3SYZyNlxzHVsT/m25qpJkfpFU9AGAc89wuh/kimvYURJzveDtbKhMg76jvHh+Ae2Nktp4LaX+R/GNMTIekmnMBbgdoTj1+BAuH5ChQx8pO9/xmos8lxPZOehkmBi5EHVmAkjjzQyOBEHOxph0xYKT0d7Jlc6S7GWo9yIBVSXTGPMDzJCFVgZ1tIsB1+S5QerIWUacizQ/SIAqQYzTUpKDONsP0nb6RezJnuPqYWDEN1l+vBX7aAAwoEsan0uxvfPF2YN9ZHJbhOo5z/CYCpKBTENMuTn0pyQ76Dv8KMf37+X4/r20DQRQVR/2449Erx3fv5cTJ88leSlLrb2S0krHK//N6cOvRJ3Joes9OMaCIOlDwYNYJnyMKwAeggEg6CMAoPgJTgCa9Mk5LtuCXobAYHt8/cEu7INekHMwZkWujuDzgaw1oVFUMg168F3C6ZPQ6rNRFQ1aXQZ4Hbii9S+x/icQ2rGyFatBZrz/GBcGPNOWTYnciPwd0eAFgKT0MdDdzdiwGzU9pvxSt3dO4zUP5lt/qvbl+v/Ze/P4Nq7r0P87QxAgVq4CxX0nZdGWREryvki2nNiKGyduautl8cvL0uQ1dZY2aV23eWnzXrM0TdO0r0mb5PeS2HFiZWkdJ7Kd2JFkO15kbZRsySLFRdxFiAQJYifAmd8fWAiAAAkC3GTf7+ejz0cEZu6ce+85M4Nz7j2nF7sHJHM5RbFRPm0t+RYZ3BeZdCEQCBZgfNyGrqqV4vBO92haj/HOpMd7eg7H/CAPpR1Abwo5h4bOYPOayLfO7dowWq3osDE1FF5hWWVluutAfBtne6P1OCKonh4unLeFj+lidNAFReUUK2o07/PJI8eSOmhUpZnGZiu+gYNxzhjJeYwLg664/kJ4hWJHZ9z5ZVWmeeePdxxizLPAL+98CzrA750rbjnREy+jqo4xEOtICMsU6VsqmVKx0Dhl3I/Y9pPIsaAOJJPLeYwxe3xbIWcOoLdgUNT0dGNohGlM5EXeUyrLseDCH6tz+TXk6134nNnrQdw4lO+KFmeNtDVPD99k8x+ZE3XiZLwj1XmM4RFpGexs8TlPZuuenifj3ovPDTjJb9lHQ/nqe8UMDXupLrLFzWk6SFIpNbfto333fbTvvo+C8f2cPHx4XuoWydDAppjj2nbtihvTRa+zyPmx92cAt82Gn/h7OISCnOcGnEjFbaF2tiT/sZyuvJFAo98ds4BI2E9cn5bDfhZC2NHlb0fJSOv5nMI+xsdt0WdyNqgBDwFHH4HJHjT5LVjveZHSfa9TfOfjoeDF7OoV746wqjswFLcfrTnzHRRasxbF7V8+gfR5aIHJJHnVJp0uoBBtkhCv4prEHpvvTPbj8vgBLTrD/ONXjCILBsAzPRaXVkeSB5h0pCh0ngmqE+cY8eGu/k7O9ZRTPDaNrKhzaTLkSra842621pZSYNRG10rmV+UAOeQk0TjFNcVUws0pNP5FGLJZKG7Uh3LANrybBx68M+4rXbkO0GFI8kBQh5/gr/8kRRHvJJ+lqw+S/DrPnxhkzztqad/TxH893A3AhtuvpkaG4RNP078cEeZ052u96X+G87Vu7HGphHdqzPjnL/sI+P2APvlKYtVPcIb4+XXbmXaY0Hp9qIqKJEug06EBZgPuOL2VZC+BxXaHpMUl7OMuSipKqb3ubUzZJ/C6pvFMj+J0uFKullCD/nm7mIJ+P2BEk+yJlG5/M0Sd9cXJI8kKwZA3HylWnhUfz4hA6fdXVfQYyxuwGE1otXL0fptrCqWsyupukpsbEsHSRM0V8ZFn2aABcsjRhv6WZC8+bwAKjeiBHL2BgNeOR/Kz0VAEaNHpJAKTjrmxW2n9j6CvpLa1EFUyYraawN1LX+dg9qt5FpDfP/JKOFeqlNbxy9LfJcxXRmTYfrr2JckOJi9NU1aTT0GZCVt/aK1mJH2Ux9abVc0qgeAtQThtQGmTlYmeS/FpPVIQm3IIQj+GIfRjeXLchTVcwNKNlcKSmJzP5hry9ZDXso/2lvnt+s1AOGUg3unMU2DEOcLi23B7PYCBvHzmdnt6XXjTPH9BHP04vPWUtuyjrSpFGo/Ea6UrUyoWGqdM+7GIvJBaBxaUK6Etr9tF1KuSv7huSM7QCtbq8ApRo94A9m4uuBtpCescVis6r41JB9nrQQR9I63NIUfmggVOL9P5n59yJJRCbIjQnER2syyl/fTsLI37wWKFAQk5YvuN91JdtRPD0MqkzkmGWr6LliqwHV96zvh5qfead1M8NL+dpOmAlnCthc6POOixd89dN6zD1qr5ufA9PU9yoidi+2207WqM2bGVmbxxuiPsZ2l9SsN+VEdy2YaTLBYUdrTAdda5HSWy+PN5AfsIBzsyXrKnKgRcI+jr30Ne9R3kGMsIeMYYfeEr1Nz2ZTSFzRx5/gCjQ92ZXiEjVjWA4R+dJv/GBiRZWnIdDEmWsJRZcPy+Z/kEkhZz8EgZvyOuCgso/0rHW6XhH/Gvn/tRnByqYTcf/MqD3FqZl7RS/apvMQrPr7GqnZ1V879W1eCqz++FZ19leG8VVe13Uf6DbzBMFTe1NyCrA3T87jVWSqBk87Xu9H8dzldGhH3Zqzp0M130nwxtEczGmb+ka8oK7vPP0RNsp7x0AwVlhRSF7V7x27H3vEr/6NSKyLMW/V1LkvVXlcuo2H4dpWZNivvtAhXDl4DGUkZxkp0xqhofJHe73VBqRCdb0OTl4JuawCN7yDGbySWHPB343SnqV2XJQvog5RVRtHFua0PAM4FP4bLef7pQf9Odr0xZyfZ9o8N4aq7AWNKAtu8UfgwUbShEwsHU2BTp3lXVZYwnCgSXE/FBByissuIfPxP64ZxgF5EUGxZs9P8uXI+ifBftMYsI3TYb/qpQActuZ2g1vMMW76BJnabi8n42R1aLD8WmTFrBfORrQTo6kA2L6YbX7YISCwZlA4UlJqYHO3E7LfirwitMjSb84ysz3rpwkCRV25fr/EfkHo7/FBJ35K4Qy3E/iAuGrQKR1e+SJFG6Y19cqm8IpeWpTqjNkIrxjg4Klpgib1moLA/VZShuo313W8KXpSlz4U+c/injkdok23fjO5h90V8Q9pMpC9lPStlSIOwoA9aRHa308zktGYJ+UGaxtP0lzoFnyVVDK+2mLvVQA+jr3o13+gKnTj2xekKx2gGMwSkkoLiphPHOuVUP1itKsbaWoskL5VswbzRjOzOG7Y25CFNxUwlSuI1lQ1UXcfSrKx8JyIaZILOAJid+V4uqaNBoMvPOZNPd+vd+hN2VOqZOP8x3v/tzzg5ORXdm3PjQ03x0RxaNZ0J4fkcOfIIHv/daioNW+SHad4COgXuoqNnJzY3wE/ddtNXKqP1HONzH6jrV1pv+r8f5yoTZAAqQo1vGej2ZoM6iApIUf5tXFTnbtflRJNw4+17gXI+KlFeEwVKMqbCSDeVWiluuxe94mjHf4u1cFqzCeC6FvJqtlJpzCIy/Rm/Xedy+QNSZnb/5HuqtizSQJp4LT3Ouz5Hi27l+B7xuZilCl19Irt6HzxVgVnYRrDGjN8noZD/TLh+rbcPq5GlOnjiLKm+k8uqbsW7YQpV1hP7xZdzNuY5Id77WZfueXqamN2GwlFNkOsXoTB0FZgl1eoQJD4s+H3O0WmAWZRk3oAoElxvu891MV22jbJsJi36B/NHhlD2xKyWNegOxa/VC6YLqqS5pwai3orN3z60sdEzjB3R6K8taDDaRBa4TkdfnIPX9IeX5heTpYbGlvZLzGGcPHwvnN2+grPJoeIcdSVc3hnLB94Z2DSznO32W/UhKGjqwvLLGEwqQWSmshHy9jbEhgH4c3t0UVLZAkQtHXzhglq0eRPB2c+ashdbt9bRsm17Umfammf/F5mTF7Gzp6I0m8HavmqM7uWM4lAqnpcozrxD0wm110d1VzvaWNhrKO1elBkE0vVGSAEG0cPoCK/EjqWmsWTpGk829sJ/Vt58Iwo6WxnqxoyjL8XxOd/dSClQp7AjM0WLvfQHzxhYMJVui3+cUbkZrvZrcolamXvxMFldaGqu6BlEJzOI6NUx5WwVa01yuAeeYk5GOYQZeucDAKxcY6RjGOTa3z1Br0lLeVoHr1DBKYIFfpr4ZgkCesRASdni0fuIxvrf/t/zZ3pgue33MAEbz/LzZhWYTEGAmy3e4FWXQhgPQlzdSEdtfzU3UliUxdJeXGUBnLkIbm4dPyafQkgf48KWxvTMZqiLTVF2GhI3j+7/H68OOubRSiga9LjflubKpgPyE+QqNvxdPKj9JOri9+AGDuXTRQ1cLSe7h8PE+VCrZuvsqSm7dQZWs0n/iQKiQ9Wqy3vR/Hc5XRnhc+IGcvHw0C+00mw2iABrd/OURuTodWTvi3CF7zzEWxNk7lGI0Lq+uSbIEM5N4xruxnT9M9+A0yBZMxfPtXtLo5o2LRqcDggSD8w5fP6zieC6GqqgYzSbAjb3vLJ6ZYExaKZkczTLIEwgF4jS5xkUPBcDpxI+OvPx8dDmhnNU4Xfg1RvQFRnJxxz9fVlr/E5AYY7jzAjPoKGpsxyxnGZ1dQH5d+fU0bt3FxkI1reOXpb9Lna/11j4gyW4mxqdQsZBfWkBuWTkGScUz3jsv7VwiqmLEoM8FPPhFrQzBW5hI7u/84lL8g2cWdBhIkjlag0A176C2yjTvmPFxGxQ1UlsSX0sjcp286lvj8myr5h1sTpELOhmqsoGKa+6l7ZodSXM1p7xOuI7BdNfCTpFIfQZd1U4qzHPnl2zbFlppGZWjmYZd90bzWKvmHTQ0JBR2Vp1xzzFJKqV621y+D7V8FzXFEtODy7/KON1+LLndNHRgyW2mqxuOfhxeE3klJnT2ESZkKbqLyFLVOJc+aqE209SDOPmcxzhzvBd/0ba5+U7Qwzfb/C80fg3l6rLY2WJznszWi7fsjetPKH++C1tfZ/iceLtMh0zOWdZ2h84w5lGxVO3MOv98WuRH0hvN17u5vPmhOgqhPsSPecRxS9gGl4okhwoG64yFc20K+4l+v1z2sxDCjpaBVbajdMYhm+ezUW/ILn1nGowe/z6OC79F0mWT83/prOoODADn6WG0FQU07Gmm59kuZlwzeO0evPbknlKtSUvDnmZm7V6cpxNjegmc6WYkuJtNTbu5u/Fn/LI35A1T8/dya/tGcjXDjJybJbpK8FQXw8HraWx9O3dWH4gWMpYr7uemVj0E36C7Y7l6vgIMvsS5i++hsuJ2PvZAP4/8/BAXta3c+L77uUKTxBNy7nUGPHspadjNe67cz4/PhnJM67Z9lOvrJXD10rl4jaSkSLLClNMDFFLXthnOnI2u+DK2/yk3NCyQ7qrqet7Z/iiPdITeUuWKD4TGX+lmNMXCmCmnG8JOjrkkuwmcOstA4AY2bb2Tmzcc5PlLof3zqrad93/ly+yuGOGpz32QXwysrvNx7JlX6H9XPTWtb+M2Tx2y0sPJZ3pZ9d0F603/V22+xnF7AcwU1ACDWTaXiOciLu8VGMxlFBlOY0u1A8E+gVepxFRYS3HeQLSwr6ptpqRQA8olXPYs5PAN4fRswmCsp7bFQX/fCAFNAYV1V2KRFs6xIpfspKm5Gj1uLnUdYjjJanXVcBXN2+rReXo5f+J0ND+9qmjQ5moBhdmZAIl6rZoqKC3uYnjSH+5vI9aCXFCn8E5n0d+VJovxXG4kWSIQCAJ6jEUWVOd0NIAh5V9JsXkZ7iVTE7iVKiwlDRT0DjMVLtysUkxZ+y1sNDkZefW32Hzha3mm8SsyusJitH4X3iDAFP5AI+YSkP1TeILMLZtYaf1Pgjp5koGxjTSWVlLdWMGZc8NJVyano/9MTYbkL6qnxDAQLeStyuWUVldgznPhOh9z/Er3d6nzteT+Zt7+UgiMDOOpK8RYWEdxsABJnWJqxMWiz0dDPQVmwDvBtI/LOkWYQJAtbpsNXxXz0j3FIo0c5px+L5vCObdVTw+dXTZaEn9LD40w3bwNC71cGCLOtjw9T3KOuTYgku+5M/s6QzF4ep7kuHcX22OvozoZO/ZY0vzfiUyc/ilsuZeamLQWjs6DjOl3M7dZcRKfFyIZ8iTnMabq7qV9txS9XrLc1gPuxrhUE6lTgGRPev1In7R1IAPS0Y1IsGJTdSmOzkNEdDWSuowER1K2ehCL5DzGmS4T21vaaLvGwrkX++Z9/2ab/6TjN3GSk6el1N8vYXwzuR+Mdxyl8rr7aI/m9R9LWKkdb5fpkck5y9dupPhyfsIun1Ax34a4Y9WYlDqRIsY1qb5Pcf4A9egI72BK9u4Tvodb61oYPt1F90FovPU+2mMc976Bg5xMqAmzmLyxjI/bqK4KFQz2yJKwn1WynwjCji4/OzrRsfA4ZPN8VsNpGf3jk4se6/F4MJuXf5ZXklUPYKCC/dlOiva0sOmuVkZODDHRPT6vJoYkSxQ3llDeXsms3YP92c7F09k4H+OJ395Bw94W7vnSz9jefYGpWQMb65spNYL95cf4dTdzSjnxYx4/eDufflsr+766n2vO9+Mkn4rGRorzAow8/SjPTLJqP4TVrR/iE3c2E6njqSkNRa6L2z/FAxWRfOY2jn7767zikJDkE/z8kWfZ8unbqd3zST6/55MAzAwf4KWBGm7ZHN++pBzg8V/dzRX3tfD2L/yITV0XcEhF1DTVkq9x0/n4DzmiZP7Q6HjmBS7u3Ev9H36Tb2zvZMgeJLeggtrqGfr7PJDC4NQhH81/8TB/39uHXTFR3thISR5MvfQznkwsRh2m68gp7LtuY/O+7/DQlgs4ZyPKcYHDX/o2r8kSTD7GL57ew+f+YAcf+sZj7O4ZZHo2j5LaZioLcrC/+isOXUjSfsFW7nvoq8wkkdX20tfY/3yWedxHf8XJ3vuorbuNXTMalJ5XeH50vhxL1Ycls870P+P5WiKSPMrJ1wf4g7pqbv/C96kdmCYUunFy5tG/4eme7F6cJPkSly5OsaGugNLGRuynu5OvHg6eZ3i4juYqK9U77qRoykkALcaCIrSaWTwDZ5mIdfguWY5JRs73UXBVPabKq2mtDH2uuM5zyZWPtSj1uZbSKow6DZBPsbWc4fG++Qe5RnAGWjAVbKLl2lKcLg+KmoMmrwBTfh6qb5CJZKYy7cWw+Q5anJP40WIwF5KnlZi5eC4U7Mmwv6q5hZrK4qirRtKHVorrSnZQY4wEdD3YO0/izOA+l814rgTOoQG8GxoxNdzOlSUTuP0qOToTRrOCezoI2S6GCHYz0l+Lqa6M2mvegdvpJDCbg85SjEEnMWM7jz0urU/4RcxUiOwaC29wncTn1VJqlsA9GL/pdYX1PxmSHGS68xSTBddSWLaNiksXGZ6cH3xKS/9nOhkeqqGpuoSqHe+gaMrBjJJDnqUEvRYCY29gc8XIv9L9XfJ8LbG/WbS/JGb6mJrejNFSi3VWRnUMYU8sYp6AqugpbGzAICm4RzvxruP8ygLBcuPpeZKTPcQ5OEJpOyA2eCHJXfQc7or7LFKAMpaTIwltRc8jqRMlWRuxDupkKSViZZaIOWahFaojhzkxL/d0/PETp3/KRIp2ot+FCa2WjGkpiayJ5yQLBnnPH+BE3HtjejLFfh43BjEkm9vF+gGhsTo5Ei9LKjkW04H5Y5C8rWSyLqQb849J1N9jJCMbPUjsS1xbGubp4eU6/wuRfPwW+z59O0v7frDQPSLu/pN8bObJEittBuckI3H8k7WbbI5gvg4nHZeEdjL/vivlfITkjrmHJ/k7E3nmEXbuxqaIEvYT/TSl7Imkc89Mel1hR8vw/erakSSTfHxjdk2k/XxOlDm/JpSWMVUK0RiOvPgsH/74n1NeUUFgJt77OTLUz89/+I0Fz18LVj+AAagzQSaeOoN5SwVVO6qo2FGNc3QKvys0aDqTFnNZATIqrlPDoZ0XaewckuQgr3/nU/yT/QHedWsbNc1tVDGD297DsWf28+OHf4srzpj9nP7Wp/jGxAPcvXsbNZvaycWP69IbvHzwEX70s98vmrZgWanYws6r28hJ2Mpmrt3JztrQ/1W1H9uj8Ep404H35f/DX48d5849V1NuBtdoB88//jibHrwz6SUu/OQzfNX1ae67Yyd1LW1U4WN6tIODT36PR586m9ZNMhX+E1/na//s4v1/uIuGjZtprfQzPdrF89/+V3qu/iabUp3oPMS/P13HB991LS0lBmTfGOef/yWPfuspZlLI43/l6/zL9yU+cNcOarddS54mEnG20AW8RkgfOv+/T/HViQd4z57t1G1qo0bx4pzo5uVnfsF//uQZ7Mly2Blr2HpNzbzPAS4MGyGt23VqJHmEw692cXfjFRj1s5w/+uukcmSiD0uTY33pf6bzErOBRQAAIABJREFUlQm9P/wyPzR9krt21LNpm44cSUJVp3A9DSzlhS0F/v6TXLTeTFnJNho2zdLX1cdMwgtMqAj2Ibp8bZRXlGIoKsXILEHfJSZ6zzIwdDH7FYyTxzh77CIlG8sw5ELQc4mJ4T5MmxsWPM01NoSnoJo8XNgvXUx6jCRPMHryBYL1V1BSXIBlQxEys8wGfPjGzzPW/VryQIEyTN8bDmoaarDoc5GDHpwj3Qyc78+uv4ZSiko3IifYS25+OcX5of+r6hS+PnBmWpcjw/FcCVRHB92vBaisrcJkLKHArBB0TWA7exz3htuzXjEjyQqevoOc82+jsqIMY0EpRiVI0G9nYqiTkf7huPuDJDvweWfRmLTMeKbCPyrc+HxBNPlaZi45El6mV0H/k/VLGWCguwpzawUbmtqZfPUongTbTE//Fdzdh+jybaG8ogxjYSmG2QCBmQkm+t9gZHAkmkZxNfq71PnKpL+Ztr+0fngZt01Qnr8BjUbBeenCgu2qGCnYdBM1JVpU93kGB6ZZ9d2MAoHg8iOaLqKTy/qe8WbphyAzxPwL1gGhFEiNtCxQI2BdIuxHsE5QlQ3k6Ulr18RilNTVw2B6aRVfO/oc33RM0ry5nRxNfGjAfilcj3p2hqL6m8g1bCTXtJGqq/YCRD9DWd2Cp9Jtt+9VZyYyzBu0HALk5pBXXYi2zEKOIVT0dtbjZ2Z0Gt/AJOpCNS8EKXn7/z7Me1vHePbBe3mkS9yQBYLVRtXWUrNtO8WGHGa940wNvsbA0OKR8NWgeMsfUV3kYvTVJ7noWR15VEM7rVc3oh3voOP1hVcsXG6sxXgKBG9lVEXGUHkNFVVlmPUaFM8g/R0vMTUj7E8gEMRjaNhLLUc5G07toCrNNN66DYu3d16xznQp3nIv1frMz8+EleiHIDPE/AsE8UQLHXs7kqaZikXYj0AQj1q+i/Zmw7xUa0tlJWxL33gfedV3JP9SCeA++x1mbMl3TS4n9oCZjRvL12YHRixqYBZvzzjenvG1FuVNg6q0U1YigTLBpYG1lkYgeGsizVyg/5gTd+NWyjaWUGwtCQUw1hhVKSQvTwLVS2A1i7RHeJPlpl/z8RQI3pLIGK1VmHU+XCOvM9DdiT+LFJgCgeDNi6fnSca2zOVjh5ic2JeR0+rN0g9BZoj5F6xnFks5tNYI+xGsRwwNe9lUHarU7ehcej2nRBZKUZYp3u79eLv3L1t72bLmOzAE2aEq5dz0x5+krSTyiQZjWQvNVRZ8p77FQ194jClxUxYI1hRVzsdilnFO2lf1JUlV9BQ0tFGQF/lEQmMowWzWMTt+nDOnu+PS3KyoLJEdGPYOOhZZmbNeWU/jKRC8lVEVmbzCcnCO4Ffm1zERCAQCgUAgEAgEAsHlz7rZgSHIlnxqtl3HzopIDYgg/ukJ+l/6L/Z/VwQvBIL1gKQ4cDpYgxUeGvQllRSbIveHWWZnPLhHuxg6L5ztS0eMp0CwHpBkBb9jaK3FEAgEAoFAIBAIBALBKiB2YAgEAoFAIBAIBAKBQCAQCAQCgUAgWDdEdmC8ybKRCwQCgUAgEAgEAoFAIBAIBAKBQCB4MyACGAKBQCAQCAQCgUAgEAgEAoFAIBAI1h0igCEQCAQCgUAgEAgEAoFAIBAIBAKBYN0hAhgCgUAgEAgEAoFAIBAIBAKBQCAQCNYdIoAhEAgEAoFAIBAIBAKBQCAQCAQCgWDdIQIYAoFAIBAIBAKBQCAQCAQCgUAgEAjWHSKAIRAIBAKBQCAQCAQCgUAgEAgEAoFg3SECGAKBQCAQCAQCgUAgEAgEAoFAIBAI1h2atRZAys0hr7oQbZmFHIMOgFmPn5nRaXwDk6iB2TWWUCAQCDJHlc1Yypoo1tm50N0HsrTWIgkEAsFljapoKGi8DqO/j/HRQWYUcV8VCAQCgUAgEAgEgjcraxfAkMC8pQLT1goUJJyjU7icPgB0Ji2WGxoouEHFdWoY5+lhUNdM0jVBLb+Hj3/mj6ink19//Qu8cFH8OH8rI/Th8kRTuIWaliby9RpUewcX1lqgtwiqto6a1hYMTDB65lUcM8JeBII3G7nmjWysKcdaNcbFziNcnPSutUgCgUAgEAgEAoFAcFlQ17yF5s3t5GjmQgOzwSDHXnqGCdvwGkqWnDUJYEhaDUV7WsgpMjB4bJCJ7nFUJT5CIckSxY0llLdXoq0owP5sJ+pMcC3EXRMsN9/JDY0VQAW7b/k3Xth/aa1FEqwhQh8uPzQl19K8uRqd4mSi5zVGhwbF7otVIqe0gZKCfCAfa+lpHIP+tRZJIBAsI5Ic5NJrT+OvvIqq6krKrtqN9uxzDIy711o0gUAgEAgEAoFAIFjXXLXzFj788T9ncGiIwMxM9HOjychNu9/Gt7/+BYYHzq+hhPNZ/QCGBEV7WlAMuZz/9RlmXDNJD1MVlfGuS0yPOGjY00zRnhYmnjqz6E4MVSmk9T2f5O7dbdSU5qNjBrd9kM4X9/PjR37LBGvjQFSVSnZ+6M94902bKM03os0JyaF2PcIff+47+BMcm9OnjtN9Rx3V9PJahw3WSO6VRL3yr/inL95B0Wv/wf/4wo8XPNb6ge/zj/c0xJ+vTvHSV/6A/3h1ecZGVT7AXz/+ETZJqdu78J/v5389MrAs11sKbwV9WC1U5Sru//f/y56NZ/jxu/4nv1mBoIKqaaZ2UzU6ZYqRUwcZcwYRc7Z6zNpHcPrzMTKJY8LHWo+9quix1O2kvLwYvTYXOaxz6uRpTp44KwJbK4CadxWbrr0Cw9RrYozfpEiKE+fAS5yd3ELL1k0Ub9qJ65VD2INirgUCwVuH4i33Uq3vpfPlo3hW4p3WvIPW7fXkSRK+gYOc7RGLqIq33Es1HZw83bXWoqz4/AsElyvCNgSXE6qygcrrdmNl9XT2mhv2cOTIEX7xi5/HfS7LMu977/v4xOe+yLf/6W8Z7OtccVnSZdUDGOYtFeQU6Tn/67PR4IW+yIC+SB93nNfuxWv3MOOaoefZLjbdtRnzlgqcp1JvY1EVDVf+8b/wmb3V5M7Y6e/qwDFrZGNDMzve/dfUb8zj8199Atca3MAsd32Wj76zjdypPs4ev4g/EogZ7iNZlQ/pjX/nix/898hfqyTl+sXTf5KjR8aif+fX76SpZGWupbr7Of36MMlCa7b+tVndKfTh8kFVZCxNV2DWzOLqeTkcvBCsJpL7LOdfOhv5a01lAcgpu5q6ulJk/xSOSy6iGw7dU2sql0DwpsB5mr4BK5vrrZQ3VDDxxjCS+KEqECwZQ8NeNlWbUT09C/54Lt5yLzXFEo7Ox+gZEba2lqjKBvL0ix+XefvNNG6vh8FDnBCBi3XHSs//5URsoC2WdO9Thoa9tBi7lxSUijoc9TYGDh5iIsU9M3JvjTtXdWI7foBhp7TgcbF9MDTspaXKk/Jai52f7NiFgpJq+S62t5TO/Z3wbFjK9aJtRMbMu7IBQGEb8xE2cnnYSLYsJXBnMBi4OGab97miKPzo0UfZt28fn/38PyY91+f30XHiKD//wT8TCCTflLASrGoAQ87NwbS1gsHjg3E7L8ylZqytpWjycgEI+gLYzozhtXsAmHHNMHJymKrtVbjPXkRJVdjbvI933l5Nrq+TX/zNAzzRG0oboha9k09/7c9pv3YfdzU+wWO9K9vPZGza3EAeXo49/CH+9bAS/6X4ob0oruf/hX99fu7vGx96esUCGEydYv+XvsaQmBdBRpRTXKiDwDAX+6eFfQswFhSQQwD7+d/QP56gD0I/BIKs8Q90M1V9NYXFtVgYxrnWAgkElymqx4lfb6UwHzxJDEk176C0yIXPY1p94QTzkORLDB/5KcOwMu8T+RZ0uHDYxO7v9ciKz/9lh4uxY/EOz8X0Ntapq04s7WrGpp2UGiTUNGq1qupYnFPV0LCXlu3vgAQHbfIAcvpzm875qrKBwhITjokxLCU1GM7b5jk6I47g/t89FpVZLd9Fa5M1zpm7VHmNTTtDK8w7OldUZ4VtpELYyHq1keXS2fGOQ+Rdt5vapv6sdkyqqsJjj/2EI0deQUqSoUZvMHD33e/i1ne8l988/oOMr7NUVjWAoasqQAUmzo/HfW57YwzbG2PU3FgHQP/v++adO3F+nMrtVeiqCvD2prCc1kbKcyH4xkGe6PZFJ16yP8GzJ97LVTeXUL4pB3rnAgiqsoGr7n2Au3dvpXqDBS1+nJf6OHvwEX70sxfjdmvMpTz6Dn/zYh0fuudaqot0BBxjXDj2Ux7+7i+5qCRXNp02F5hhxjNLKgNTlTv45I//ip3G+O8XSlukys3c/PEHuOvqFqwG8Ix38+ov/omRm7/D+6+6xLN/fS+PvBE2qKv/lv/74G60x77Bx770eFw7Nz70NB/dMROXkklV2vkf3/kGuzec5tHPHqbmY/fSVluCHi/jvUd5+vv/wO/OxxfNVJVSrnzPH/MHN7dRU1aATvHisA/RdehR9v/8OexJ+j47O0vJLZ/lI390M/VWE7LvEn0nfsmPv/UofVkW31WVfJre9QDv2bOd2tJ8dPiZGu3i9DPf58e/OjkvddeS2l6CPqjK1Xz4e1/jloJOfvrxj3LAnnCTLPkIf/fvH6Bu4hn+/qP/my5ZWrI+ZDZfK6P/0TRNypP8vyO13POORjTDB/l/X/wFxZ/4O+7ZWoS//zA/+sqXOBozFkuZr6XJk2wsr+R9v3yB96UxtkvCbMWgBXX80qJONFXRYaxqo7zCikGvQ1ZnCfommR46y8DQxbiHl6oUUnnt7Vj1Y/QfHcDQfAWFFgM5BJlxDDNy/jhTHiWhfTMFTe2UlRaTp4FZn52JvqP4yu6kpsjD2KsHGPFkYQOYKajbRqm1iLw8LTmSyqzfi396lLG+00x55nafqIZ2Wq9uRGvv4PUhAzUNNRj1uchBD+6JHgbOn8OvZN5fVamk9qbrKdbG98fV8wRdA/OL+6rGHbTurEdrP8HZ0QJq6iox6HNQ/G48trP09/YTnPcyk9l4yjk5wCyzgQXGMqP51WGsuoqyjWUYjTpkJUhgZhrn8BlGBi8SjLxMKflUXPt2StVu+sbyqawtQnL203eqE+2mG6ks0aM4B+h/7SjOYOwcaMgr30ZlRbh9Zgm4J5gaeo3hUXtUP9XCa9mytQpP1y/oGVFQaaTxlnYs6hj9zx/GjoS64Qa2tpYwdepxBialGPlXTv9Toa3YxaYmKzhe59zxM8xk+BxQFR2Gyi2Ul22cG3//NM6RNxgZHImOf/x8raS9pzdfmbKU9pdiX9HVWbpxBl76HRMJKaBUzRU033AVJl8v514+ijdZP5QBnNM7KCwqwGwGpyiFIRBkht6D327FWtfCcJJVlkarFZ3dw3SRCGC8JTCb0K21DAJBOphN6PDgcwByeqcYGvbSUmKj8+B+9Nvuo3oJl1PNO6itAseEE0vR0sV1n+9mumob+VYrw85V3t1U2RpaEX/WhW57PWWVR+kZmftaVZopqzLhHzwat4pdGjnM2STNpUuk3emuAyKl01ogbCR91shGlgNJvsTQoA1rcyvF51PvekkHVVXp7U29+r+qspLGls38JuMrLJ3VDWCUWZgenZ5XsDsdVEVlenQaXZkldQAjT4sG8Hmm5v1QP/Nv+/jIvyW2qWfLJ77Jp2+vQOMfp6+zA6dqoaJxM9e974vUbPgin//Wc/OcEJhu4Y8/uBFNXzfnbGYqmxppffuf8Rd6Dw/+0zPMyBKqUs3NH/sTthWHTsmvzQVyaHznV3ng1pi2hp/l2z98JnyNi5w/9jLkhb7SlF5JW61lgTGRaf34F/nQnjJk/wT9nf1M55Sw48MPcWl0sRFdChau/9OPUiD10HPWhrm8idpNt3L/5wtR/vxTHLoUcUKYaf/kN/nTW8uQvTb6z53EoYRSeF373r+jqeqr/NXXn5oXNFAMN/CJj9ai7e+l026ivLGR5ps/xqc1dj73D09l5Vza9OF/4XN/UIvGc5G+zg5cmCir38quD/8DdcUP8bc/OIqS7QM0DX2Q5Ff5/cmL3HJ7E9tvr+HA/ngnecmea6iRwXbyN3RF5VmaPsyR7nytnP5HydvKzVvGGRiY5orGO9j3UDlexugdNXFF4x28//5XOPrPh8LyZDhfacljo+/0SbR5AFo2trRi1TsY7OhlMqapseH5ju4lo89DAwQDzgUdhqoiY2zaTXOVBSnoxjU5RlDRYijYQHHzjejzfk9n98UkbegobtmGTprENeFGYyzGVFhH3TYDfa8eZioYmV8VY9ON1FWZkYJe3FMOApKeopbr8S+Dcy8k/03UVZnAP4VzfJygIqPJK8C0oZE6i57el3+PIzFoqSmn9op8clyTTPu1GMyFmMu30SR7ef1Mf8b9BTeuS0OQE/pL0lspyk/jZ3dONbUtZqRpO9M+HQZLIZbqa2jRBDlzbnjOSb+E8VQVIwWNWykIXz7XLAMSlpobqIkNYrj76L8wktDndOdXg7npVhqrzBBw4Z4aI6BoyLMUU9x0M2bjy5w5l1A4PsfKhmIPbqeP/Px6qrcYCeLG7dJizq+npn6Y17tGo/NrqLuV5roCpIALt91GQNZgMJdivaIEY95zdPWNh9p3TuNHQpdXCEyA0YJODTCLkTwD4IFcvYEc3HgcsfqzcvqfCtVwJbUNVnICNgbOZBO8kDE27qap2oKseHFP2ZiJjv+NWCxHOXumL3q/Wnl7X8J8ZdjfjNpPw74k+RL2cSfWqmKKykxMDMYbVG5ZBUYJ/ON9yYMXgCQr+P0BII9cPSACGAJBxkz19aLb3kiFuTN+1aPSTFkV2I6PkFdkjTsnEogsNYTvSTErKVOlM0j8PDG9Reyqxdi0I53uxmhKhtjrpJs/OlkajcR0DhHZBsat1CSk1UpMGeEbOImjZNuCKVFUpZnGW7eRH75m7PWi43AWamP7P3Eyrr1UMum33RcdRzfWRccpKtMi/YikCgMo3bEPazidh6/uvqRyRK6dTAei8pMgV/hcmt6xsKwL6EYy/Ur5WUzdimz0IJHIWPkGDnLmPPP08HKc/8VI7FPiKuOs7Syd+0GWueI9PU9ysgeQJZaSbUhVNlC5OZRabZSdGTln15KSEivYOxh3TJLnrcda0gIj8+dcZywEltFxXFmOxdtL5xBRB7qwDeb1e6E+LWYby42wkdW1kXnvRQu8W8UeP+95PHQGW9VuCiphYmShKy4NNehDRUGScpBydMzOzpKTk7N8F0iD1U0hZdQxM515fqwZ5wx5lmVcB1Ly33j37go0njM89tAneWogtFpYrrifv/zqh9l06/t42/7neHIy/jSp0kDPVz/AwydCnhhNw8f5m//z36i74d3s/tYz/GYGIJ/atuvYWRZ/IyltvZ7SmL/Vrh5ygCAgyR08/c8dPB3+zvqB7y/ssM77I+7aXYYc6OXX/+tP+Fl4db3p6r/h85+tz3RU5iNVIJ/5K/7ie6+GgjNyNW//wrd5/5Z27nhXG4e+2xE6zvxO9lxdQGDsJR75Xw/yYsRRnn8nn/rGg2y/4Q952w+e4lcJ46mpyaf3ax/gkfB4Rsf/2j9ib+lTPJ7pPaHwPt5zRy25U0f4j89+jpfCK/3Vonfy6X/8c9r3/ndu+6+jPJO4TL5gK/c99NX5NTDigk0xw5OWPkDnwWPYbr+Lup3voPgn35rbaqaUc/P2BmRGOXXwVSI7dJasD1GB0pyvFdX/MIaLPPfxz/DcTDsf/I9/5lbzEH/78a/Qq/1DPvvwp9hSexVW5SA2Wcp4vtKRR5JP8Ot/OMGvidkdoh/ihb/91PIX8c7RIAPB4CKrwbUtVFRYkAI2Bo4/z4QvdLyqbaZx5zYsla0UX7jIRGIzkhnJfpjXw85CVdFTvOXt1G7YyMbqIqZ6wxMmN1JWYUZSJhk58TvGIqu183ewaVvBMnR0A0UbTEjBi/QdeY6p6G4XDZbGG7CaZHRmSNyGIpn0eE89zbAjnOJP20jjjnYspZuw9vRjSzS8NPsryZNMdL1EJLytqb49rQCGZNbiOnWAEUd4t0jeZpp2XImprJniruFoe0sbTw3GkkqKE3ZP5RVXReKRob5PToYCGBn0F00tG0r1KJ4h+k+8iCPiyJYrqb3meorKNlHSPch4rP5oPFx65TkmlSIqrr2d0lwnPUeO45PrqLvxagpNJWiU8M4BTSMVNQXI/mF6j/5+rn1NNXU7r6Ww5kqKBg9jV4CZKfwzoNdbgAkwmdD6JnBK1pAOeECvN8DMGL4goR8tK63/SVDZQEVrC0bZz+QbR5jIZoefpoWKSgty4BKDJ59jPKwPqlxOzc4bKC69Amt/Hxc94eNXur9Lma+M+ptZ++nal2f0Iv6qJowb6tD0vxaze0hPUUkBEk7so+MstEVcCQaBXOTVfY8WCN58OI4yZr+P0oRVj8amRiz2brod0JhwirGpFc7u54Rz7gd39XU78b58lPFxG9XN8WmpQqmoYLprLijQ3mzAdnw/Z2PaaLmOsPMphFTcRq37ICcOXYo6iaq3tTCRZk7uiGPK0fkYZ0dinUn3sVl/KC7dgmRooNp4khOHwm3LUjSfdaKTrcYgoaZYAxORUxdTR6K4YScGZc7hJBkaaNncQ+fB/TEOqm20bSHOYZZMpmROpcXGKZ1+TJz+KePReYmk8JAoTiGHsSG1DkT7GStX2Am36bYG1IlQW8lkXUw3EvVLVZopKAKI/SyUD396sBOQstaD2DE3NOxNqAmz4U0x/wsRGT/fwMFon1TzDiorwTOSvZ2lez+Ixag3IElmam7bR034s5XKM1+yLRw8OW+Dpkzb2IYFGwPnbaua4mju3tuJJEtMjruwVsUHrCW5iyn7NvKL2+bpYDaUlFjBOzLnyBe2Ef1+uWxjoSCGsJH0WEsbSWShd6tYG0nUE4lL+LykDLwsFVUJEpweRJ2dc9TIWnNaqcGWmzQ3D71J2dJEuQa8Z34Tdd4CKMMP88IZL2hqaNg6/zRp6GV+fWyu+Grg/Pd5pUeBnFLKmsPHyK/xyJ/cwv3vvpn7330z3znqQVWnePHLN0U/u//dN/Pf//K7macxaqylNBeU84f5Racn+rHzlYc5saw3oiE6fvVqdKWqpAzwm9+cwKmqbKi6MnqU5H6Ur91/Bx//n38VDV4ASI6nON3nB7mE0rr5reeMHOFXMeMZHX95I2UZ3vAA2LqJylyYPHUg6gyHUEqxg6fsoK2n8ar5p0nGGrZecz07E/7tuLKOZH6RdPQBgDee4vQoyLXXcHNlzOeld7G1LgdGjvHCuSz6GyW9+VpJ/Y/im2ZyJiTTtAtwO0Ix6pkJXD5Aq8cQOTbT+VqKPOuJgkL0MsxOXog6MwGkmS7GJ4MgF2BKulrBydTw3EpnSfYyMXyRgKqSZ4r50WTMRyeDOjXAmGuubpA6eYZJ5zLdHyRAlSDGaSnJQZy9z9Fz+gVsya7jGmJs0jd3/Ew3tqkAYESfND6XZn8zxTmEbXJuW4TqOYd9WgXJSJ4x5rgljKckOxh59aecOLSfE4f20zMWQFV92E48Fv3sxKH9nOx4I8kLWXr9lZRu+l76T06/+lLUmRz6fAjHdBAkQyh4EMusjxkFwEMwAAR9BAAUP8FZQJM7d48rKMYgQ2C8N7794AC2cS/IhZjyI59O4vOBrDOjUVTyjAbwXcLpk9AZClAVDTq9FrwOXNH2V1j/EwjtWNmJ1SgzM3qcC2OelMemRVFE/r5o8AJAUkYYGxxk2u5GzY05fqX7u6T5yoBM20/Xvly92D0gmcspio3yaWvJt8jgvsikC4FAsEqMj9vQVbVSHN41H039Md6Z9HhPz+GYH/ah9AXoTSEH0tAZbF4T+da5XRtGqxUdNqaGwis1q6xMdx2Ib+Nsb7QeRwTV08OF87bwMV2MDrqgqJxiRY3mjz555FhSJ46qNNPYbMU3cDDOYSM5j3Fh0BXXXwivdOzojDu/rMo07/zxjkOMeRb4FZ9vQQf4vXOFMid64mVU1TEGYh0SYZkifUslUyoWGqeM+xHbfhI5FtSBZHI5jzFmj28r5BQC9BYMipqebgyNMI2JvMg7T2U5Flz4Y3Uuv4Z8vQufM3s9iBuH8l3RIq+Rtubp4Zts/iNzok6cjHe2Oo8xPCItg50tPufJbN3T82TcO/a5ASf5LftoKF9eD5uhYS/VRba4+UoHSSql5rZ9tO++j/bd91Ewvp+Thw/PS+8iGRrYFHNc265dceO16HUWOT/23gvgttnwE39/hlAA89yAE6m4LdTOluQ/qtOVNxJE9LtjFhoJ24jr03LYxkIIG0nv/LWykWSk9VxNofvj47boszRT1ICHgKOPwGQPmvwWrPe8SOm+1ym+8/FQ8GJ29Yp3R1jVHRiK24/WnPkOCq1Zi+L2L59A+jy0wGSSnGqTThdQiDZJ6FZxTWKPzXUm+3F5/IAWnWH+8StGkQUD4Jkei0urI8kDTDpSFDrPBNWJc4z4cFd/J+d6yikem0ZW1Lk0GXIlW95xN1trSykwaqNrJfOrcoAccpJonOKaYirhxhQa/yIM2SwUN+pDeVsb3s0DD94Z95WuXAfoMCS50avDT/DXf5KiiHeSz9LVB0l+nedPDLLnHbW072nivx7uBmDD7VdTI8PwiafpX47ocrrztd70P8P5Wjf2uFTCOzVm/POXcwT8fkCffCWx6ic4Q/z8uu1MO0xovT5URUWSJdDp0ACzAXec3kqyl8Biu0PS4hL2cRclFaXUXvc2puwTeF3TeKZHcTpcKVdKqEH/vF1MQb8fMKJJ9kRKt78Zos764uSRZIVgyJuPFCvPio9nRKD0+6sqeozlDViMJrRaOXq/zTWFUlZldTfJzQ2JYGmi5or4yLNs0AA55GhDf0uyF583AIVG9ECO3kDAa8cj+dloKAK06HQSgUnH3NittP5H0FdS21qIKhkxW03g7qWvczD7lTwLyO8feSWcJ1VK6/hl6e8S5ivEzoJiAAAgAElEQVQjMmw/XfuSZAeTl6Ypq8mnoMyErT+0vjKSPspj682qZpVAIFgi4fQDpU1WJnouxaf+SEFsyiEI/aiG0I/uyXEX1nAhTDdWCktickeba8jXQ17LPtpb5rfrNwPh9IN4pzNPkxHnLItvw+31AAby8pnbOep14U3z/AVx9OPw1lPaso+2qhSpPhKvla5MqVhonDLtxyLyQmodWFCuhLa8bhdR70z+4rohOUMrYavDK02NegPYu7ngbqQlrHNYrei8NiYdZK8HEfSNtDaHnJ0LFkq9TOd/fuqSUAqxIUJzEtnNspT207OzNO4HixUZJOSs7TfeS3XVTgxDy5NeRy3fRUsV2I4vPa/8vLR6zbspHprfTtJ0QEu41kLnRxz02LvnrhvWT2vV/Hz5np4nOdETses22nY1xuzGykzeOL0QtrG0PqVhG6ojuWzDSRYVChtZnzaSyOLP1QV0PxzsyGjZnqoQcI2gr38PedV3kGMsI+AZY/SFr1Bz25fRFDZz5PkDjA51Z9J6xqxqAMM/Ok3+jQ1IsrTkOhiSLGEps+D4fc/yCSQt5uCRMn6vWxUWUPyV3s0jDf+If/3cj+LkUA27+eBXHuTWyryklepXfYtReH6NVe3srJr/taoGV31+Lzz7KsN7q6hqv4vyH3yDYaq4qb0BWR2g43evsVICJZuvdaf/63C+MiLsy17VoZvpov9kaHtgNs78JV1TVnCff46eYDvlpRsoKCukKGz3it+OvedV+kenVkSetejvWpKsv6pcRsX26yg1a1LcbxeoGL4ENJYyipPsjFHV+CC52+2GUiM62YImLwff1AQe2UOO2UwuOeTpwO9OUb8qSxbSBymviKKNc1sbAp4JfAqX9f7Thfqb7nxlykq27xsdxlNzBcaSBrR9p/BjoGhDIRIOpsamSPeuqi5jPFEgeKsSH3SAwior/vEzoR/gCTYWScNhwUb/78L1KMp30R6zGNFts+GvChXC7HaGVsM7bPFOnNSpLC7v53xktfhQbMqkFcxZvhakowPZsJhueN0uKLFgUDZQWGJierATt9OCvyq8UtVowj++MuOtCwdJUrV9uc5/RO7h+E8hcXfvCrEc94O4YFiWRFa/S5JE6Y59cSnBIZSWpzqhNkMqxjs6KFhi+rtlobI8VJehuI323W0JX5amzJc/cfqnjEfqjmzfje9gdoWBIwjbyIyFbCOlbCkQNpLAOrKRlX6uLnr9oB+UWSxtf4lz4Fly1dBKu6lLPdQA+rp3452+wKlTT6yOQGFWN4AxOIUEFDeVMN45t1LBekUp1tZSNHmhfAvmjWZsZ8awvTEXXSpuKkEKt7FsqOoijn515SMB2TATZBbQ5MTvalEVDRpNZt6ZbLpb/96PsLtSx9Tph/nud3/O2cGp6M6MGx96mo/uyKLxTAjP78iBT/Dg915LcdAqPxz7DtAxcA8VNTu5uRF+4r6LtloZtf8Ih/tYXafaetP/9ThfmTAbQAFydMtYrycT1FlUQJLib/OqIme7Nj+KhBtn3wuc61GR8oowWIoxFVayodxKccu1+B1PM+ZbvJ3LglUYz6WQV7OVUnMOgfHX6O06j9sXiDqz8zffQ711kQbSxHPhac71OVJ8O9fvgNfNLEXo8gvJ1fvwuQLMyi6CNWb0Jhmd7Gfa5WO1bVidPM3JE2dR5Y1UXn0z1g1bqLKO0D++jLs51xHpzte6bN/Ty9T0JgyWcopMpxidqaPALKFOjzDhYdHnY45WC8yiLOMGVIHgrYz7fDfTVdso22bCol8gD3U4ZU/sikuj3kDsmr9QuqB6qktaMOqt6OzdcysUHdP4AZ3eyrIWjE1kgetE5PU5SH2vSXl+IXl6WGz5r+Q8xtnDx8I50Bsoqzwa3q1H0lWSoXzxvaFdA8v5+yDLfiQlDR1YXlnjCQXIrBRWQr7extgQQD8O724KKlugyIWjLxwwy1YPIni7OXPWQuv2elq2TS/qlHvTzP9ic7JidrZ09EYTeLuXxRme3DEcSpfTUuWZVwh64ba66O4qZ3tLGw3lnStSgyCRaHqjJAGCaFH0BVbiR9LXWLN0niabV2Ebq28bEYSNzLFebCTKcjxX092ZlARVCjsCc7TYe1/AvLEFQ8mW6Pc5hZvRWq8mt6iVqRc/k+FVls6qrkFUArO4Tg1T3laB1jSXa8A55mSkY5iBVy4w8MoFRjqGcY7N7Q3UmrSUt1XgOjWMEljgl6lvhiCQZyyEhB0erZ94jO/t/y1/tjemy14fM4DRPD9vdqHZBASYyfK9a0UZtOEA9OWNVMT2V3MTtWVJjNzlZQbQmYvQxubXU/IptOQBPnxpbMlMhqrINFWXIWHj+P7v8fqwYy6tlKJBr8tNea5sKiA/Yb5C4+/Fk8pPkg5uL37AYC5d9NDVQpJ7OHy8D5VKtu6+ipJbd1Alq/SfOBAqZL2arDf9X4fzlREeF34gJy8fzUI7zWaDKIBGN3/ZQ65OR9aOOHfI3nOMBXH2DqUYjcura5IswcwknvFubOcP0z04DbIFU/F8u5c0unnjotHpgCDB4LzD1w+rOJ6LoSoqRrMJcGPvO4tnJhiTVkomR7MM8gRCgThNrnHRQwFwOvGjIy8/H11OKM80Thd+jRF9gZFc3PHPl5XW/wQkxhjuvMAMOooa2zHLWUZnF5BfV349jVt3sbFQTev4ZenvUudrvbUPSLKbifEpVCzklxaQW1aOQVLxjPfOSzuXiKoYMehzAQ9+UStDIFgWIvnB84tL8Q+eWdDxIEnmaA0C1byD2irTvGPGx21Q1EhtSXwtjch18qpvjcvFrZp3sDlFTulkqMoGKq65l7ZrdiTN+ZzyOuE6BtNdCztXIvUZdFU7qTDPnV+ybVtoxWZUjmYadt0bzYetmnfQ0JBQ2Fl1xj0TJamU6m1zOUHU8l3UFEtMDy7/SuR0+7HkdtPQgSW3ma5uOPpxeE3klZjQ2UeYkKXoLiJLVeNc+qiF2kxTD+Lkcx7jzPFe/EXb5uY7QQ/fbPO/0Pg1lKvLYmeLzXkyWy/esjeuP6E8/C5sfZ3hc+LtMh1W9JyhM4x5VCxVO7PKUZ82+ZH0RvN1ai63fqiOQqgP8eMZce4Stq+lIsmhosI6Y+Fcm8I2ot8vl20shLCRRVhlG0lnHLJ5rhr1huzSbi7C6PHv47jwWyRdNjn/l86q7sAAcJ4eRltRQMOeZnqe7WLGNYPX7sFrT+4p1Zq0NOxpZtbuxXk6MZ6XwJluRoK72dS0m7sbf8Yve0PeMDV/L7e2byRXM8zIuVmiqwRPdTEcvJ7G1rdzZ/WBaCFjueJ+bmrVQ/ANujuWq+crwOBLnLv4HiorbudjD/TzyM8PcVHbyo3vu58rNEk8IedeZ8Czl5KG3bznyv38+Gwox7Ru20e5vl4CVy+di9c+SookK0w5PUAhdW2b4czZ6CotY/ufckPDAumuqq7nne2P8khH6M1SrvhAaPyVbkZTLGaZcroh7OSYS4ybwKmzDARuYNPWO7l5w0GevxTa865q23n/V77M7ooRnvrcB/nFwOo6H8eeeYX+d9VT0/o2bvPUISs9nHyml1XfXbDe9H/V5msctxfATEENMJhlc4l4LuLyXoHBXEaR4TS2VDsQ7BN4lUpMhbUU5w1EC/uq2mZKCjWgXMJlz0IO3xBOzyYMxnpqWxz0940Q0BRQWHclFmnhHCtyyU6amqvR4+ZS1yGGk6xWVw1X0bytHp2nl/MnTkfz06uKBm2uFlCYnQmQqNeqqYLS4i6GJ/3h/jZiLcgFdQrvdBb9XWmyGM/lRpIlAoEgoMdYZEF1TkcDGFL+lRSbl+FeMjWBW6nCUtJAQe8wU+HCzSrFlLXfwkaTk5FXf4vNF76WZxq/IqMrLEbrd+ENAkzhDzRiLgHZP4UnyNyyiZXW/ySokycZGNtIY2kl1Y0VnDk3nHQ1cTr6z9RkSP6iekoMA9FC3qpcTml1BeY8F67zMcevdH+XOl9L7m/m7S+FwMgwnrpCjIV1FAcLkNQppkZcLPp8NNRTYAa8E0z7uKxThAkE6wm3zYavinnpnmKRRg5zTr+XTeG83Kqnh84uGy2Jv8mHRphu3oaFXi4MEWennp4nOcdcGxDJG92Zfc2iGDw9T3Lcu4vtsddRnYwdeyxpjvBEJk7/FLbcS01MegxH50HG9LuZ2/g4ic8LkWx7kvMYU3X30r5bil4vWY7sAXdjXMqK1GlCsie9fqRP2jqQAenoRiRYsam6FEfnISK6GkldRoJDKls9iEVyHuNMl4ntLW20XWPh3It9875/s81/0vGbOMnJ01Lq75cwvpncD8Y7jlJ53X20R3P/jyWs+I63y/RYuXMixZfzE3bwhAr+NsQdq8ak3YkUOq5J9X2K8weoR0d4d1Kyd6Tw/dla18Lw6S66D0LjrffRHuO49w0c5GRCvZfF5I1lfNxGdVWoqLBHloRtrJJtRBA2sr5s5ETHwuOQzXNVDadT9I9PLnicx+PBbF7a7K01qx7AQAX7s50U7Wlh012tjJwYYqJ7fF5NDEmWKG4soby9klm7B/uznYuns3E+xhO/vYOGvS3c86Wfsb37AlOzBjbWN1NqBPvLj/HrbuYUcuLHPH7wdj79tlb2fXU/15zvx0k+FY2NFOcFGHn6UZ6ZZNV+CKtbP8Qn7mwmUsdTUxqKSBe3f4oHKiL5zG0c/fbXecUhIckn+Pkjz7Ll07dTu+eTfH7PJwGYGT7ASwM13LI5vn1JOcDjv7qbK+5r4e1f+BGbui7gkIqoaaolX+Om8/EfckTJ/GHQ8cwLXNy5l/o//Cbf2N7JkD1IbkEFtdUz9Pd5IIWxqUM+mv/iYf6+tw+78v+zd9/hbV73oce/LwgCBECAIAmBe4kUSUmWRFGSRxwP2XJiy85ObN+sm5tVt6njpEluHSet27Q3jZtmNW2SOrk3w7FjJXHrDI/EriTb8dCmJIsSt7gnQILYIPi+9w8MAiRIAuCUfD7P4+exwPd9cc55z3kBnPE72RTX1GDJgolXfsXTszejDms9chr7jTez5e6HeWD7RZzTkcpxkcNf/T5nVRKMP84Tz+7jC2/bzUe/9Th7O3qZnM7CUllLqTkD+9Hfcehiguubd3DXAw8RSJDWkVe+zoEXlxjHffB3nOq8i8qqm7kxoEbueI0XB+emI9X6kLJ1Vv/Tvl8pklSDnHq9h7dVlXPLgz+msmeS0NCNk3OPfplnO5b2hUhSjTI6NMGGKjMFNTXYz7Qnnj0cbKO/v4raMivlu28jb8LJFBoM5jw06mk8Pc3YYjt8U07HOANtXZi3bSS79Eq2loZel11tjLpysObNf66poAyDVg3kkG8tpn+sa+5BrgGcU3Vkm+upu7oAp8uDrGSgzjKTnZOF4uvFlqipTHrRb7mVOuc4fjTojblkaSQCQxdCgz1p5lcx1lFRmh/tXpF0oZniWstuKgyRAV0P9pZTONN4zi2lPFeCs68H74Yasqtv4QqLDbdfIUObjcEo454MwlInQwTbGeiuJLuqiMqrbsftdDI1nYHWlI9eKxEYacMeF9Yn/CUsOxeVazi8uHUcn1dDgVECd2/8gtcVrv+JSKogky2nGTdfTW5RAyWjQ/SPzx18Sqr+B1ro76tgU7mFst23kzfhICBnkGWyoNPA1PB5Rlwx6V/p/KZ8v1LM7xKun5JAFxOTWzCYKrFOq1Acfdhnb2I+iyLryK2pRi/JuAdb8K7juMmCsJ55Op7mVAdxnSCh0B4QO3ghqVrpONwa91pkI8tYpwZmXSt6Hgk7WhJdI7aDOlFoitg0S8Qcs9As1oHDnJwTwzr+eNuZX2Kb5zrRv4WFZl3GXClBWmefk2gwyNv2FCfjvoMml6bY1+PKIEaie7tYPiBUVqcG4tMyXzoWqwNzyyDxtRKldaG6MfeY2fX3OIkspR7MzkvctdTMqYeX6v1fSOLyW+zvybezpJ8HCz0j4p4/ictmTlpiU7vIOZF0xpZtonMSlT/MrZ8J8zzrOun/vXXesg6lO+b5nODf6aRnjnAHcGyIKNE2oq/Om/bZknkeJnxf0UbWVRuRVCQuu5hVE0l/rs5Oc05FKJzifKE/w468/Dwfu+dzFJeUMBWI7/0c6Ovm1z/91oL5WwurP4ABKIEgtmfOYdxeQtnuMkp2l+McnMDvChWaNluDsciMCgXX6f7QyoskVg1JqiCvP3wf37Tfyztv2klF7U7KCOC2d3D8uQM89rM/4oprpH7OfO8+vmW7l3fsbaCivpFM/LhGz/PqwUf4+a/+tGjYgmVVsp09V+4kY9YSNWPlHvZUhv5fUboZeRReCy868L76j3xp+AS37buSYiO4Bpt48cknqb//toRvcfEXn+Uh12e469Y9VNXtpAwfk4NNHHz6Rzz6THNSD7/5+E9+g69/28UH33Mj1YVb2FrqZ3KwlRe//106rvwO9fOd6DzED56t4iPvvJo6ix6Vb5i2F3/Do997hsA86fG/9g3+9ccSH7pjN5UNV5Oljowkm2gFzhKqDy3/9z4est3Le/ftoqp+JxWyF6etnVefe4L//MVz2BPFrzNUsOOqijmvA1zsN8CcR3dqJNUAh4+28o6azRh007Qd+33CdKRTH1JLx/qq/+ner3R0/vSf+Gn2p7lj90bqG7RkSBKKMoHrWSCVL2Lz8HefYsh6PUWWBqrrp+lq7SIw64tJaBPsQ7T6dlJcUoA+rwAD0wR9o9g6m+npG1r6rMPx4zQfH8JSWIQ+E4KeUWz9XWRvqV7wNNdwHx5zOVm4sI8OJTxGUtkYPPUSwY2bseSbMW3IQ8U001M+fGNtDLefTTxQIPfTdd5BRXUFJl0mqqAH50A7PW3dS8uvvoC8gkJUs9pLZk4x+Tmh/1eUCXxd4Ex3X440y3MlKI4m2s9OUVpZRrbBgtkoE3TZGGk+gXvDLSnOhJlLUsl4ug5ywd9AaUkRBnMBBjlI0G/H1tfCQHd/3PNBUjnweadRZ2sIeCbCPxbc+HxB1DkaAqOOWV+SV6H+J8qX3ENPexnGrSVs2NTI+NFjeGa1zeTqv4y7/RCtvu0UlxRhyC1APz3FVMCGrfs8A70D0TCKq5HfVO9XOvlN9/qp5cPL2IiN4pwNqNUyztGLC15XwYC5/joqLBoUdxu9PZOs+mpGQRDe2KJhJ1q4pJ8/l0s+hPSI+y+ssFAIpBrqFthHYF0SbUNYBYq8gSwdi66aSIalaiP0Lh4O8eyxF/iOY5zaLY1kqOOHBuyj4f2opwPkbbyOTH0hmdmFlG3bDxB9DXl1NzyVbr5lvxKwpRk3aDkSkJlBVnkumiITGfrQprfTHj+BwUl8PeMoC+15Iczrrf9wmPdvHeb5++/kkVbxoBWE1aZoKqlo2EW+PoNp7xgTvWfp6Vt4FHy15G9/H+V5LgaPPs2QZ3XSo+gb2XplDZqxJppeX3i2wqVmLcpTEN7IFFmFvvQqSsqKMOrUyJ5eupteYSIg2p8gCCtHX72fSo7RHA4Roci11NzUgMnbOWfTz2Tlb7+Tcl3656djJfIhpEfcf+GNJLoZsrdp0Y3vRdsQ3kiU4htprNXPCaOWquVuN7qau8gqvzXxH+Up3M0PExhJvNJxOdmnjBQWFq/NCoxYytQ03o4xvB1ja52Uy4YiN1JkkUC2Mdqz1qkRhDcmKXCR7uNO3DU7KCq0kG+1hAYw1pgi55KVJYHiZWo1N2mPuMxi0695eQrCG5IKg7UMo9aHa+B1etpb8C8hBKYgCEIyPB1PM7x9JmY7xMTWvoQ6ti6XfAjpEfdfWCvJhBxaS6JtCKtNX72f+vLQTt2OltT3YZptofBj6fC2H8DbfmBZrrUc1nwFhrA0ilzMdZ/8NDstkVfUGIrqqC0z4Tv9PR548HEmxMNWENaUosrBZFThHLev6pcfRdZhrt6JOSvyioRab8Fo1DI9doJzZ9rjwtysaFoiKzDsTTQtMuNmvVpP5SkIb2SKrCIrtxicA/jlufuYCIIgCIIgCIIgCJe+dbMCQ1iqHCoarmFPSWQPiCD+SRvdr/wXB34oBi8EYT2QZAdOB2swc0ONzlJKfnbk+TDNdMCDe7CVvjbR2Z46UZ6CsB5IKhm/o2+tkyEIgiAIgiAIgiCsArECQxAEQRAEQRAEQRAEQRAEQRCEdSOyAuMyi0YuCIIgCIIgCIIgCIIgCIIgCMLlQAxgCIIgCIIgCIIgCIIgCIIgCIKw7ogBDEEQBEEQBEEQBEEQBEEQBEEQ1h0xgCEIgiAIgiAIgiAIgiAIgiAIwrojBjAEQRAEQRAEQRAEQRAEQRAEQVh3xACGIAiCIAiCIAiCIAiCIAiCIAjrjhjAEARBEARBEARBEARBEARBEARh3REDGIIgCIIgCIIgCIIgCIIgCIIgrDvqtU6AlJlBVnkumiITGXotANMeP4HBSXw94yhT02ucQkEQhMuHojJiKtpEvtbOxfYuUElrnSRBEARhGSmyGnPNNRj8XYwN9hKQxXNeEARBEARBEIRL19oNYEhg3F5C9o4SZCScgxO4nD4AtNkaTNdWY75WwXW6H+eZflDWLKVrQil+N/d89n1spIXff+NBXhoSPz6F9UPUz0uTOnc7FXWbyNGpUexNXFzrBL1BKJoqKrbWocfG4LmjOAKivQiCsLIyjYUUVhRjLRtmqOUIQ+PetU6SIAiCIAiCIAjrRFXtdmq3NJKhnhkamA4GOf7Kc9hG+tcwZYmtyQCGpFGTt6+OjDw9vcd7sbWPocjxIxSSSiK/xkJxYymaEjP251tQAsG1SO6aMF1/G9fWlAAl7L3h33npwOhaJ0kQokT9vPSoLVdTu6UcrezE1nGWwb5esfpilWQUVGMx5wA5WAvO4Oj1r3WSBEG4jEmqIKNnn8Vfuo2y8lKKtu1F0/wCPWPutU6aIAiCIAiCIAhrbNueG/jYPZ+jt6+PqUAg+roh28B1e9/C97/xIP09bWuYwrlWfwBDgrx9dcj6TNp+f46AK5DwMEVWGGsdZXLAQfW+WvL21WF75tyiKzEUOZet7/0079i7k4qCHLQEcNt7aXn5AI898kdsrE2HnSKXsuejf8W7rqunIMeAJiOUDqX1ET75hYfxz+pInDx9gvZbqyink7NNI7BG6V5JyhVf5JtfuZW8s//B/3rwsQWPtX7ox/zLu6vjz1cmeOVrb+M/ji69bMo/9nP+4XYrp753C99+XkKR38XnfvkZdmjaeOJDH+O3bgllz4N894s34fzdJ/nSj1tSfo9U8gugyB/iS09+nHpp/vxd/M8P8reP9KSclqV6I9TP1aLI2/jwD/6NfYXneOydf84fVmBQQVHXUllfjlaeYOD0QYadQcQ9Wz3T9gGc/hwMjOOw+VjrsldkHaaqPRQX56PTZKIK1zll/AynTjaLga0VoGRto/7qzegnzl6SZawYdrN1z0Y09pM0nWlf6+SsGkXOoeTqt1KgH6Hn4CFsa3zfUkmPJDtx9rxC8/h26nbUk1+/B9drh7AHL626JwhvBPnb76Rc10nLq8fwrMT3QONutu7aSJYk4es5SHOHmHiUv/1Oymni1JnWtU7Kit//1XK55EO4NFwu9e1yyYeQPkXeQOk1e7GyuvXgqmv3ceTIEZ544tdxr6tUKj7w/g/wqS98he9/8+/o7Uq973OlrPoAhnF7CRl5Otp+3xwdvNDl6dHl6eKO89q9eO0eAq4AHc+3Un/HFozbS3Cenn8ZiyKrueKT/8pn95eTGbDT3dqEY9pAYXUtu9/1JTYWZvE3D/0W1xo8GEx3fJ5PvH0nmRNdNJ8Ywh8ZiOnvItEuH9L5H/CVj/wg8q9VSuX65ek+xbEjw9F/52zcwybL8l2/b3QcmTJM+VZgFIqKycv0E5jKIbcSOAdsyMWITN9Yx/K9cRIUdzdnXu8n0VDfSPfazKYU9fPSocgqTJs2Y1RP4+p4NTx4Iawmyd1M2yvNkX+taVoAMoqupKqqAJV/Aseoi+gCSPfEmqZLEIQV4DxDV4+VLRutFFeXYDvfjyR+IF+29NX7qS83ong6FvwRnL/9TiryJRwtj9MxIOrDWlLkDWTpFj8u/evXUrNrI/Qe4qQYuFh3Vvr+XwpiB9hiJft80lfvp87QntJgVDLnRDsVdQtPGog8d+POVZyMnHiKfqe04HEwk0999X7qyjzzvtdi5yc6dqEBS6X4RnbVFcz8e9bnRirvF71GpMy8Kzs4KNrNDNF+Lp/2s1SpDobp9XqGhkfmvC7LMj9/9FHuvvtuPv83/5LwXJ/fR9PJY/z6J99mairxooSVsKoDGKrMDLJ3lNB7ojdu5YWxwIh1awHqrEwAgr4pRs4N47V7AAi4Agyc6qdsVxnu5iHk+Tb2Nt7N228pJ9PXwhNfvpffdobCdCh5b+czX/8cjVffzR01v+XxzpXNZyL1W6rJwsvxn32U7x6W4/8ofkguyvXiv/LdF2f+/eYHnl3WAYzpIRsuwJhXCYxCxQZy3L30+8rILQLOQUF+DiomGR+aYlU7ISdOc+CrX6dP1BMhLcXk52phqp+h7knxvBEwmM1kMIW97Q90j82qD6J+CMJlx9/TzkT5leTmV2KiH+daJ0hYUYrHiV9nJTcHPAlutmLcTUGeC58ne/UTJ8whqUbpP/JL+mFlPoNzTGhx4RgRK6bXoxW//5cMF8PH4zssF6uvsR23ii25d0nlHMOmPRToJZQk9mJVlOG4jlN99X7qdt0OszphEw8uJ3/fkzlfkTeQa8nGYRvGZKlA3zYypzMz0tnb/d+PR9OsFN/I1k3WuA7bVNNr2LQnNIu8qWVF67NoN7OJ9pNU+tdp+1mu+jzWdIisa/ZSual7ySstFUXm8cd/wZEjryEliAij0+t5xzveyU23v58/PPmTJb1XKlZ1AENbZkYBbG1jca+PnB9m5PwwFW+uAqD7T11zzrW1jVG6qwxtmRlv5zytZWsNxZkQPH+Q37b7ojdfsv+W50++n1PIRG8AACAASURBVG3XWyiuz4DOmQEERd7Atjvv5R17d1C+wYQGP87RLpoPPsLPf/Vy3GqNmRBAD/Pll6v46LuvpjxPy5RjmIvHf8nPfvgbhuTEFU6ryQQCBDzTzNfIFPlWPv3YF9ljiP/7QmGCFFUt199zL3dcWYdVD56xdo4+8U0Grn+YD24b5fkv3ckj58ON6sq/49/u34vm+Lf4s68+GXedNz/wLJ/YHYgLyaTIjfyvh7/F3g1nePTzh6n4szvZWWlBh5exzmM8++N/5r/b4jeFVOQCrnjvJ3nb9TupKDKjlb047H20HnqUA79+AXuCvE9PT2O54fN8/H3Xs9Gajco3StfJ3/DY9x6la4mb3SpyDpveeS/v3beLyoIctPiZGGzlzHM/5rHfnZoJ3dUzyiRgySkCQFuyAaOjk1O+Gso2FAODWM0mYJyxi2lcfxXym0r9VOQr+diPvs4N5hZ+ec8neMo+68Ft+Th//4MPUWV7jv/ziX+gVSWlXD/Tqz8r0x6jYZrkp/l/Ryp59+01qPsP8v++8gT5n/p73r0jD3/3YX7+ta9yLKYsUrm/qaUnUVlewQd+8xIfSKJsU2K0oteAMja6aKeVImsxlO2kuMSKXqdFpUwT9I0z2ddMT99Q3AeqIudSevUtWHXDdB/rQV+7mVyTngyCBBz9DLSdYMIjz7q+EfOmRooK8slSw7TPjq3rGL6i26jI8zB89CkGPEtoAxgxVzVQYM0jK0tDhqQw7ffinxxkuOsME56Z1SeKvpGtV9agsTfxep+eiuoKDLpMVEEPblsHPW0X8Mvp51eRS6m87k3ka+Lz4+r4La09czfTjQ3R0zxopqKqFL0uA9nvxjPSTHdnN8E5X7DSK09VRgYwzfTUAmWZ1v3VYijbRlFhEQaDFpUcZCowibP/HAO9QwQjX/AiYXCUdrqGcyitzENydtN1ugVN/ZspteiQnT10nz2GMxh7D9RkFTdQWhK+PtNMuW1M9J2lf9AerZ9K7tVs31GGp/UJOgZkFGqouaERkzJM94uHsSOhbLiWHVstTJx+kp5xKSb9K1f/56MpuZH6TVZwvM6FE+cIpPjFNf38JleecWQFtWUnFVXlGHSZSEEP7rFWelvb8C+xY0yRtehLt1NcVDhTf/yTOAfOM9A7EK0/sccnfb9SaF+J224BFTffTUXMK7PbctL1U1bIqnorm6vMyONnaT7VHNM2dOQ3vJWKPDWerkNc6BoDytJKTxy5B+fkbnLzzBiN4BRbYVzedB78divWqjr6E8yONFitaO0eJvPEAMYbgjEb7VqnQRAWYsxGiwefA1Ald4q+ej91lhFaDh5A13AX5ct8jmLcTWUZOGxOTHnJpSmWu62dybIGcqxW+p2rvPKpdGto1nuzC+2ujRSVHqNjYObPilxLUVk2/t5jcTPVpYHDNCe4XLIi151sfUqEQlpNov0srzVqP8tBUo3S1zuCtXYr+W1LD32rKAqdnfPP/i8rLaWmbgt/WNK7pGZ1BzCKTEwOTs7ZsDsZiqwwOTiJtsg0/wBGlgY14PNMzPnhfe7f7+bj/z77mjq2f+o7fOaWEtT+MbpamnAqJkpqtnDNB75CxYav8Dffe2HOj2ayb+CTHylE3dXOhREjpZtq2PrWv+J/6zzc/83nCKgkFLmc6//sL2jID52SU5kJZFDz9oe496aYa/U/z/d/+lz4PYZoO/4qZIX+pC64gp2VpgXKRMXWe77CR/cVofLb6G7pZjLDwu6PPcDo4GIlmgoTb/rLT2CWOuhoHsFYvInK+pv48N/kIn/uPg6NRn54G2n89Hf4y5uKUHlH6L5wCoccCuF19fv/nk1lD/HFbzwzp1Nf1l/Lpz5Riaa7kxZ7NsU1NdRe/2d8Rm3nC//8TMqdORGKrKX+Y//KF95WidozRFdLEy6yKdq4gxs/9s9U5T/A3/3kGLJKgoFhxqeg1LwBraxQbM1DHn+VTr+PrfmVwCCWXBNMdWMbBlQpXn8V8huVRP2UVEf506khbrhlE7tuqeCpA/Gd5JZ9V1GhgpFTf6A1mp7U6ueMZOvPyrXHqKwdXL99jJ6eSTbX3MrdDxTjZZjOwWw219zKBz/8Gse+fSicnvTub3LpGaHrzCk0WQAaCuu2YtU56G3qZDzmUsP983RGpUKXhRoITjkXHNFXZBWGTXupLTMhBd24xocJyhr05g3k174ZXdafaGkfSnANLfl1DWilcVw2N2pDPtm5VVQ16Ok6epiJ4EynnWHTm6kqMyIFvbgnHExJOvLq3oR/GTrTQum/jqqybPBP4BwbIyirUGeZyd5QQ5VJR+erf8Ixu5NVXUzl5hwyXONM+jXojbkYixvYpPLy+rnutPMLblyjfZAR+peks5KXk0QXQkY5lXVGpEk7kz4telMupvKrqFMHOXehP64TNNnyVGQD5podmMNvn2lUARKmimupiB3EcHfRfXFgVp6Tvb9qjJtuoqbMCFMu3BPDTMlqskz55G+6HqPhVc5dmLVxfIaVDfke3E4fOTkbKd9uIIgbt0uDMWcjFRv7eb11MHp/9VU3UVtlRppy4baPMKVSozcWYN1swZD1Aq1dY6HrOyfxI6HNygVsYDChVaaYxkCWHvBApk5PBm48jtj6s3L1fz6K/goqq61kTI3Qcy71wQsg7fwmXZ4xZHUJVXW5qJzjOP0adKZcjMWNbJJ8vH6+N+1ZQ4qswlCzl03lJlSyF/fECIFo/XkzJtMxms91RZ+3ad+vpNqXF7d9CFUGgAqd2YpW7cczNh4XytEbN2CZfHlKKglf1xEG8m6mJHczFaUX6RgIPeszCvZQkqdBnrzAxa4xJJWEIqeentkklYzfPwVkkakDxADGZW+iqxPtrhpKjC3xsxflWorKYOTEAFl51rhzIuEeCvThdhYzI3K+sASzX58dyiJ29mFsaJEWd000tELs+yQbBzpRyIzZYRkiaesZs1IxK6zW7NAPvp5TOCwNC4Y9UeRaam5qICf8nrHvFy2HZqiMzb/tVNz15kuTruGuaDm6sS5aTtE0LZKPSKgwgILdd2MNh+XwVd2VMB2R905UB6LpZ1a6wuey6faF07pA3UhUv+Z9LWbfiqXUg9kiZeXrOci5NubUw0vx/s9nucp73lB1OXvYMk85LFesd0/H05zqAFQSyUYSSvYcRd5A6ZZQ2LVB9qTVAbuWLBYr2JsYc4yT5d2I1VIHA3Prg9aQCyxj53BpMSZvJy19RDvSRbtZnnaz3ET7md9atZ8536cW+E4We/ycz/G+c4yU7cVcCraBhd4xdUrQh4KMJGUgZWiZnp4mIyNjed9kEasbQsqgJTCZfnysgDNAlmkZ55BY/gfv2luC2nOOxx/4NM/0hGbnqko+zF8/9DHqb/oAbznwAk+Px58mlerpeOhD/OxkqCdAXX0PX/7H/0HVte9i7/ee4w8BgBwqd17DnqL4B1PB1jdREPNvpbWDDCAISKomnv12E8+G/2b90I8X7iDOeh937C1CNdXJ7//2L/hVeDZ79pVf5m8+vzHdUplLKkF17ov87x8dDQ3OqMp564Pf54PbG7n1nTs59MOm0HHGt7PvSjNTw6/wyN/ez8uRjumc27jvW/ez69r38JafPMPvZpWnuiKHzq9/iEfC5Rkt/6vfx/6CZ3gy3edC7l2899ZKMieO8B+f/wKvhGfWK3lv5zP/8jka9/9Pbv6vYzznBOhn3AGYLBQBpZZcnPY+BqccGHOLUeQCck0aGLcxmNb1l5Bf8w7ueuChuXtgxA1+zUiufkLLweOM3HIHVXtuJ/8X35tZ/iYXc/2ualQMcvrgUSIrhlKun9EEJVl/VrQ9humHeOGez/JCoJGP/Me3ucnYx9/d8zU6Ne/h8z+7j+2V27DKBxlRSWnf32TSI6lO8vt/PsnviVkdouvjpb+7b/k38c5QowKCwUVmg2vqKCkxIU2N0HPiRWy+0PGKppaaPQ2YSreSf3EI2+zLSEYk+2FeD3fOKbKO/O1vpXJDIYXleUx0hm+YqoaiEiOSPM7Ayf9mONLZlrOb+gbzMmR0A3kbspGCQ3QdeYGJ6GoXNaaaa7Fmq9AaYfYyFClbh/f0s/Q7wiEHNTXU7G7EVFCPtaObkdkNL8n8SqpxbK2vEBluV5ffktQAhmTU4Dr9FAOO8GqRrC1s2n0F2UW15Lf2R6+XWnmqMVhKyZ+1eiorvywyHhnK+/h4aAAjjfyirmRDgQ7Z00f3yZdxRAY2VKVUXvUm8orqsbT3MhZbf9QeRl97gXE5j5Krb6Eg00nHkRP4VFVUvflKcrMtqOXwzHt1DSUVZlT+fjqP/Wnm+upyqvZcTW7FFeT1HsYuA4EJ/AHQ6UyADbKz0fhsOCVrqA54QKfTQ2AYX5DQj6yVrv8JKGygZGsdBpWf8fNHsKW7Ai+d/KZSnjFU2Vm4z87Uz2j5FG7G2tHLSLpb7KjrKCk1oZoapffUC4yF67OiKqZiz7XkF2zG2t3FkCd8fJr3K5n2JalsjJ1/kTFiVgupHYydeWH+mUwplqekcjDccp6cxm2YKvdgHnmBcbmK8ppC1PIE/RdORyd7pJWeBORgEMgMD4QIlz3HMYbtd1Ewa/aiYVMNJns77Q6omXWKYdNWaD7ASefMD+fya/bgffUYY2MjlNfGh6UKhaKCydaZQYHGWj0jJw7QHHONumsIdzCFSPk7qXQf5OSh0WjnVnlDHbYkO2oinU+OlsdpDneEhTqI7mKL7lBc2ARJX0254RQnD4WvrZKicalnd6RV6CWUeeaNRNKpjdlHIr96D3p5phNK0ldTt6WDloMHYgZzGti5nbhOqERpStQZtFg5JZMP25lfMha9L5FQHBL586TDUD1/HYjmMzZd4Y65+purUWyhayVK62J1Y3b9UuRazHkAsa+FYt5P9rYA0pLrQWyZ66v3z9oTZsNlcf/nk255L3QPFyuHLdXj84Y0Mej0SJIxbmXhWu7PY2kID7C0jcCmdK/RgIkRetpGVjXE0cxzuQVJJTE+5sJaFj+YLalambA3kJO/c079XAqLxQregWhdEO1mZdtNhGg/y2ct289sC30ni603s9uFxCg+L/MOvKRDkYMEJ3tRpmc6RlQaY1LhwZZbkouMLlPbN1GsBu+5P0Q7SwHk/p/x0jkvqCuo3jH3NKnvVX5/fGaz06m2H/NahwwZBRTVho9RneWRv7iBD7/rej78rut5+JgHRZng5X+6Lvrah991Pf/zr3+YMMxQUmoqKcgEue0wT7R4oi87X/sZJ5f1gdVH0++ORmeGSnIPf/jDSZyKwoayK6JHSe5H+fqHb+WeP/9idPACQHI8w5kuP6gsFFTNvXrGwBF+F1Oe0fJXFVKU5kMPgB31lGbC+Omnop3PEAopdvC0HTQbqdkWebUVuwMwmrFSjDVPx/hoO72jE2jNVkxUkGsCHMP0pHX99PMrGSrYcdWb2DPrv91XVJGoHyKZ+gnA+Wc4Mwiqyqu4vjTm9YI72FGVAQPHeelCwpJNUXL1ZyXbY5RvkvFAKE2TLsDtCI2bB2y4fIBGhz5ybJr3N6X0rCfmXHQqmB6/GO0MBJACrYyNB0FlJjvhDAonE/0zM7UllRdb/xBTikJWdswPQEMOWhUoEz0Mu2b2MVLGzzHuXKbnlQQoEsR0WkqqIM7OF+g48xIjid7H1cfwuG/m+EA7IxNTgAFdwvG5JPObLmcfI+MzyyIUzwXskwpIBrIMMcelUJ6SysHA0V9y8tABTh46QMfwFIriY+Tk49HXTh46wKmm8wm+JCaXX0lup+uV/+TM0Veinbeh1/twTAZB0oc602NN+wjIAB6CU0DQxxSA7Cc4DagzZ55x5nz0Kpga64y/frCHkTEvqHLJzom8Oo7PByqtEbWskGXQg28Up09CqzejyGq0Og14Hbii11/h+j9LaMXKHqwGFYHBE1wc9sx77OLSyW8q5TlD8gwwFFM/o+UjGciau09d8vIi5d8VHbwAkOQBhnt7mbS7UTJjjk/3fiXbvlKVRnlKnvN0d40yrSmkrLaG3Lrt5GqDuC4eYWQJofQEIWJsbARt2Vbywyvfo+E9xloSHu/pOBzzAz0UhgBddqiTqO8cI95scqwzqzYMVitaRpjoC8+4LLMy2fpU/DWaO6P7cUQong4uto2Ej2llsNcFecXky0o0DvSpI8cTzsxW5Fpqaq34eg7Gdc5IzuNc7HXF5RfCMxabWuLOLyrLnnP+WNMhhj0L/BLPMaEF/N6ZzS5tHfFpVJRhemI7FsJpiuRtvjTNZ6FySjsfsddPkI4F60CidDmPM2yPv1aocwfQmdDLSnJ1o2+ASbJnPkdKizHhwh9b53IqyNG58DmXXg/iyqH4xuhmrZFrzamHl9v9T7m8U2jf85RD5J4kauOejqfjvo9e6HGSU3c31cWr3zumr95Ped5IXB6SIUmh0I6Ne++ice9dmMcOcOrw4TkTDSR9NfUxx+288ca4+rHo+yxyfuxzGcA9MoKf+Gc3hAY3L/Q4kfJ3hq6zPfGP1GTTG+m497tjJu6IdrNs7WYhov1c+u0nkaQ+j+dpF2NjI9HP4KVQpjxMObqYGu9AnVOH9d0vU3D36+Tf9mRo8GJ69TbvjljVFRiy24/GmP4KCo1Rg+z2L1+CdFlogPEEcdXGnS4gF02CoV3ZNY49Nt6Zyo/L4wc0aPVzj18xeSb0gGdyOC6MjaTqYdwxz0bn6VCcOMNhk6K6W7jQUUz+8CQqWZkJ66AqZfvt72BHZQFmgyYarCWnLAPIICNBjZNdE0zMejiFyj8P/VImZht0oZiv1e/i3vtvi/uTtlgLaNGHPzgklY2xCS9sNJOnqcWS62diuBf3tB1fjoUyisgxgqdzcGbAKYXrLyW/Sv9v+dJfzLOJd4LXkq2fkup1XjzZy77bK2nct4n/+lk7ABtuuZIKFfSffJbu5RjxTrb+rLf2mPb9XSfPh1SFV2oE/HOnn0z5/YAu8cxdxU8wQPz9dduZdGSj8fpQZAVJJYFWixqYnnLH1VtJ5WVqsdUhSRnFPubCUlJA5TVvYcJuw+uaxDM5iNPhmnf2hhL0z1nFFPT7AQPqRJ+QyeY3Tcq0Ly49kkomGOrNR4pNz4qXZyRByedXkXUYiqsxGbLRaFTR539mdihk1ZKeJpmZoSSYNlGxOX4kXKVXAxlkaEL/llRefN4pyDWgAzJ0eqa8djySn0J9HqBBq5WYGnfMlN1K1/8IXSmVW3NRJANGaza4O+lqST/0Utr5TaE847Ib9M0Jmxcpn0THJ22B8vcPvBaOPSsldfxC9yvp9pWqNMvT33uU/vy3UL6hgUoymHacpfvi3DCogpCWcBiBgk1WbB2j8eE95hEbcghCP44h9ON5fMyFNbyhpRsruZaYGNDGCnJ0kFV3N411c6/rNwLhEHZ4J9OPjx7XIRZ/DbfXA+jJymFmtaXXhTfJ8xfk6Mbh3UhB3d3sLJsn/Mfs90o2TfNZqJzSzcci6YX568CC6Zp1La/bRbSXJWfxuiE5QzNay8MzRg06PdjbueiuoS5c57Ba0XpHQivml1oPInQ1bK0NdWguOMv5Er3/c0OQOMMrcVIt7yTa9wL5S1gOC/B0PE234U7Ky/ag70s/zFSqlOIbqSuDkROpx46fE3Kvdi/5fXOvkzB8UArvtdD5kQ567O0z7xuuu9ayuTHxPR1Pc7Ij0uZ3svPGmpiVWumlN65OinazbO1GccyXprn5EO1ngfdZ5+1ntsU/jxdoF+HBjrSnyCkyU64BdBvfS1b5rWQYipjyDDP40teouPmfUOfWcuTFpxjsa0/3HdKyqgMY/sFJct5cHY7pm9pokKSSMBWZcPypY/kSJC3WoSKl/Z1wVSxQ+Vd6vFXq/znf/cLP49Kh6Pfyka/dz02lWQl3ql/1JUbh+2soa2RP2dw/K0ow7v4O2Rwg5ZBXUUaeaZy+fmDaxqSphA1GCyYtOMZi9opI8frr0cXnj9K/v4yyxjso/sm36KeM6xqrUSk9NP33WVYqA4nqz7prj5fB/QWiqxFWtegCrXSfCi1ZXEpnfkrvqZJxt71AR7CR4oINmItyyQs/h2S/HXvHUboHJ1YkPWuR37WUKL+KqoiSXddQYFTP8/xfYMfwFKhNReQnWBmjKPGD9m63GwoMaFUm1FkZ+CZseFQeMoxGMskgSwt+9zz7aS3RQvVBysojr3BmacCUx4ZPZsnrYdPNb7LlKSQn1fKUVG5sg2OU5BWRQRDnYOfS98FahLKM45vC+hY/6AC5ZVb8Y+dCP6Rn1YNIqA0TI3T/d3g/iuIbaYyZVOgeGcFfFtrQst0ZmmXqGInvCJo/bMWl/dkYmTXeFxsyab445peoZOrAUixWN7xuF1hM6OUN5Fqymextwe004S8Lzzg1ZOMfW5ny1oY7H+e79qV6/yPp7o9/FUivvFezfccNgq2CyGx5SZIo2H13XMhvCIXnKU9yT4KxpibMKYbGWxalxaG9JvJ30rh356w/FswbE9925peMRfYm2bUX38Glb/4Lot1ELEe7WShNiYj2k4Z11H5W+vM4qTQE/SBPY9r51zh7nidTCc0MmxjtoALQVb0L7+RFTp/+7eolitUewOidQALyN1kYa5mZ5WDdXIB1awHqrFB8AGOhkZFzw4ycnxlhyt9kQQpfY9koyiId/crKjwQsRSDINKDOiF/Voshq1Or0ekOWkt2N7/84e0u1TJz5GT/84a9p7p2IztR88wPP8ondS7h4OsL3d+CpT3H/j87Oc9DMw6VndBwoJWdHAWZpnKYuQB7Fod5K3nYLRhRstpiHaIrXX5e6nqKp592UVOzh+hr4hfsOdlaqULqPcLiL1Q0yt97a4+VwfwGmp5CBDO0y7h+UDmUaBZBmTXNWZNVS5+ZHSbhxdr3EhQ4FKSsPvSmf7NxSNhRbya+7Gr/jWYZ9i1/nkrAK5ZmKrIodFBgzmBo7S2drG27fVLTzPmfLu9loXeQCSfJcfJYLXY55/jqT7ymvm2ny0Obkkqnz4XNNMa1yEawwostWoVX5mXT5WO02rIyf4dTJZhRVIaVXXo91w3bKrAN0jy1tdWm6+U22PIXkpFqeCqVUVBeSEXTjlw2Yq3ZhHHkZp7z8ZZ+h0QDTyGJs6g3F3dbOZFkDRQ3ZmHQLxJMOh8KInTlp0OmJnbsXChe0kXJLHQadFa29fWamoWMSP6DVWVnWTWFnW+B9Iun1OZj/++u85+eSpYPFpvhKzuM0Hz4e3n+hmqLSY+EVYiSc7RiKCd8Zmo27nN+pl5iPhJKoA8ub1nihATIruaWQoxthuA+gG4d3L+bSOshz4egKD5gttR5EeNs512xi666N1DVMLtq5djnd/+Uq7zmWqRx0hmzwtq9aR3fiDuJQSJy6Ms+cjaAXvlYr7a3F7KrbSXVxy6rsRRDpQE40QBDdOH2BGfmREDXWJXaQJqojot2sXruJXk60n5Ssl/YTtRyfx8muWpqHIoU73jI02DtfwlhYh96yPfr3jNwtaKxXkpm3lYmXP7uEd0rNqu6BIU9N4zrdT/HOEjTZM2vpncNOBpr66XntIj2vXWSgqR/n8Mz6Qk22huKdJbhO9yNPLfDLyxcgCGQZcmHWCo+tn3qcHx34I3+1PybLXh8BwGCcG6c615gNTBFY4ne2FdU7ggPQFddQEptf9XVUFiVo6C4vAUBrzEMTG1NQziHXlAX48CWxrDMRRVaxqbwIiRFOHPgRr/c7ZsJKyWp02sx5z1Vlm8mZdb9C5e/FM18/QDLcXvyA3liw6KEAvlE7HrIxbSrA7BwLbRbqG8ThziGvPhcjTuwDMb2fKV4/YsXymwZJ1cHhE10olLJj7zYsN+2mTKXQffKp0EbWq2m9tcc07++643HhBzKyclAvtPJtOogMqLVzp2tkarUsuePLHXr+ZBjMcc8fKMBgWN66JqkkCIzjGWtnpO0w7b2ToDKRnT/3OSSptXPKRa3VAkGC6W5IvBpWsTwXo8gKBmM24Mbe1YwnEIwJK6UiQ70M6ZkKDcSpM5PcqMDpxI+WrJwctBmhWLQ4XfjVBnRmA5m44z/vVrr+zyIxTH/LRQJoyatpxKha4uhsqvlNtTwj6VZnoZrVXjLD7WV6KYtsFih/bfGbqNlxI4W5SlLHr8T9WlQa5anIWsybG8nPknH3/ImOvnEUbSkV9VVzynipFNmAXpcJePC7Fj1cuIxEYoDn5Bfg7z23YAeCJBmjsb0V424qy7LnHDM2NgJ5NVRa4vfSiLxPVvlNcXG3FeNutswTGzoRRd5AyVV3svOq3QljN8/7PuF9DCZbF+4kiezPoC3bQ4lx5nxLQ0No5mU0HbVU33hnNK61YtxNdfWsjZ0VZ9xzVZIKKG+YiROiFN9IRb7EZO/yzzZONh8pXzeJOpDyNZOtG45uHN5ssizZaO0D2FRSdBWRqaxmJizLQtdMsh7Epc95nHMnOvHnNczc71n18LK8/8tR3gna92LlkKiN52/fH5ePUBx9FyNdoWfM7PaYjHTOWdbr9p1j2KNgKtuz5Dj0SQmHK0pU32bi54f2XQjlIb7MIx24hOtCqiRVaONgrSF35pqi3Sxbu1mIaD/LYJXbTzLlsJTPY4NOv7RwnUkYPPFjHBf/iKRdSsz/1K3qCgwA55l+NCVmqvfV0vF8KwFXAK/dg9eeuGdSk62hel8t03YvzjOzx/RmOdfOQHAv9Zv28o6aX/GbzlDvk5Kzn5saC8lU9zNwYZroLLjTrfQH30TN1rdyW/lT0Y2DVSUf5rqtOgiep71puXK+Anpf4cLQeyktuYU/u7ebR359iCHNVt78gQ+zWZ3gl/uF1+nx7MdSvZf3XnGAx5rdAGgbPsGbNkrg6qRl8b2REpJUMhNOD5BL1c4tcK45OsPL0PiXXFu9QLirsjfx9sZHeaQp9LRXlXwoVP5yO4PzTISZcLoBEzkFZmaC6s5yupmeqWup33Eb1284yIujkZ1gIQAAIABJREFUofXyiqaRD37tn9hbMsAzX/gIT/SE09Y3xiQS5tISsiaO0gtAD/ZJEyWVJrKYwN63hOsvIb8rafi51+h+50Yqtr6Fmz1VqOQOTj3XyarPvl1v7THN+5u6MdxeACPmCghXvOXjGcLl3YzeWESe/gwj861AsNvwyqVk51aSn9UT3RhX0dRiyVWDPIrLvoR0+PpweurRGzZSWeegu2uAKbWZ3KorMEkLxzRRWfawqbYcHW5GWw/Rn2C2uqLfRm3DRrSeTtpOnonuVaPIajSZGkBmOjDF7HqtZJdQkN9K/7g/nN8arOZMUCbwTi4hvyttCeW53CSVxNRUENBhyDOhOCejAxhSzhXkG5fhWTJhwy2XYbJUY+7sZyK8UbJCPkWNN1CY7WTg6B8Z8YXfyzOJX1ahzc1H43fhDQJM4J+qwWgBlX8CT5CZaRwrXf8TUMZP0TNcSE1BKeU1JZy70J9wZnQy9T/l/KZanhHGUgpzLjDgDH+/ipSPMo5vnvaSVPonxkPln7cRi74nupG3oiqmoLwEY5YLV1vM8at2vwLhgUwtaj0w3/MzjfLMKNhNeUEW8uR5ui9O4OM4Q5abKLI2UF4wzMXRRPOmkkzPbPqNmI2A18akj1WeviSsNffICL4y5oR7iiUNHOaCbj/14VjdiqeDltYR6mb/tu4bYLK2AROdXOwjri55Op7mAjPXgEj855Zl3dfF0/E0J7w3siv2fRQnw8cfTxgPfDbbmV/C9jupiAlz4Wg5yLBuLzOLBcfxeSESEU5yHmei6k4a90rR90sU67rHXRMXemL+0CFLl1w+kpd0HUhDMnUj0glYX16Ao+UQkboaCV3GrI6lpdaDWJLzOOdas9lVt5OdV5m48HLXnL9fbvc/nfJOpn2nUw5jTccoveYuGqPx/YdnzdiOb4/JSeec5btuZLPmnFmre0Kb+lbHHavEhNaJbGZcMd/f5zm/h41oCa8ISPQZH352W6vq6D/TSvtBqLnpLhpjOu59PQc5NWsvmMXSG2tsbITystDGwR6VJNoNK9tuIkT7ufTaz8mmhcthKZ/HSji8mX9sfNFjPR4PRuPy3+WVtOoDGChgf76FvH111N+xlYGTfdjax+bsiSGpJPJrLBQ3ljJt92B/vmXx8DHOx/ntH2+len8d7/7qr9jVfpGJaT2FG2spMID91cf5fTszldL2GE8evIXPvGUrdz90gKvaunGSQ0lNDflZUww8+yjPjbNqP/SUHR/lU7fVEtl3Ul0QGrHOb7yPe0siUxtHOPb9b/CaQ0JSneTXjzzP9s/cQuW+T/M3+z4NQKD/KV7pqeCGLfHXl+SnePJ372DzXXW89cGfU996EYeUR8WmSnLUblqe/ClHlhC2oOm5lxjas5+N7/kO39rVQp89SKa5hMryAN1dHpinwSl9Pmr/98/4P51d2OVsimtqsGTBxCu/4unZmz+HtR45jf3Gm9ly98M8sP0izulI5bjI4a9+n7MqCcYf54ln9/GFt+3mo996nL0dvUxOZ2GprKXUnIH96O84dDHm+hdHmJCh2mpl6twQYyoJ5DZsEyp2FxdAsJfR3pjjU71+uvk17+CuBx4ikKDsRl75OgdeXGIc98HfcarzLiqrbubGgBq54zVeHEyQ7hTrZ8rWWXtM9/6mSlINcur1Ht5WVc4tD/6Yyp5JQl2DTs49+mWe7VjaFzhJNcro0AQbqswU1NRgP9M+Z9NqAIJt9PdXUVtmpXz3beRNOJlCg8Gch0Y9jaenGVtsB2jK6RhnoK0L87aNZJdeydbS0Ouyq41RVw7WvPnPNRWUYdCqgRzyrcX0j3XNPcg1gHOqjmxzPXVXF+B0eZCVDNRZZrJzslB8vdgSNZVJL/ott1LnHMePBr0xlyyNRGDoQmiwJ838KsY6Kkrzo11Fki40M1tr2U2FITLA7MHeciqtcDFLKc+V4OzrwbuhhuzqW7jCYsPtV8jQZmMwyrgng7DUyRnBdga6K8muKqLyqttxO51MTWegNeWj10oERtqwe4i5X+Evhtm5qFzD4QW34/i8GgqMErh74xfhrnD9T0RSBZlsOc24+WpyixooGR2if3zu4FNS9T/l/KZaniGKM0j2jv3UTU6E2ospF60apgbPMzJ7M/NU0h9oob+vgk3lFsp2307ehIOAnEGWyYJOA1PD5xlxxVx/le6XpPLisDkoNuVQ2PAWsl3+8NYBASY7X8XmkdIqT0VdTcWmEtTyBAMXQgOuEuMMXmgjZ3c9uZv2MDH+QnQgJOX0xFBkHbk11eglGfdgC951HHdaWDpPx9Oc6iCuYyQUvgNiBy8kVSsdh1vjXotsSBnr1MCsa0XPI+GgRKJrxHZQJwoxEZtmiZhjFlpJMXCYk3NiUccfbzvzS2zzXCf6t7DQ7MmYKyVI6+xzEg0Gedue4mTc97bk0hT7elwZxEh0bxfLB4TK6tRAfFrmS8didWBuGSS+VqK0LlQ35h4zu/4eJ5Gl1IPZeYm7lpo59fBSvf8LSbW8F7uHsemxxR0X+wyZ28YTPhtU85yTQKJ6mc45icwu90TXTXRvYG5ZJiy/WddJ/++t8z7vQumOeXYn+Hc66Zkj3MkbGyJKtJvlaTcLEe1nOf6+uu1HUpG4fGNWTST9eTw7zTkVofBm84UMjXHk5ef52D2fo7ikhKlAfG/jQF83v/7ptxY8fy2s/gAGoASC2J45h3F7CWW7yyjZXY5zcAK/K1Ro2mwNxiIzKhRcp/tDKy+SWDkkqYK8/vB9fNN+L++8aScVtTspI4Db3sHx5w7w2M/+iCuuMfs58737+JbtXt6xt4GK+kYy8eMaPc+rBx/h57/6U+KOvpVSsp09V+4kY9YSNmPlHvZUhv5fUboZeRReCy868L76j3xp+AS37buSYiO4Bpt48cknqb//toRvcfEXn+Uh12e469Y9VNXtpAwfk4NNHHz6Rzz6TPOilXwh/pPf4OvfdvHB99xIdeEWtpb6mRxs5cXvf5eOK79D/XwnOg/xg2er+Mg7r6bOokflG6btxd/w6PeemXczS/9r3+BffyzxoTt2U9lwNVnqyIiziVbgLKH60PJ/7+Mh2728d98uqup3UiF7cdraefW5J/jPXzyHPfb6wX4mXKDJ0TJqD02Dl1RBRsed5G7OB3sTIzFpSPn6aeZXMlSw46qKudcBLvYbIKmPj/lJqgEOH23lHTWbMeimaTv2+8TpTqN+ppaO9dUe076/aej86T/x0+xPc8fujdQ3aMmQJBRlAtezQCpfHOfh7z7FkPV6iiwNVNdP09XaRWDWl6LQJtiHaPXtpLikAH1eAQamCfpGsXU209M3tPQZlOPHaT4+hKWwCH0mBD2j2Pq7yN5SveBpruE+POZysnBhHx1KeIyksjF46iWCGzdjyTdj2pCHimmmp3z4xtoYbj+beKBA7qfrvIOK6gpMukxUQQ/OgXZ62rqXll99AXkFhahmtZfMnGLyc0L/rygT+LrAme6+HGmW50pQHE20n52itLKMbIMFs1Em6LIx0nwC94ZbljyDR1LJeLoOcsHfQGlJEQZzAQY5SNBvx9bXwkB3f9zzQVI58HmnUWdrCHgmwj9u3Ph8QdQ5GgKjjllf7leh/ifKl9xDT3sZxq0lbNjUyPjRY3hmtc3k6n/q+U2lPKOCF7nYYqa8spQcnRqCbpwDrfS29s5bPsmlX8bdfohW33aKS4ow5Bagn55iKmDD1n2egd6BaFjK6PGrdL983a9xUdNIsSUXoyUXlSShKD6mYlbLpVKeiqzDsmU7Zs00ns5jDLlCP2RChfU6Pb3F1FUUUr6lDldTy5z7kEx6IhQMmOuvo8KiQXG30dszyaqvrhSES0E0fEQLl3QbuVzyIaRH3H9hDYVCJtVQt8BeAeuSaDfCGlPkDWTpSGrVxGIsVRuhN7kwimePvcB3HOPUbmkkQx0/NGAfDe9HPR0gb+N1ZOoLycwupGzbfoDoa8iru8GodPMt+5WALc24QcuRgMwMsspz0RSZyNCHNpmd9vgJDE7i6xlHWWjPC2Feb/2Hw7x/6zDP338nj7SKB7EgvNEpmkoqGnaRr89g2jvGRO9ZevoWH5lfDfnb30d5novBo08zlGAG8UpQ9I1svbIGzVgTTa+vQey2FbQW5SkIwvqhyCr0pVdRUlaEUadG9vTS3fQKEwHxPBAEffV+KjlGczjUgyLXUnNTAyZv55zNO5OVv/1OynXpn5+OlciHkB5x/wUhJLrhsbcpYZipWKLdCEKIUnwjjbX6OSHWUrUSbUpXcxdZ5bcm/qM8hbv5YQIjiVcfLSf7lJHCwuK1WYERS5maxtsxhrdjbK2TctlQ5EaKLBLINkZ71jo1giCsB1LgIt3HnbhrdlBUaCHfagkNYKwxRc4lK0sCxcvUam7SHnGZxYJf8/IUBGEdUGGwlmHU+nANvE5Pewv+JYQIFYTLiafjaYa3z8Rlh5gY2ZdQ59Xlkg8hPeL+C+vRYqGH1ppoN8J6oq/eT315aKduR0vq+zfNtlDozHR52w/gbT+wbNdbqjVfgSEsjSIXc90nP81OS+QVNYaiOmrLTPhOf48HHnycCfEwFgQhhqLKwWRU4Ry3r+qXNUXWYa7eiTkr8oqEWm/BaNQyPXaCc2fa48LErGhaIisw7E00LTJDaL1aT+UpCML6ocgqsnKLwTmAX567r4ogCIIgCIIgCMKlYN2swBCWKoeKhmvYUxLZAyKIf9JG9yv/xYEfisELQRDmkmQHTgdrMNNEjc5SSn525Hk1zXTAg3uwlb420dmeOlGegiDMJalk/I6+tU6GIAiCIAiCIAjCshArMARBEARBEARBEARBEARBEARBWDciKzAus+jfgiAIgiAIgiAIgiAIgiAIgiBcDsQAhiAIgiAIgiAIgiAIgiAIgiAI644YwBAEQRAEQRAEQRAEQRAEQRAEYd0RAxiCIAiCIAiCIAiCIAiCIAiCIKw7YgBDEARBEARBEARBEARBEARBEIR1RwxgCIIgCIIgCIIgCIIgCIIgCIKw7ogBDEEQBEEQBEEQBEEQBEEQBEEQ1h0xgCEIgiAIgiAIgiAIgiAIgiAIwrqjXusESGoD2pIbyLTuIUNXAMC0d5ipkWP4+19ACbrXOIWCIKwlRWXEVLSJfK2di+1doJLWOkmCIAiXNEVWY665BoO/i7HBXgKyeK4KgiAIgiAIgiAI69PaDWBIGRjqP4Jh8yeRJXANn8E9OQaAJruU7N37Me0C9/mHcV/4CSjTa5ZU4dKnFL+bez77PjbSwu+/8SAvDYnOmkuBOnc7FXWbyNGpUexNXFzrBL1BKJoqKrbWocfG4LmjOAKivQjC5SbTWEhhRTHWsmGGWo4wNO5d6yQJgiAIgiAIgiAIq6Cqdju1WxrJUM8MDUwHgxx/5TlsI/1rmLLE1mQAQ9IYMV/7HVTmzfSffhR71yEUOX6AQlJlkFe1l8LtH0dTeC0TL9+HEnCuRXKFy4Dp+tu4tqYEKGHvDf/OSwdG1zpJwiLUlqup3VKOVnZi6zjLYF+vWH2xSjIKqrGYc4AcrAVncPT61zpJgiAsI0kVZPTss/hLt1FWXkrRtr1oml+gZ0ysehUEQRAEQRAEQbicbdtzAx+753P09vUxFQhEXzdkG7hu71v4/jcepL+nbQ1TONfqD2BIGZiv/Q5yViEdf/hrAp6xhIcp8jS2judxDjZRdcP9mK/9DuOHP7HoSgxFzqHqrZ/gPbfuoaIgj2x1gEn7AB2v/JJfPPZHxhKESVDkbXz4B//GvsJzPPbOP+cP67CT9Ja/P8gHt9k59Lfv4Sevr336EqVHkT/El578OPXS/Om7+J8f5G8f6VmtZEZNnj5B+61VlNPJ2aYRYO3L8FK1Gu1FUddSWV+OVp5g4PRBhp1BxD1bPdP2AZz+HAyM47D5WOuyV2Qdpqo9FBfno9NkogrXOWX8DKdONouBrRWgZG2j/urN6CfOijK+TEny/2fvvcPsusqD39/ap9fpZ3qvKlYZSS4YY8nY2NgEEsxnO7TrBPBHIODkAwIhEAL33sTEIUCSGwhJPghgsBzgI4CNHYNkY1xULMmyVUaaoqmaOdPn9LbX/ePMjObMnJk50yV5/Z5Hz6PZZa13lXfvfd53rff14et6gdOj22jc3kRe0x78Lx1kJK7GWqFQKNaSvG33UGFrp+XFIwTX4jvatZstu2qwCkG46wCn29TCrbxt91DBCY6fPLfRoqz5+CsUVzNKfxRXG1IvoOyGfXhY33l93Y23cujQIX784x+lHNc0jfe8+z189FNf4ht//1d0d7SsizyZsO4ODEfT/WjZTbQ99ZkU54VmtGHLqcJocREe6yLi7wcgGhyi49mHqL/9IRxN9xM48+/zli11I5s++I984m2VmGMjdJ8/xYW4lcKaBna/83M01Rfyhc9/jyH1oFtTZKCTk6/1Ek1zztu5Mas7xZlv8qX7vzn114bIoMgMqWu46zfhMibwt7046bxQrCcicJrzL5ye+mtDZQEwFF9LdXUhWmSM8UE/upw8ERjbULkUiqsC30k6ujxsrvFQUlvK8JlehPpOUiiuCOy1d9JU4UIG2xb80Zu37R4q8wTjLY/S1qf0eyORegFW21qW30DdrhroPsgx5bi47Fjr8b+SmOlom0mmzyl77Z00OlqX5JTK5J5pY6LNS9eBgwzP81ydev6m3Ct9eF9+nF6fWPA6uNROe+2dNJYH561rsfvTXbuQ41KW7GVXY+Glv2e9P5ZS33QZU30WWlsnodKfuSg9unr0aKUs1blnt9vpH/DOOa7rOt9/5BHuu+8+Pvn5v0t7bzgS5sSxI/zoO18jFktn+V0b1tWBoZmcODY9QO/JH6Q4L7IrbqB09wPo8RDx8BjW7ArGuw/Tc+ib6HqUaHCI/lf3U7rtAUKt+9Fj/vQV2O/m7bdXYg6d5Uef/zg/b0+GPZGOvXzo4b/kpmvu5h27v8e/H1uP1r6OGXuF/X/9MD3KAKJYFiXk5Vgg1kt/54Ra+a3AkZ2NgRgj55+ic2jWfFDzQ6FYMZGuVsYqriUnrwo3vaiAnQrFlYMM+ojYPORkQTCN8krXbgpz/YSDzvUXTjEHoQ3Se+gxemFtvmGy3FjwM+5VO84vR9Z8/K84/AwcTTVULjZvZxps5XBmtSzlHkf9HgrtAikXvg5AyoEUg6m99k4ad90Fs4yv6Z3MmY9/JvdLvYCcfCfjwwO48yuxn/fOMWJOGXk7f/3otMyyZC9b6j0phtqlyuuo35NcPX6iZU3ntdKf+VB6lJH8l6kerda8HjpxEOsN+6iq71zxzkspdR599IccOvQSIk2EHZvdzjve8bvccte7eeqn31lRXUthXR0Y5uI3IoGR9gPTxxz5DVRc/3G6Dv0TY53PJ4WyZVPzxk9TuvsP6D78LzB5T8m2d2MufiPhrifTV1BaTr4JEmd/w+Ot4enBF4Fn+OVTb8ZzbS4hmwmII/U7+PgP/pw9jpmDsZX3/NdzvGfGkdkhj6ReyNZ3PcDvvGknlcXZWPQQ4yM9nDv4CPt/9CwjMyak3Prn/P2X7iD31W/xueer+cN3Xk9FroXY+AAXjj7Gd//1v+ifFdJKmrfxlo98hNuba8mz6vi953jxsYcZmEfzlySP3swffOur7Cs4ySOffIbK/3kPO6vysRFiqP0IT377b/n1+dQknkuVZykspX+kfi0f+LeHuTm7hcc+/CEeH5nVb/kf5IvffB/Vw0/z/37o/+acJuYZ4/nDWC2rf/QCrrnnY7xj33YqCtyYieAb7OD0ge/x/f98Hr+2vPkwHaZJf4L/faiKd95Vh7H3AP/7Sz8m76Nf5J3bc4l0PsP3H/prjozMHOMs6n/3Y7zr1l1UFWZhIcLYxXOcfPrb/ODnx4ksW57l6cuycHmwm0EODS5qRJO6BUf5TkpKPdhtFjSZIB4eZaLnNF09/SkvAKnnUHb9bXhsA3Qe6cLesIkctx0DcaLjvfSdf5mxoD6rfBfZ9c0UF+ZhNUIiPMJwxxHCxW+lMjfIwOHH6Qsu/yUjcZFdvYNCTy5WqxmDkCQiISITFxnoOMlY8NLuE2lvZsu1dZhHTvBaj53K2kocNhNaPEhguI2u82eJ6Mtvr9TLqLrpDeSZU9vjb/sZ57rmJveVjt1s2VODeeQYpy9mU1ldht1mQI8ECHpP09neSXzOB8Hy+lMzGIAEidgCfbms8bXgKL+G4qJiHA4Lmh4nFp3A13uKvu5+4lMfJHoWpdffTqFspWMgi7KqXISvk45XWjA3vZGyfBu6r4vOV4/gi88cAyPWkh2UlU6WT4JYYJixnlfpvTgyPT9lzvVs215O8NyPaevTkdRRd3MzbjlA52+eYQSBLLiR7VvyGXvlp3SNihnyr938nw9z6V6a6j0w/hpnXz5FdJkfWlK3YC/bRklx0aX+j0zg6ztDX3ffdP+njtda6ntm47VcllL+UvRreoWTZYiuF37N8KwQUNK4iYYbr8EZbufsi0cIpWuH3oVvYjc5udm4XOBTqTAUiisHW5DIiAdPdSO9aVZDOjweLCNBJnKVA+N1gcuJZaNlUCgyweXEQpDwOKBldou99k4a8720HNiPbce9VKzyPdK1m6pyGB/24c7NTKaZBM63MlG+gyyPh17fOu+AKtuSXO1+2o9lVw3FZUdo67t0WuoNFJc7iXQfSVmhLvqe4XSa4jJlqtyJc4+rkE4bgdKj1WWD9Gg1ENogPd1ePA1byDs//66XTJFS0t7ePu/58rIy6ho389SKalka6+vA8OzBN/BaSsLuwq3vYqTj4LTzAiAeGuPC81/BUdA0fUzqCXwDr2H27JnfgdE7wFgCCgvKqdagbeap//o8f/1fMy/20nHyOGYrgJmixi14bON0n2hndMZVA72XDHdSd9H88a/zx7cUo4W8dJ49zrjuoKi2gevf/UXqy7/Mn3/llylGYgCcN/PA/UUYO1o563VRVl/Hltv/F39mC/KZv3962vgjdRfXf/yLvPcNucjwIBfOduMz5HPDA5+ju2du7o9ly4ObN/zxh8gWbbSd9uIqqaeq6Rbe//kc9E88yMHB5cmzbDLoH6Ed5rfH+7n5tnp23VbJ4/tTjeT5t15HpQbe409xbrq9/Zw/+iJYk38ZC7eys8qdgUCZ9o+NbR/9On9yWynGyBAdLSfwSTeldZu54T1forLgS3z+n5+dY4TLdD4AYN3Om7YN0dU1waa6O7jvsyWEGKD9opNNdXfw3ve/xJGvHZyUx0LTB/6BT/1OFcZgPx0tJ/DjpLhmO3s/8LdU532Wv/rOEfRlybN0fVk2NitGIB7zLWgwlLqGo34fDeVuRDyAf3SAuG7Gnl1AXsMbsVl/S0trf5oyLOQ17sAiRvEPBzA68nDmVFO9w07H4WcYi0+Nr8RR/0aqy12IeIjA2DgxYSO38Q1EVsG4l5T/JqrLnRAZwzc0RFzXMFqzcRbUUe220f7ibxmf7aU3llC1KQuDf5SJiBm7KwdXyQ7qtRCvnepcdnshgH+wBwzJv4TNQ25WBj+BDRVUNboQEyNMhC3Y3Tm4K66j0Rjn1NneS0b6JfSn1B1k120ne7J6k0sDBO7KG6mc6cQIdNB5oW9WmzMdXyOu+luoK3dBzE9gbICYbsTqziOv/k24HC9y6uysxPEGDwV5QQK+MFlZNVRscxAnQMBvxpVVQ2VNL6+duzg9vvbqW2iozkbE/ARGvMQ0I3ZXIZ5N+Tisz3KuYyhZvm+CCAKLNQcYBocbi4yRwIHVDgTBZLNjIEBwfOb8Wbv5Px/SvpWqWg+GmJeuUytxXmg46vZRX+FG00MExrxEp/v/jbjdRzh9qmP6ebX2+r6E8Vpme5dVfgb6JbRBRoZ8eMrzyC12MtydqlCm4lIcAiJDHemdF4DQdCKRGGDFZAOUA0OhuKIY62jHsquOUldL6mpFvYHicvC+3Ic115Nyz5Tzs9A++RycsQJyvjAEs4/PDl0xc7XhzJAiLYG66VAKM+vJNO5zuhAZs8MwTMnWNeShclZYrdmhHsJdxxnP37FguBOpN1B3yw6yJuucWd90P5yGqpntHz6eUt58Mtl23DvdjwE8i/bTtEyLtGMqVBhA4e778EyG4QhX35tWjqm6082BafmZJdfkvdTftbCsC8yNdPNr3mMz8lasZB7MZqqvwl0HOHWeOfPwShz/xZjdptmrg1esZ5k8D1YY4z3Y9gTH2wBNkGkkoUzvkXoBZZuT4dcusmdZhteNJD/fAyMnGBofxRqqwZPfCH1z54XFkQOsolG4rAR3qJ2WHqYN6Ep/mNPuhdq0mP6sNkqP5mej9GjO99UC32gzr5/zXu85hbd8H9llMNy3UI1LR8bDSHSEMCAMFhKJBAaDYXUrWYT1DSFlKyLqTx1kW04NI+0H51wbDQ4R7fztrGODWJ1F81cQ/Cm/OvROGt9wOw8+ZOSJ//oxv3nxNMG023SO8Yu/PcYvmLHa3dbDc3/14PxJiV1v59Zrs4kNvMD3/vIzPD9lyM56Kw9+9TPsuvFu3vKdX/Lz0dTbRJmdti+/j+8eS1qejLUf5nP/z+9TfePvse+fn+apqZBhhb/PW6/PheBr/PDTD/JUb3L1ta3503zuU3WrJg+iFO3Un/Nn/3aYqCaQWgW3f+EbvHdbM3f87k4O/uuJ5ckzRfZ27v3sl+fmwOj9Fd/4j6fnGPQz7Z+WA0fx3vY2qvfcRd4P//nSdi29hDftqkXjIq8cOMzUtiyhneDJr51gyt3led+3M3NgZNo/+b/P7+0rxRg8xaOf/Ti/7Er2j1b6fj795Q/QdMt7eMv+Z3liufMBwN7Psx/+U56NNnP/v3yNW1w9/NWHH6LdfDef/O6DbKu6Bo9+AK8mIOde3nVHFaaxQ/zLJz/FC5M7M2Tu2/mTv/sEzXf+X7z5/xzhad/S5VmWviwXgxENiMcXWQ1ubqS01I2Ieel6+TcMh5PXS3OBQxxWAAAgAElEQVQDdXt24C7bQt6FfoZnFyNciJFneG3SWCh1G3nbbqeqoIiiilzG2icHTKujuNSF0EfpO/ZrBqZWa2ftpmlH9io0tIDcAici3k/HoWcZm97tYsRddyMep4bFBbO3oQinjdArT9I7Phkiz1xH3e5m3IVNeNo68c5WvAzbK7RRhs+9wNRuUGPFbRk5MITLjP+Vx+kbn9wtYt1M/e6tOIsbyDvXO13e0vrTiCO/jLxZu6eseeVT/shk20dHkw6MZbQXYxUFhTb0YA+dx55nfMqQrZVRdd0byC1uIr+1m6GZ88cYZPClZxnVcym9/jYKTT7aDr1MWKum+o3XkuPMx6hP7hww1lFamY0W6aX9yG8vlW+soHrP9eRUbiW3+xlGdCA6RiQKNpsbGAanE3N4GJ/wJOdAEGw2O0QHCMdJ/jhY6/mfBkkBpVsacWgRRs8cYji6At03NlJa5kaLDdJ9/FmGJueD1Eqo3HMjeYWb8HR20B+cvH6t27uU8VpWe5dXfqb6FbzYT6S8HkdBNcbOV2fsHrKRm5+NwMfIxSEW2matx+OACW19v0MVCsVqMH6EgZF7KZy1WtFRX4d7pJXWcZj95e6o3wKn93PMd+mHcsUNewi9eIShIS8VDalhqZKhqGDi3CWnQHODHe/L+zk9o4zGG5g0LCUReTupChzg2MHBaQNQxY5GhjOMtz1ldBpveZTTfTMNRfey2XYwJUyCsNdS4TjOsYOTZWtiOg71bANapV0g51l3MyWnZUYeibzaPdj1S8YkYa+lcXMbLQf2zzA+7WDnNlKMYelkSmf8WayfMmnH8MnHGJoel6nQG4K8eeRw1M4/B6bbOVOuSQNb05trkcPJstLJutjcmD2/pN5Adi7AzGPJWPcT3S2AWPE8mNnn9to7Z+WEKbgqxn8hpvov3HVguk3StZuyMgj2rVzPMn0ezMRhsyOEi8o330fl5LGNzNOTv2PSwXLeC/XLLWMHbrx0nfeua4ijS8/nFoQmGB3y4ylPdWoL7RxjIzvIyts5Z56uhPx8D4T6Lhnylf5Mn18t/VnIiaH0aPXYSD2azULfaDP1aPZcEgwSDjGv42U5SD1OfKIbmbhkaNLMrozCg602GW4yujIQmo9DX/tLfnD4Ipb623j3n/0L//S9x/jCZ/+M27aVcCnz6zLLDzzCw++/gw//0Z9POwsAxPgvOdkRAS2fwuo09/W8yC+OXko2Gzv/bV5q08FQSHHDjAsbKvBoEH7tqWlnAUDw6Hc51jfXorBceaCHEz8/PL1yVuhdPPXUMXxSUlC+ddnyTNfvqGT7dW9gz6x/u7dWk+6ujPvnzC85eRG0qut4U9mM44VvY3u1AfqO8tzZecVaAhn2z7Z6SowQOvXUtPMCQO/9Ls+dCoGxktrtK2gvQHiC0WhSpgk/EBhP+nmjw/jDgNmGfera7U2UmWD0lcennRcAYuRnHHhlBMw11F2zQnkuJ7JzsGmQGL0wbcwEENFzDI3GQcvGmdbj72Os99JKZ6GFGO7tJyYlVueMHzCOLCwayLEuBvyXdhzJ0VOM+lbpRSoAKWCG0VJocXztz9J28jm86erx9zAwGr50fbQV71gMcGBL65/LsL3LxdeDd/TStggZPMvIhAThwOqYcd0S+lNo4/QdfoxjB/dz7OB+2gZiSBnGe+zR6WPHDu7n+IkzaT5qMmuv0FvpeOEnnDz8wrQxOXm8h/GJOAh70nkwk0SYqA4QJB4D4mFiAHqEeAIwmi4947LzsGsQG2pPLT/ehXcoBFoOzqypo6OEw6BZXBh1idVhh/AgvrDAYs9G6kYsNjOExpnOALXW838WyR0re/A4NKIXX+bCQHDeazMid0r+jmnnBYDQ+xjo7mZiJIA0zbh+rdu7pPFaBsstP1P98rczEgThKiF3ppfPXEWWW4NAP6PzpA9TKBRXB0NDXizlW8ib/L0zHdZjqCXt9cG2Z2b8IE+GHcDmTBqHek7hDTnJ8lzateHweLDgZaxncoVluYeJc4+nlnG6fTofxxQy2MaF897Ja85xsdsPuSXk6XI67vPxQ0fTGmik3kBdg4dw14EUY4zwHeVCtz+lvTC5QvFES8r9xeXOOfcPnTjIQHCB34VZbixAJHQpueVwW6qMUg7QNdOQMCnTVNvmk2k+FuqnZbdjZvlp5FhwDqSTy3eUgZHUspLGHMDmxq7LzOZGTx8TOLFOfWeVleDGT2TmnMuqJMvmJ+xb+TxI6YeSvdPJWafKmjMPr7LxnxoTOXw81ZDqO0pvn1gFPVt8zNPperDtiZTv+rNdPrIa76O2ZP2tYvbaO6nI9aaMaSYIUUjlm++jed+9NO+7l+yh/Rx/5pk5oVuEvZamGdft3Ls3pU8XrWeR+2c+nwECXi8RUp/hkHRynu3yIfJ2JsvZlv7HfqbyTjkaI4EZC6CU/qS0aTX0ZyGUHl35epSOjN7P8+jH0JB3+p28EmQsSGy8g9hoG8asRjzvfJ7C+14j760/TTovEuuXvHuKdd2BoYf6MdurUo6FRttxFl7DWNeLKcfN9nwcBU2MztiFYbYXoIcuLFiHiL/KUw+9m+dq7+LW225kS9MmqnfdxXt33cTux77Awz98eW5InyUgtTK23fUOtlcVku0wT69lzCo3AAYMaXpU948yMjM+mhbBH4wAZiz2GRdmJSfkiH8o5X6hXWTCnz5k03LkQfrwDZDqvups4WxbCXkDE2i6TIbtWIY8ALL3Z/zFR+ZJ4p3mWKb9I7TX+M2xbm69q4rmW+v5P99tBaDgtmup1KD32JN0roaHNtP+sVkxA6Np4vKN+vxADuY0SwQyng9LxWFLxryt/T0+9pm3ppyylFgAC/Y0L8A1k2etmdypEY3MXTYRi0QAW/qVxDJCPErq+AZGmBh3Yg6FkbpEaAIsFoxAIhZImbdCCxFbbHdIRgwyMuQnv7SQqhvewtjIMCH/BMGJi/jG/fOuNpDxyJxnWDwSARwY0+p7hu1dJjIRTpFHaDrxpDUfMVOeNe/PKYEyb6/UbThKanE7nJjN2vTz0+RMhqxa0dPEZEqK4K6nclOqJ1mzGwEDBnPyb6GFCIdikOPABhhsdmKhEYIiQpE9FzBjsQhio+OX+m6t5/8UtjKqtuQghQOXxwmBdjpaule+GmYB+SN9L03GGhUZXb8q7V3CeC2LZZafqX4JbZzRwQmKK7PILnbi7UyudZwKHxX0tqcJJ6lQKK4qJsMGFNZ7GG4bTA3rMQ8zQw5B8scwJH8sjw758UwmsAzgISd/RsxnVyVZNrA23kdz49xyIy5gMuQhoYnlh8BIMYSllhEIBQE71iwu7VYN+QlleP+CjHcyHqqhsPE+dpbPE8Zjdl2ZyjQfC/XTctuxiLww/xxYUK5ZZYUCfqatKlmLzw3hS65grZhcIeqw2WGklQuBOhon5xweD5aQl9FxVj4PprDVsaUhachcMMHpFTr+c0OOJEOI9ZAck6ndLEspPzM9y+B5sFhiQ5KG2E7HPVSU78Heszahc9IhS/bSWA7el5ceM35O6L2GfeT1zC0nbTigJdS10P1TBnpGWi/VOzmHPeVzY+EH257gWNuU7u9k5966GTu2lidvytxR+rO0NmWgP3I8vWy9aRY7Kj1aoJ7LXI9ms/j7eQH9mHR2LHvJodSJ+fuw1bwLa8UdGBzFxIIDXHzuISrf/DcYcxo49JvHudjTutwalsW6OjCi3iO4dr8NoRmm82AMvPYjam/5In7vqZQk3lU3foLQ+IVpB4bQDLgKt+I7+p8Z1RVse5yftT3OzwBb/Xv5o09/kO13/yl3H30v+9sWvT0t0r6P+x/6DLeUWdNmYl/vLTSrKY/o/T7/+KnvJ/+4jI0cF351mN47yylvfhsl3/kqvZRzU3MtmuzixK9fZdkf9YuQtn/EYgZOsVbizFNdUh5HeTN7yueeljK+vvIsl0lb9rp2XfQcnceTW+xWYsxfUp2aTuD8s7TFmykpLCC7OIfcST3WIyOMtB2m8+LYmsizEe3dSNK1V2rFlO66gUKXcZ7n5wIZw5eA0V1MXpqdMVKmOoEDgQAUOrBoboxWA+GxYYJaEIPLhQkDVgtEAsNzC1oFFpoPwppLbtGlrQ2x4DBhnSt6/+ZC7c10vJbLWpYfvthLsHITjvxazB2vEMFObkEOgnHGBsbI9KkqV9GfqFAo1o9UpwPklHuIDJ1K/nCepddTITbceOn89WQ+ipK9NM9YRBjweomUJxNYtvqSq+HHvakGmvnDVFzZ3xZTq8V7ZoZMWsN45BtBJnNgJSw2N0IBP+S7sesF5OQ7mehuIeBzEymfXGHqcBIZWpv+tkw6SeYr+0od/ym5e1OPwuwdxWvEajwPUpxh68DU6nchBIW776Mw5WwyLE/FrNwM8zF04gTZSwyRtyqUlSTzMuTtpHnfzlknC+eNhT988jGGpnKT7NpH+MDKk/6C0p/lspD+zCvbPCg9WgbrpUdCIKVAMxgxGAxIKUnEY+iJGLouAbHm7+dMkPEI6AncOz+Nr+tXmGRypeDYYBuVgK369whNXOCVV362fkKx3g6Mi79FALk1tzDc+jQAgaFzdL30D5TufoDi7e8hHh7Dml3BePdheo9+e/re3JpbEJNlLJXQ+e/zzcev55/edw079m5hf9vy8sPXvPuD7CuzMHbyu/zrv/6I091j0wlG3/jZJ/nQ7mUVu2wuN3nWhY7HOdH1Tkor9/CmOvhh4G3srNKQnYd4poP1NapJycI+IskiF6wuk/L0Pf5RPvNvr85z0eX70TBNIoYOGCwZJJBeS2QCCQiR+piUurbStfnTCAL4Op7jbJtEWHOxu/Nw5pRRUOIhr/F6IuNPMhBevJwrgnXoz6VgrdxOoctAbOhV2s+dJxCOTRuzsza/kxrPIgVkSPDCk5ztGJ/n7KV2x0IBEuRiycrBZAsT9sdIaH7ilS5sTg2LFmHCH2a9dViOnuT4sdNIrYiya9+Ep2Ab5Z4+Ooci6yrHepHpeF2W5QfbGZtowu4uIdf5Chej1WS7BHKij+Egi74fDWYzkEBfHV+NQqHYAALnW5ko30HxDidu2wLxoydD9sxcKemw2Zm5Vi8ZLqiGivxGHDYPlpHWSysLxyeIABabh1VNBjubBeqZkjc8zvzPt3nvz8Fqg8WW9grfUU4/c3QyvnktxWVHJncIknZ1YzIWfHty18Bq/iZZYTvSksEcWF1ZU0k6yDzklEGWzctAD0An46F9ZJc1Qq6f8Y5Jh9lK58EUoVZOnXazZVcNjTsmFjWmXTXjv9iYrJmeLR2bwwmh1nUzdKc3DCdD4TSWB+ckgl64rHO0nithV+NOakta1iUHwXR4ozQOgunE6QusxJ8KTeNZoWE03dgr/Vl//ZlC6dHSWA89EkIghIG4BCk0hDCioyGRJGSCaMhH1JQATYOS4pW/nzPdvTQPUkwaMg1mRtqfw1XUiD1/2/R5Q85mzJ5rMeVuYez5P11BTUtjXddQ6jE/gTPfouiaezHb86ePj3W9yJmffYSuF/8R7+mfcu6JT9L14j+g68mYWmZ7PkXX3EvgzLfQY/MHcW78g2/xlW/t53/eOtfwGQxESAB2V+HcGzNA6hr1FcUIvLy8/994rXd82lkgdSM2i2mREjJgIkAYcDrzUw5LvRi30zDr2OUlz3ohtDaeebkDSRnb911D/i27KdckncceTyayXk9CYaKAwzU3bnyOywnEiK7wN8CSCISIsPw5ftkQ9BMBDNYsjAvF7UvE0QGjZe7yApPFwooNcYEQUcDgyMacIkchDsfqzjWhCYiOEhxqxXv+GVq7J0Bz48ybq8fCaJnTL0aLBYgTj8+5/PJhHftzMaQucbicQICRjtMEo/EZYaU0DMZVkCeWdMQZTY5FLwXA5yOCBWtWFhZDMuYzPj8RowNbtgMTgeSxKdZ6/s9CMEBvywWiWMita8alrdA7u4D8lpI3ULd9L0U5MqPrV6W9Sx2vy618QGgBhofGkLjJKszGVFyCXUiCQ+2Lhs6UugO7zQQEiahcGQrFFctU7O+svEIi3acWNBgI4ZrOQSBdu6kqd865ZmjIC7l1VOWn5tKYqsdacUtKnG3p2s3meWJBp0PqBZRedw87r9udNlbzvPVM5jGYOLewUWQqP4OlfA+lrkv35+/YkVxpOS1HA7V775mOYy1du6mtnZXYWfpS3sNCFFKx41K8D1myl8o8wUT36q8yzrQdSy43gzmw5DIznRvjnYyHnFjznVhG+hjWxPQuInd53aXwUQuVmeE8SJHPd5RTL7cTyd1xabxnzcOrbfwX6r/aErkqerbYmKfT9bxtd6a0Jxk/34+3o2XynlS9zITl3LOq5facYiAocZfvWXH8+YzImgpvNHfeXYqbn8yjkGxDap9PGW6Z1MGlIrRkwmCLI+dSmUp/ps+vlv4shNKjVWAt9UgIkpFZDGgmM7rUkLKI3LpmPPkuQsEA0WiEeDxKNBoHzYhAgnRgmXwlC/duqpfwfnbY7CsL35kBF1/+NuMX/hthyV6zOtKxrjswAAJnv4O56Eaqb/4MHc8+RDSYzK+gx0MEBs/Mud5sz6f65s+gj50lcPY7C5bdPRQmK7+RXXd9jM0vPszpwKRByt7MPbdtwUyc9q7X0tw5RCAE4CK7Euiee4XQdMZ8QSCH6p2b4dTp6RVNjuY/5sbaVZgcLV14dajaeju3lz4xnTjb2vw+dpelKu7lJs96MvD0S3T+bg2VW97Cm4PVaHobx59uZ913F7xyjt74G6jbcjtvrXh8OpG3Vvp+btpig/gZWk+spzyn6YrdSNP2t/KmggP8ZjAZL0Cam3nvQ3/DvtI+fvmp+/lx10r7aXF9WRHBfvyhTdhdxeTaT+KdbwfCyDAhvQxnThV51q7pxL7S3EB+jhH0QfwjK5Aj3IMv2ITdUUNV4zidHX3EjNnkVG/FLRaOsaLl76G+oQIbAQbPHaQ3zWp1ab+Ghh01WILtnD92cjo+vdSNmE1mQCcRjTF7XktnKYV55+gdjUy2tw5PtgnkGKGJFbR3rVlBf642QhPEYnHAhiPXjfRNTDswRNZW8lyr8CwZGyagl+POryW7vZexycTNkjyKm2+myOmj7/B/4w1P1hWcIKJrWHLyMEf8hOIAY0RidbjyQYuMEYxzadnBWs//NMjR43QNFFFXWEZFXSmnzvamXdmbyfxnbDQpf24N+fau6UTeUiuhsKIUl9WP//yM69e6vUsdryW3d/nlL4VYXy/B6hwcOdXkxbMRcoyxPj+Lvh/tNWS7gNAwE2Gu6BBhCsXrnYDXS7icOeGeZiL6nuGs7U6aJmNuy2AbLee8NM62KfT0MdGwAzftXOgh5dkQbHuCs1wqA6biPbesajjaYNsTvBzay66Z9UgfA0cfTRv/ezbDJx+DbfdQOSOsxXjLAQZs+7i02XKUcAimIvwJ31HGqu+heZ+Yri9dbOuuQF1KqIn5Q4CsnMzakTkZz4FlkMncmHJWNFUUMt5ykKm5OhW6jFmGpJXOg5kI31FOnXOyq3EnO69zc/b5jjnnr7bxT9t/w8c5flLMf34J/buc58HQiSOU3XAvzdNx/QdmrdRO1cvMWM49q1fuVPLlrFm7fJLJfGtTrpUzQupMJTGunO/8PPd3UYOFyR1M6b7dJp/hnupGek+eo/UA1N1yL80zDPfhrgMcn5UTZjF5ZzI05KWiPJkwOKgJpT/rpD9TKD26zPVoXw1jYyME/D5sdjvWSBdnzk5gcXrIN/TT1ysRaNhdeThsfpA6mvclzpjeSGPDPezeZMAc7aa7bwJP6eJzSU6GZYwMjS56bTAYxOVa/VFeS9bdgYFMMPb8g2Tf+HXqb/8y/Sd/yEjHwemcGFMIzUBu9T6Ktv0++tgZxp5/EBaJER14/Ds8ufeveXvN2/nUv+zhQnsvE9KOp7Ke0iwT4c6f8pOfzv2YF9pFjr/Wxe9UV3DbF75NVdcESVO0j1OPfI4n25LXn3j6Ofr33EnN3V/nq7ta6BmJY8oupaoiSmdHEFb6wTfwA544dAcfuWErv//wo9zQ2oVPy6OyWmeoR4fUvJ+XnTzTZG/n3s9+mXQ56b0vPMz+36wwjvvFn3O8/V6qqt/M3qgRve0lfnOROQ8buf0P+ehbG5jaK2IsTK4EyGt+kI+VTsW393LkG1/hpfFlvCyHf8BPD9zGn7xlC/d9eT/Xne/ERxaldXXkWWP0PfkIT4/OlWvNGH2UHz95K5/6nd384VcfZV9bNxMJK/lVDZRlGxg5/HMOXli5PJnqy/LLH2Swf4yC6mwK6+oYOdmafvVw/Dy9vdU0lHuo2P1Wcsd8xDDjyM7FbEwQ7DrN8EyD75LlGKXvfAfZ19TgLLuWLWXJ47r/PIP+LDy589/rLizHYTECWeR5Sugd6ph7kb8PX6wRZ3YTjdcX4vMH0aUBozUbZ5YVGe5mOJ2qTISwb76DRt8oEczYXTlYzYJo/9mks2eZ7ZWuRirL8qafjsKWXCluyd9NpWPq2RtkpOU4Pn05K3SW359rga+ni1BBHc7a29iaP0wgIjFYnDhcOoGJOKx0MUG8lb7OKpzVxVRddxcBn49YwoDFnYfdIoh6zzOSEtZn8oPOmYPmH5jcIDpKOGSm0CUg0J26aXSN5386hBZnouUVRrOvJ6d4B6WD/fSOznU+ZTT/oy309lRSX5FP+e67yB0bJ6obsLrzsZkhNnAGr3+G/Gvd3iWP1xLbu4Lyl0S0g7GJzTjcVXgSGnK8h5HZScxnIXUbOXW12IVO4GILocs4PrFCoUgl2PYEx9tIMXAkw3bAzN87QjtH2zPnUo5NJaCcyfG+WWVN30daI0q6MmYaqNOFlJgps2DGNQutUO17hmNzYk+nXj988jGG5yln+twkydWSM0pKI+vse9I5g0LnH+dYyndvZjLNPJ7SBzNIN7aLtQOSfXW8L1WW+eRYbA7M7YP0ZaWTdaG5Mfea2fP3KOlYyTyY3ZaUsozMmYdX6vgvRPr+W+x85nqW8fNgoWdEyvMnfd/MkWWmtMu4Jx2z+z9duenGCObO4bT9Mquc5Z8/N+94JOWe8QxP8/dy5JnDpHF3ZogopT/TR+eVfTaZPDPT1qv0aBXOr74ehdp+ydl+J+GYREqJJnTisQhCSoSQXDz6Ey4C2qQTRDOYMET9hNCRCZ1o7285fVGjvriMbfWNvKHJwQ9feIYRgwGkPv9cyqpMhmWcL4ToDA49/ys+8OFPUFJaSiyaar3t6+nkR//x1QXv3wjW34EByKiP0Wc+hKPpfkq3P0DxjvfgHzhJ1J/cjWF25uMs3IYmIXDmW8mdFxkkuBT6Mf7zL/4Xg+/9Q/btbqS0qZlqESM42sOrv3qKn3z7EdrmMby1/8ff8B/Oj/O23TU07bBgEAIpx/A/CUxO9Mixr/Dw1/y89+691BZtZktZhImL5/jNN/6Rtmu/TtMK+0VoPl76+hdwxz7C7c21VDRtJTTUytFvf42em75J7azrLzd5pu9zVLL9usq05y70OiCjx91CcvXxzOFzvKNuEw5bgvNHfsFIOuUs3caea3dimLU10FW1hz1Vyf9L2Yn3EXhpvpDkC8oR4eQ/P8hXhz/GO/btoLKpGRMR/INnePHA9/j+f/520bAdq4nQ4rT8+4N8efhjvOvWXVQ37aRSD+EbbuXFp3/MT374dPp+WgaZ6MtKiHQep9/zJorzd1DblKDjXAfROY5HncD5g5wL76SktBB7biEOEsTDgwy3n6arp3/lKwBHj3L6aD/5RcXYTRAPDjLc24Fz83yzP4l/oIdgdgVW/IwM9qe9RmjDXDz+HPGaTeTnZeMuyEUjQSIWJjx0noHWV9M7CvReOs6MU1lbidtmQosH8fW10nW+c2XttReSW1g0/RKdwpRVQl5W8v9SjhHuAN9y83Issz/XAjl+gtZXY5RVleN05JPt0on7h/GefplAwW0rXnEiNJ1gxwHORnZQVlqMI7sQhx4nHhlhuKeFvs7elOeD0MYJhxIYnWaiwbHJj/IA4XAcY5aZ6OD4rI/RdZj/6dqld9HVWo5rSykF9c2MHj5CcJZuZjb/dQKtBzkX3kZJaTGOnELsiRix6DDDnWfo6+6bDou4Hu1d6ngtp73LLX9p7Qgx5B2mJKsAo1HHN3hhwXIlDrKbbqIy34wMnKe7a4J1382oUCgU6810uIgWruhn3tXSDsXyUOOvuAxIhkCqo3GBHAGXJUp/FGuFpmEyW5AGC8QiaMQRMoGQ6aNOSL0Aqw0iQ6PIyWsS8RgYTVR5iti3dRdWq43n21oZCfgJheaPU59fXQPdmYVVfPXIs3x9fJSGzc0YjKmugZHBgeR/ElFya27CZC/C5Cyi/Jo7AaaPoa9vwlbx5tvulNHhlsWvXCsBjA4spTdj8uzBYEtu6EqEBoh5jxDpfRYZD2yYbAqFYuOQ5ioqd+wiz24gERpirPtVunoW9ySvB3nb/gcVuX4uHn6C/uD6yCPtzWy5tg7z0AlOvLawx/9KYyP6U6F4PSN1DXvZdZSWF+OyGdGD3XSeeIGxqNI/hUJxdWGvvZMqjnB6MrSD1Buou2UH7lD7nGSdmZK37R4qbMu/fzmsRTsUy0ONv0KRynSi49CJtGGmZqL0R3E1ITQNg2ZAxHVEPJb8v8UKFgsJYSQeCaDHwkg5fwh+WbKX5gb7dKg1ITRynE5yHG7u3NbMXbuuJWG28LPDhznX18mFgV76R4YIRVPDFq+Fbtnq7sVacUf6k3qMwOlvEfWm3zW5mozEXBQVlWzMDoyZyHiAcOcThDuf2GhRFArFZYSIXqDzqI9A3XaKi/LJ8+QnHRgbjNRzsFoFyBCx9UzSPsVVFpt+w/tToXhdouHwlOOyhPH3vUZXawuRZYSGUygUisudYNsTDGy7FI8dZsTEvoKMVldLOxTLQ42/4nJmsZBDG43SH0XmiMm82wIhQZc6mhBoImmESegJhNCQAuwjSsMAACAASURBVJASg8GIy2QlNxLC6o9gtdiIGgx4YzHiDvDJBPNl+7TX3klThQtI5oDp9SXryXa6uHlrM1tLKqnOEsRCpzEIE2+qKWVvw1aePf8aPz/yG/qGvCmOkYVClC2XUOt+Qq37V628lbLhOzAUCoViMaSWhdul4RsdWdePDKnbyK7dSbZ16ojAaM/H5bKQGHqZUydbU8LcrKksUzswRk5wYpGVLZcrl1N/KhSvZ6SuYc0pAV8fEX2+z2qFQqFQKBQKhUKhuHqZzNCBQdMQCAwmExazBYMOoXEfLpud7Cw3iUScocFhDHYLcU0QExIR1fGMR3jbiI8SJJomCAjwGuCk1UlrgY1hLYEeiSwiRZIsp4vrm7Zwz3W3UVJQgIy/QFz+CpMTdP9eQrEmfnHiNX526BlGx8eYf1/H1cVlswNDoVAoFkPo4/jG2YAVEkZs+WXkOZP1SpkgEQ0SuHiOnvPK2L50VH8qFJcDQtOJjPdstBgKhUKhUCgUCoVCsb4IDYPJhM1kxqVruENhnGMBsqIxXEicmoZFCrR4AgM+TH1eJDoxHRJjGkFNY1hAIAEOfxRHXMdu1DCgY5ESW0TD4A8QtpoJ2AWZBppI6AnCsTixSBQZGEYYLqJZB8CskYj30j3o5MJAP75A4HXjvJiJcmAoFArFPAjNR/+Rx5gnLe/6yhI8xulnjq1rnavN5dSfCoVCoVAoFAqFQqFQKK5+NJMJs8GEPRol2x+iIBHCJUzYpBFzTGKICizSjBEwINCEEZNmRMbjJKJhDELiMBowhBPk6jGKZIJEIoE1lsCtCTRdQ9M0pDAQTWgYwjFkMELCYsrY1BGORmnt6+bpV4/wlqYGqkqK0WiG8QgWcw0Wiws9oROLx9a0ry5XlANDoVAoFAqFQqFQKBQKhUKhUCgUVwdCYDAYMMcS5ER1ckhgjxlwRSy4pQGTyUHc6iaQ5SJktxM2WggZDUQ1E7pmBDSElGjEMcgoxkQEayyOIxbGFQnhjASxhwKEwz4C8RAOPY4xIdFJkEBiDkZwWkBzGIiZjMTjUVggoXc8HqdvaJAX9FPsrKim0b4TX6iIi90XyC+uwWIBq+n1a8Z//bZcoVAoFAqFQqFQKBQKhUKhUCgUVwViMgm3SQocmpUCGaNsLIQ7puNzFdJfVs3Jokr8hWVEc4uI2bNImE2gWZCaAQwCKUAgQQqEFKAnQI8j43G0eARDJIg2MYpxsJ/s4QsUjPZRMeqlxj9MkSmIx6Cz3RclOyHo07IYslkZjceJCYkuJcwTBEqbTBAeiEcZDwrahgz8+twwdYNniQmdgbHBde3LywmVxFuhUCgUCoVCoVAoFAqFQqFQKBRXNEajCbeu4fHFyArFwVXCaHETw2WbmCiqJpZfCA47mM3oBhMCA5rUSegSPQ4yoSNlAhGXSCmREiQaCIHQJUJIhAYCAboOehACE5hGB3ENdVLUf5ay/nYK+/pw+/0kkPTZTXQU5zDgMuEjSiyWPrG3AAxGI9trGinJKcA7NsKpzlbMRiNSQDASJhKNrm+HbjBTSbyVA0OhUCgUCoVCoVAoFAqFQqFQKBRXJkJQ4MomeyyEcTxBrKiO8bIthCu2EvGUE3VlEbfYwWjEkJDIWIx4JAExiQzHicdixCM6MqYjSSAkoAOJ5I6MpBMDhJQITUzu1NDAoJOQOkiJUcaxRnw4Jvqx9Z7F032GSu8FSgKjWEwavRZoL3DizbExEQ8iE4m0TbFb7ZiNRqLxGMFwaF278XJjyoGhQkgpFAqFQqFQKBQKhUKhUCgUCoXiikIIgclgxByIYjMY0R21+MqqGW/YwVh5HYnsEgwGMyIaRYYiJEJhYqEYejhKPBZHxgQyliAR15GJ5I4LpI6UOgY0JBopQZ+kTOblFskjQgMpNITRRMxkI2ZwMObORRoK6XFV01PQRlX/eeq9HeT7RnAl/PRGE5y3wqjDRELGQU8NKRUMBwmuXxdeESgHhkKhUCgUCoVCoVAoFAqFQqFQKK4YjEYjZs2EKa5hMuTic9YRabyeQEMzibwCNCSGYAzdFyDhjxIJRoiHJIlIgkRCR+o6UmpJp4QQIAxIPY4eDZOIhzGZrGgWG1IzAWAQOhr6ZO1i2qshdCASg0gUKSXCYMBgyCFckMOFrGp68+pozz3N1v6z1A11Ud0zjtVlorPAxoDdQFCTSD39bgxFEuXAUCgUCoVCoVAoFAqFQqFQKBQKxRWBpmnY7C6s2IiNaviabia6cy+J4grAgCEQJB6KEh4OERuLEQ/HQdfRMSEQaEIgNEDqgI4mQAiJHvMT9vUiIn4Mjhws5nw0owOpG0hIDV2IpAASmPq/kKBN7shAJE/KCEZdQxhdJDzX0J1bTX9+Pa1dx9hz8TWafL0U+cc5XZ7LhSwTPqlPhqpKn+D79Y5yYCgUCoVCoVAoFAqFQqFQKBQKheKyRwhBTk4+0aCGV/NguOl2aGxGOJ2ISITweITISJi4P4KM6siEACkwCnAahsk1Bsky+3AY/Di0MGZjBIddx26OY0z4SQRHMcgYZrMFi8OOwWzBF7bzfG89LYFKQtKKpunJnBh6MsCUkAIQSMRkWCmdpCMjgZACg2ZHL9lMR3YhIwVlXGh/gebBTnb0TOAOmDlT4CDg1AhHIkipL9IDrz823IEhjA4spTdj8uzBYCsEIBEaIOY9QqT3WWQ8sMESKhSKjURqLtzF9eRZRrjQ2gGa2GiRFAqF4opG6kay627AEelg6GI3UV09VxUKhUKhUCgUCsXljxAabreLwXFJpGgz5q370Cq2Iq12YuNBIl4/sfEosYhMhnbCQAIjNi3EZlcrb990lNKcUezmCBZTHLOmoxliGE0JjMYEGnHQ4wgh0ARoJg1BgvEhM2O+KB0hD75EFnYtgZQ6ukhM7poQIDXQJfFIACl0DEYLmsEymTdDgmZEdxQyVmbnFXs+wx1HuK7nFapHBsmKxzlbmEWv00woHgVdOTFmsnEODGHA0XQ/jk0PoAvwD5wkMDEEgNlZhnP3nbh3QeDMtwic/Q5IFQtMsXxkyTv58J/+D2po4Rdf+QLP9StjzZWAMWcblY31ZNmMyJETXNhogV4nSHM1lVsasTPMxVOHGY8qfVEorjZMriKKKkvwlA/Q33KI/tHQRoukUCgUCoVCoVAoFPMiAIPBSEC68BdtxnjNLRjrtpGICyIXJ4gOB4mO+YkH/CTiUYwWJwaLi0hMxyVG2J5zmtu2vEJBng80khm4hZhMYiGToaCEJHlyqlIJUschDORoF4iMtjIaiaLbrZgsVoxmM5owgAA9HiMW8hH1DYJBYnbmYbLlIDAky9clBoxIay6BQjstJidRq5NdXceo9vVyTcJHIt9Mv9tEyCggvna28OqGbTRsbsZgvOQaSMTjHH3haYa9vWtW73LZEAeGMLvIvvHraNmb6H3lEUY6Ds5JViI0A7nV+yja9kHMRTcy9vyDyKhvI8RVXAW43/RWbqwrBUrZd/P/x3P7BzdaJMUiGPOvp2FzBRbdx3Dbq1zs6Va7L9YJQ2Et+dlZQBaewpOMd0c2WiSFQrGKCC3O4KtPEim7hvKKMoqv2Yf59LN0DaldrwqFQqFQKBQKheLyRAgDwpbLRP4mbDt/B1NhPYlgnNDgBOGBMDKSIB6JEA0OEQuOIiw5GK0uEnGNHFc3DTndONwRsAC6QNdBl6BJgZBJp4VET4aBmkrWLQwIaURioiRLp8k1iCEuiEXNBGNW4kYXmsmJ0WQmEQ8Q8V0kPjEAJgsGsw2T1Q2aIRlNCgFSRyQkJs1EoqCB81Y3foubUMcLbBm5QEMkiiayGcgyEzTG0OPxVe/Ha/bczAc+/Am6e3qIRaPTxx1OBzftewvf+MoX6O06v+r1roT1d2AIA9k3fh3dWkTbU58mGhxKe5nUEwy3/QrfxRNU3/wZsm/8OqPPfGjRnRhSz6L69g9x9x17qCzMxWmMMjHSR9sLj/HDH/w3Q2nCJEj9Gt7/zX/i1qJT/OB3/4inLkMj6W1fPMB7rxnh4F/ezXde23j50skj9ffxFz/9IE1ifvku/OS9/OX3utZLzGkmXnmZ1juqqaCdV094SfptFcthPfRFGhuoaqrAoo/R98oBBnxx1JitH4mRPnyRLByMMj4cZqP7Xuo23NV7KCnJw2Y2oU3OOTl6kuPHTivH1hogrdfQdP0m7GOvqj6+ShG6D1/XC5we3Ubj9ibymvbgf+kgI3E11gqFQnGlkLftHips7bS8eITgWnyTu3azZVcNViEIdx3gdJtaBJa37R4qOMHxk+c2WpQ1H3+F4kpF6cbViRAa2LKhfDuFt94HWTX4+oP4u0cID4choaFpRqSeIBYKEg/40GIxTKEeqrOM3FA4QV2+H6MuIaahI0BKtMmk2ZeSZ4tJC4g2VTG6rmMEbt5SRnV1Ha1eC691DvLyhQEujEDAUEDMkoOMR4kFhiARwWBxYtAsCHHJ9C7kVE0SdDCgYXeVMVRj5TmzlYnWg7xxqBvTxTBGo4mLuTZ8icCq58S47sZbOXToED/+8Y9Sjmuaxnve/R4++qkv8Y2//yu6O1pWtd6VsO4ODEfT/WjZTbQ99ZkU54VmtGHLqcJocREe6yLi7wcgGhyi49mHqL/9IRxN9xM48+/zli11I5s++I984m2VmGMjdJ8/xYW4lcKaBna/83M01Rfyhc9/jyH1AFtTZKCTk6/1Ek1zztu5Mas7xZlv8qX7vzn114bIoMgMqWu46zfhMibwt7046bxQrCcicJrzL5ye+mtDZQEwFF9LdXUhWmSM8UE/+tR3RWBsQ+VSKK4KfCfp6PKwucZDSW0pw2d6Eeo7SaF43WGvvZOmChcy2LagwSdv2z1U5gnGWx6lrU89KzYSqRdgta1l+Q3U7aqB7oMcU46Ly461Hv8riZmOtplk+pyy195Jo6N1SU4pqRdQdsM+PDYvXQcOMjzPM3Pq2Zpyr/Thfflxen1iwetmtsFeeyeN5cF561rs/nTXLuSUlCV72dVYeOnvWe+GpdQ3XcZUn4XW1gGodGMuV42OlLsZt+XRX7WN8uu2EfJBdNCHFtMxahq6bsAgdKQmiCZ0jIkJmoskd2wv4/rGMkrd/Vj1swgtgS4TTMaQWrgdIhlhSuo6MpbAanKyqcJDY10O+5oLGR7xcbp3jJdaxznc2sZ5r59gOI7VloXZlovR4kbTDOh6+sX4yR0ZMTS7m/GqXRw2W+D0r9k92E5N3ygh4SSRbScYCi7qxFiK485ut9M/4J1zXNd1vv/II9x333188vN/l/becCTMiWNH+NF3vkYsls7yuzasqwNDMzlxbHqA3pM/SHFeZFfcQOnuB9DjIeLhMazZFYx3H6bn0DfR9SjR4BD9r+6ndNsDhFr3o8f86Suw383bb6/EHDrLjz7/cX7engx7Ih17+dDDf8lN19zNO3Z/j38/th6tfR0z9gr7//phepQBRLEsSsjLsUCsl/7OCbXyW4EjOxsDMUbOP0Xn0Kz5oOaHQrFiIl2tjFVcS05eFW56UQE7FYrXJzLoI2LzkJMFwTQPAunaTWGun3DQuf7CKeYgtEF6Dz1GL6zN91CWGwt+xr1q9/rlyJqP/xWHn4GjqQbPRQ2TM4y6cnhptTnq91BoF0i5+LVSDqQYcO21d9K46y6YZaBN70DOfGwzuV/qBeTkOxkfHsCdX4n9vHeOoXPKWdL560enZZYle9lS70lxeCxVXkf9Hjy003KiZU3nrNKN+biydcRsAG8kSr+rAGtRDehWAoPDaFKQVeBmTPcRm9DxjQ8T83XSmD3BnW+s5qYtHupK8inIyYHEGMHhEELoIARSikU1TEiJkAKBQP7/7L15eGRXdej72+ecmgfNpdYstdStds+jB8zg9oDBJiEMF5splwxwCQmQ3IRASHIJee8lEB4BknwZSN6FEAiYhITJxr4mHjEeut3dbrvbPWhojd2aVaq56pyz3x+nqlQllaSS1KN9ft8nu3Vqn33WHnVqrb3WEgKhCJxuD5rHi98hqXUJGqu97Giv4Y3bIxztm+JnZ6Z4cShFLBlHy2TQPAJFUZDSwHLyENn/ScBASolAQXNUkWrYxWFTIJTH2Dp+kh0TUV6qrGSIGCt15eSxR3HfdJD2TQPr8piU0uQ73/k2zz77DKJEhB2P18tb3/pL3Hr3e3jo+19f83NWy2U1YDgbXosEpvseyV/z1W6m9caPMfjs3zA78JQllKeSja/9JE37f4Wh5/4Bsvc07nwPzobXkhx8sPQDmlqodYBx6gnu70nmNysRe4yfPHQboeurSXgcgI4038TH/vUPOOArHIztvPcHT/LegisLQx5Js57t7/wQv/D6PbQ1VOIyE4Snhznz6Le4798fZ7pg+svtf8Bf/umbqH7xq/zRUx386ttvpLXaRSY8xrnD3+Ub//gDLiwIaSWdO3njRz7CnXs7qXGbRMfP8PR3v8DYEqt+VfKYe/mVr36Jg3XH+dbvPUbb/3gXe9pr8ZBgsu8QD37tL/ivs8VJPFcrz2pYTf9I83p+7Z++wBsqT/PdD3+Q+6cX9Fvtr/PZv38/HVMP8/988P/ijCKWGOOlw1itqX/MOna866O89eAuWuuCOEkRmejn5CP/wjf/7SmiytrmQz5Mk/kA//vZdt5+dxfayCP87z/9HjW/+Vnevqua1MBjfPNzf8ah6cIxrmDTL32Ud96+j/b6ClykmD1/huMPf41//dFRUmuWZ23rZU0EQnidICcnVlSiSdOFr2UPjU0hvB4XijTQkzPMDZ9kcPhC0QuLNKtovvEOQp4xBg4N4t18HVVBLyo66fAIo2efZzZuLqg/QOWmvTTU1+DWwEhOM9V/iGTDm2mrjjP23P2Mxtf+UiQJUNmxm/pQNW63E1VIjFSC1Nx5xvqPMxuf9z6R3r1su74L5/QxXhr20tbZhs/jQNHjxKZ6GTx7ipS59vZKs5n2172GGmdxe6K9P+TM4OLkvtK3n20HNuKcPsLJ85W0dTTj9aiYqRjx8ZMM9A2gL3phXlt/KqoKGBiZZfpyTePrwteyg4YNDfh8LhRTJ5OeIzJygtGhC+i5F3azgqYb76Re9tA/VkFzezUiMkD/C6dxbnktzbUezMggAy8eIqIXjoGGu3E3zU3Z+jHIxKaYHX6RkfPT+fkpq25k564W4me+R++oiaSLrjfsJSjHGHjiMaYRyLqb2bWtltkXvs/gjCiQ/9LN/6VwNt3Clk0hCL/EqedPkF7jFwNpuvA276SxYcN8/6fmiIy+zOjQaL7/i8frUq738sZrraym/tWsr/zpJtckgz//L6YWhICS2nVsvnkH/mQfp54+RKJUO8xBInP7qaquJBCAiJ0Kw8bm1YknTmo6RKijm5ESpyx9oRCu6Thz1bYB41VBwI/rSstgY1MOAT8u4iTDFOXdXQ5v5110145z+pH78Oy+h9ZVPE4G9tPeAuGpCMHq1YsbO9vDXMtuKkIhRiKX2bupeZt1Iv5kFNe+jTQ0H6J3dP5jaW6mocVPauhQ0Yl5MfoYJ0tUVy65eufO3G+HdLoSXMNrZDQygaJqpBUXk/6NpOuvQ04b9I8PMXc+jJmyDAyZtE4kPIkaHeSGhgR372ng9l2NtNVXgS+IqWgkZk0MkpZLBbmf5XWbuVK5X0wBpseN6Q0ghQKKRoXLoCLopasuyLaWKnZ21fHsy1M80xfn7Nw5wuk6PMEanA5LBS9Ny4Bh2QaswFXClChCIJyVRJr3cMxI49GTdM+dpWV0imhjgNlMHCOzdIQSoUwwPDROaPM2as4u7fVSDlJK+vr6lvy8pbmZru6tPLTmJ6yey2vACB0gMvZSUcLu+u3vZLr/0bzxAkBPzHLuqS/iq9uSvyZNg8jYSzhDB5Y2YIyMMWtAfV0LHQr0Fn70gz/mz35QWHic/uNHcboBnGzo3kbIE2boWB8zBaXGRuYVd9IMsPdjX+G3bm1ASYwzcOooYdPHhs7N3Piez7Kp5fP8wRd/UqQkBsD/Bj70gQ1o/T2cGg/QvKmLbXf+T37fE+dTf/lwXvkjzQA3fuyzvO811cjkBOdODRFRa7npQ3/E0PBid6M1y0OQ1/zWB6kUvfSeHCfQuIn2Lbfyy39chfm7H+fRibXJs2bK6B+hPMfPjl7gDXdsYt8dbdx/X7GSvPb2G2hTYPzoQ5zJt/cCZw8/DW7rN61+O3vag2UIVG7/eNj5m1/ht+9oQktN0n/6GBEZpKlrKze9909pq/tT/vhvH1+khCt3PgDg3sXrd04yODjHdV1v4t5PN5JgjL7zfq7rehPv++VnOPTlR7PyuNjya3/FJ36hHS1+gf7Tx4jip2HjLm75tb+go+bT/MnXD2GuSZ7Vr5c143GjAXomsqzCUJoKvk0H2dwSROgxojNj6KYTb2UdNZtfi8f9M073XChRh4ua7t24xAzRqRiarwZ/VQcdu730P/cYs3pufCW+Ta+loyWA0BPEZsNkhIfq7teQugjKPUv+19HR4ofULJHJSXRTQXNX4q/roiPooe/pnxFeeCZAa6T9ugrU6AxzKSfeQBWBxt1sUhK8dGJgze2FGNGJYVCt34QnRHVFGV9b1VbauwOIuWnmki68wSqCrTfQremcODUyr6RfRX9K00dl1y4qs493BCzXzmDbzbQVGjFi/QycG13Q5nLHVyOw6Va6WgKQiRKbHSNjariDNdRsej0B39OcOLUgcbwaoq4mTiySpKJiI607fejEiEWdBCo20rZxhJfOnM+Pr7fjVjZ3VCIyUWLT42QUDW+gntB1tfjcj3Omf9KqPzJHCoHLXQVMgS+IS2Yw8OH2AnFweLyoxIiHC+fPpZv/SyG922nvDKFmxhk8sR7jhYKv6yCbWoMoZoLY7DjpfP+/lmDwECdP9Of3q0u/3lcxXmts75rqL2N9CWWC6ckIoZYaqhv8TA0VLyhHQxM+AanJ/tLGC0AoJqlUBnDj8AC2AcPG5lXLbH8frn1dNAVOF58MNjfT0ALjz4/irg4V3ZMzpNZ7s3tqwUnKpcIZLLy+MLxF4cnewrAjp2Nd+VAThc/Jl2H50AmlwmgsDKGRk21wMkTbgrBaC8OqJAePEq7dvWxIFGlupuvW3VRkn1n4vHw/nIT2wvZPHS2qbymZPLvvyfdjjNCK/ZSXaYV25EKFAdTvv5dQNpxHsuOeknLknl1qDuTlZ4Fc2XvZdPfysi4zN0rNryWvFeStWM88WEiur5KDj3DiLIvm4bU4/iuxsE0LT+Kve52Vsx+ssNZXIt77AEd7AUWwmmhD0qyjeasVWu08B9aknL2S1NaGYPoYk+EZ3ImNhGq7YXTxmLt8VcBFNK40NxJM9HF6mLwC3V4bLGr3cm1aaW1cbK6WNSKEwO2rJB4ModdsQmgBwmeniI1HkWkQKEjTQE/O4oj3c2OzzrtvbuLg/ha8fi+m6gZfBbqRxiCFEGkrl0a57cn9V0qQCkJxgNeFqAiC24VMxdGTcUQqhVAVGusqaAxVcqCtlq3Hz/HQi9McOZ9mOpzA9NXhdPpAqCDNvO0kN3pSSsDE4w4w27SXF9IJxJko7eOj7NjaTd/kIEOKRJrGkvMkNnyC8ZaDVDbD1GjJJq0JqSeRmFYSddWFYRioqnrxHlAGlzeElGcD6WjxJuip2sh036OLyqbjk6QHfrbg2gRu/4alHxD/Pj999u10v+ZOPv45jQd+8D2eePok8RJOQUI5wo//4gg/puC0u2eYJ//k40snJQ78IrdfX0lm7Of8y//6FE/lFNkVb+bjX/oU+25+B2/8+k/40UzxbaLZS+/n3883jliaJ63zw/zR//1uOm5+Gwf/9mEeyoUMq383b76xGuIv8e1PfpyHRizLmmfvJ/mjT3RdNHkQTSgn/oDf/6fnSCsCqbRy52f+jvft3MubfmkPj/7jsbXJk6NyF/d8+vOLc2CM/JS/++eHFyn0y+2f048cZvyOt9Bx4G5qvv238+6MZiOv39eJwnleeOQ5cstfKMd48MvHyJm7Qu//WnkGjHL7p/bdvO1gE1r8BN/59Mf4yaDVP0rTL/PJz/8aW259L2+873EeWOt8APBe4PEP/w6Pp/fygX/4MrcGhvmTD3+OPuc7+L1vfJyd7TsImY8wrgiouod3vqkdx+yz/MPvfYKfZz0zZPUv8tv/7++y967/zm3/eYiHI6uXZ03rZa2oGgqg6yucBnd209QURGTGGXz+CaaSVnnp3EzXgd0Em7dRc+4CUwurEQHE9GO8lFUWStNDzc47aa/bwIbWamb7sgOmdNHQFECYM4we+S/Gcqe1K/azZXflRWhoHdV1foR+gf5nH2c27+2iEey6mZBfwRWAhW4owu8h8cKDjISzIfKcXXTt30uwfguh3gHGFy68MtsrlBmmzvycnGeo1npHWQYMEXASfeF+RsPZkwDurWzavx1/w2Zqzozk61tdf2r4apupWeA95a5pydkjrbbPzFgGjDW0F62dunoPZnyYgSNPEc4pspVm2m94DdUNW6jtGWKycP5ocSaeeZwZs5qmG++g3hGh99nnSSoddLz2eqr8tWhm1nNA66KprRIlNULfoZ/N16+10nHgRqratlM99BjTJpCeJZUGjycITIHfjzM5RUSErDkQB4/HC+kxkjrWS/+lnv8lkNTRtK0bn5Ji5uVnmUqvY+1r3TQ1B1EyEwwdfZzJ7HyQSiNtB26mpv46QgP9XIhny1/q9q5mvNbU3rXVX+76ip+/QKplE766DrSBFwu8hzxU11YiiDB9fpLl3MRNXQccKJf3PdTGxuZqI3yIsel7qF9wMti3qYvgdA89YVj4LcC3aRucvI8jkXnlYutNB0g8fYjJyXFaNxeHpbJCUcHcmXmjwN7NXsafv4+TBXV030RW+WQhavbQHnuEI49O5JVErbu7mSozJndOMRU+/R1OjhYqk+5hq+fRonALwttJq+8oRx7N1q2IfJzuhUq2Nq9AEvMDxAAAIABJREFULnGGJyenqyCPRE3nAbzmvMJJeDvp3trL6UfuK1BQ7WbPTooUZqVkKqVUWqmfymnH1PHvMpkfl1wID0HNEnL4OpeeA/l2FsqVVcJtua0TOWXVVUrWlebGwvklzc1UVgMUXrPi4c8NnQbEuudBYZ97O+9akBOm7hUx/suR67/k4CP5NsnAfpqbIT66/nVW7n5QiM/jRYgAbbfdS1v22qXK01O7O2s8OTsOm9Zax26CjDN4dvyyhjia33tPIxTBzGSUUEuxwVooZ5id3k1FzZ5Fc3A91NaGIDE6r8i310b+84u1NpYzYlyra2SoZwLF5Uar24jatpWMv57UeITEeAwlI5CagpCCVHwWJdzPrZ1JPnjndezpDKG4NAy3H8UbQDjdmJFZpD6DpqVBkcwn6l6JbCkJwlRQHH4U4QApEZqK0LwIjxuppzETCfR4AlIpqoNu3va6Ldy4NcpPDg/wjSfOMDAdhcp2nJ4KFEVkc1rI+Wdkk3sruonbW81o2z50M4nn9GP4fvYyHbdtI3r+HNNJ60tyqXkimCCZYEnj5GqRpo4+N4Q05hVNijNQVmiwi035ZqdrAKFEePbL/4t/fe48rk138J7f/wf+5l++y2c+/fvcsbOR+cyva6w/9i2+8Mtv4sO/8Qd5YwGACP+E4/0pUGqp7yhx3/DT/PjwfLLZzNmv8UyvCWo9DZsLCm5uJaRA8qWH8sYCgPjhb3BkdLFGYa3ywDDHfvRc/uSsMAd56KEjRKSkrmX7muXJP9/Xxq4bXsOBBT/7t3dQ6q6y++fln3D8PCjtN/D65oLr9W9hV4cKo4d58tSSYq2CMvtn5yYaNUiceChvvAAwR77BkycSoLXRuWsd7QVIzjGTtmSaiwKxsHUOIj1FNAk4PXhzZXdtodkBMy/cnzdeAIjpH/LIC9Pg3EjXjnXKczVRWYVHAWPmXF6ZCSDSZ5ic0UGpxF/S2h9hdmT+pLNQEkyNXCAjJW5/wZcOXwUuBeTsIGPReY8jOXOCmchF+kMvACmgQGkpFJ1I3+P0Hn+S8VLPiQ4zNpOcL5/uYXw2A/jwlLTPldnetRIZZnxm3i1Cxk8xPSdB+HD7Csqtoj+FEmb0ue9y5NH7OPLoffSOZZAyyfiR7+SvHXn0Po4ee7nES3957RVmD/0//w+OP/fzvDLZuj5MeE4H4bWMB4UYSdImQBw9A+hJMgBmCt0ANMf8HldZg1eBzGRfcf36IOOTCVCq8Ffkrs6QTILiCqCZErfPC8kJIkmBy1uJNDVcHickwuQzQF3q+b8Ay2PlACGfQvr885wbiy9Ztiyqc/L3540XAMIcZWxoiLnpGNJRUP5St3dV47UG1lp/uesr2sd0HESgkepCK5+znYqgArELzCyRPszGxsZmIZOT47hatlGT/e6UD/0xebpk+XjvYwXKLyt8AR6/pUAaPsF4wk9FaN5rwxcK4WKc2eHsSc2WEHNn7i+u42RfPh9HDhnv5dzZ8WyZM5wfikJ1IzWmzMc8P/rs4ZJKHGlupmtziOTgI0UKGxE5zLmhaFF7IXsy99jpovsbWvyL7p889ihj8WW+Y1YEcQGpxHyizKneYhmlHGOwUNGflSnXtqVkWorl+mnN7Sisv4Qcy86BUnJFDjM2XVyXpTgFPEG8pixvbgyPMocfd+6drbmRIFFShXOuoo0KT5RkZP3zoKgfGm/JJ0LO1bVoHr7Cxj83JnLqaLGyNXKYkVFxEdbZymNeaq3Hex8o+o5wajBCRfe9dDZeXA2bt/MuWqvHi8arHISop+22e9l78B72HryHysn7OPrYY4vCuwhvJ1sKyu255Zai/lrxOSvcX7j3AsTGx0lRvD+DZcA8NRhB1Oyx6tlZWilQrrw5I2IqVnBQyl4bRW26GGtjOa7VNRJ2OHAGaxmv6CLtrcGImaTGIoiMQFUEmlCJR2cR0QFuak7ykbu2srOjGs3nRVbUoPgCWM4WEow4wphBdWRAMbCUMGW2X1glpamiugOgOq17pYGQ0ooF5XCjBKoR1fVQWYOpqai6QWOVh7e9toM/fMcWXt8UxjF3hlT4PEgdFAUVLI8QRUMRKqoUGKiY0kDz1zHbup9DLXvRMybqZISgOa/GX2ruT06O5/+WrhWZiZMJ95OZ6UWr6Cb09qeov/clat78fct4YVy+5N05LqsHhpm4gNPbXnQtMdOHv34Hs4NPF113emvx1W1hpsALw+mtw0ycW/YZQn+Rhz73Hp7svJvb77iZbVuuo2Pf3bxv3+vY/93P8IVvP784pM8qkEozO+9+K7va66n0OfN2sooWFVBRS/SoGZ1hujB+oJIiGk8BTlzegoIV1kvedHSy6H6hnGcuukTG+jXIg4wQGaPYfDVwmlO9jdSMzaGY0grbsQZ5AOTID/nDjyyRxLvEtXL7Rygv8cSRIW6/u529t2/iP7/RA0DdHdfTpsDIkQcZuBgnGMrtH48bJzBTIm7lTCQKVOEsYfovez6sFp/HilPb+TY++qk3F33kanQBLrwl/rBdMnkuNVlPjXRq8XGITCoFeEqfJJYp9DTF4xubZi7sx5lIIk2JUAS4XGiAkYkVzVuhJMis5B1SFhNMT0apbaqn/aY3Mjs9RSI6R3zuPJFwdMnTOFJPLdrD9FQK8KGVXO9ltneNSCNZJI9QTHRLm48olOeS92dOoPLbK00PvsZOgj4/TqeS3z8dfitk1bp2E4fDEiG4ibbrii3JilcDVOu9B6sPkokMVPnwAKrHSyYxTVyk2OCtBpy4XILMTHi+7y71/M/haaZ9WxVS+AiE/BDro//00JLzs2yWkT81+kw2Fq8oq/xFae8qxmtNrLH+cteXUMLMTMzR0FZBZYOf8QHrfGIufFR8vK9EOEkbGxubJciGH6jfFGKqd6I49McSFIYcAutLNVgKlpnJKKFsstgYIapqC+KrB9qo8IC7+172di+uNxUAsuETScytPUxGkbKsuI5YIg54cVcw7/maiJIo8/5lCQ8QTmykvvte9rQsEepj4bPKlWkpluuntbZjBXlh6TmwrFwL6krEouStHhUrzw0RsU6Lt2ZPmvo8Xpju4Vysi+7snCMUwpUYZybM+udBDk8X2zZbys5lE6Veo+O/OCycFUJsGGtMct4sq6m/vHVWxn6wUpJELGXtgO9dtLYcwDt8ccLryMZb6G6B8edXH1d+UVi9zQepGV5cT8lwQKt41nL35xT0TPfMPzc7P0Mti+Plx3sf4Ehvbl3vYc8tXQXeWGuTt2he2GtjdW0qY23IcGnZRkocirxW1sic6kKt6UDdeD3pjIvURBw9piOEghAa8WQMJTbEvvoYH7xzE9e11+AKBpEeH4rbhRASaQpAIDMRpDGF6jQKvukXej8sKZ1VRgokTnAGEJqWTcM9byAQCFAUFKcD1ADSqWFGoijJOHU+Fzds3cCFyQl6zp2kd2oEKXfhqmwBRQNdR09FkJkEQtVQPQFQVRShYQY2MLbxRl5ITNPd00cwqOOu9VtSLzf3s4cI1nTsUJpkoqN4Nr4Td+ubUH0NZOJjnH/yc7Td9udoVZt59on7OT/cs5ba18xlNWCkxw8R2P8WhKLm82CMvfTvdN76WaLjJ4qSeLff/LskwufyBgyhqATqtxM5/G9lPSveez8/7L2fHwKeTe/jNz756+x6x+/wjsPv477eFW8vifQe5AOf+xS3NrtLZmK/3C40F1MeMfJN/voT37R+uYqVHOd++hwjd7XQsvctNH79S4zQwuv2dqLIQY7914us+UV8BUr2j1hJwSkulThLPM6Sx9eylwMtiz+WUr+88qyVrC77snZd+gwDRy33uvUo81f1TMUkdvZxevW9NNbXUdlQRXV2HZupaaZ7n2Pg/OwlkedKtPdKUqq9Ummgad9N1Ae0JfbPZTKGrwIt2EBNCc8YKYuNwLFYDOp9uJQgmlslOTtFXImjBgI4UHG7IBWbWlzRRWC5+SDc1VRvmHdtyMSnSJpc0/6by7W33PFaK5ey/uT5EeJt1+Gr7cTZ/wIpvFTXVSEIMzs2S7m7qryI9kQbG5trk2KjA1S1hEhNnrAUHAv2iFwYjiDjDPxXNh9F4y3sLTiwGxsfJ9ViJYvtiVin4cPjxUqcpUNZXNvvKbnT4sOFIZMuYczyK0E5c2A9rDQ3ErEo1AbxmnVU1fqZGzpNLBIk1ZL1APH5SU1emv52ZY0kS9V9rY5/Tu6R4quw0Dv5EnEx9oMiY9g6yZ1+F0JQv/9e6os+tcLytC7IzbAUk8eOUbnK8HcXheZGKy9DzR72Htyz4MP6JePlTx3/LpO5vCP7DpJ8ZH2JgXPYa2NtLLc2lpRtCa72NdK+ZwvHB2OkqjahVraQuKCTGJtGj88hFFAdAWIzw+ysmONt+2q5cUcLDr8H6Q2A02klyJbWwS+kianPIc1ZNAfWtQUGiJVRMKUL1enHOjmXu7/AGCINhJDgUEDzgaoh5xREOolGmpnxIWSkDy3iRneqIBTw1qEnI6SiE8h0EsUdxKNqCJfPqlN1YVRvpGfjzVS8ME1VbJJgpeAiZiVehNRTYBoE93ySyOBPcUjrpODsRC9tgKfjbSTmzvHCCz+8hFIs5vIaMM7/DAFUb7yVqZ6HAYhNnmHwmb+iaf+HaNj1XvTkLO7KVsJDzzFy+Gv5e6s33orI1rFaEme/yd/ffyN/8/4d7L5lG/f1nlyT/Bvf8+scbHYxe/wb/OM//jsnh2bzCUZf++kH+eD+NVW7Zq42eS4L/fdzbPDtNLUd4PVd8O3YW9jTriAHnuWxfi6vUk3KFbY7ubr9cL1k5Rm9/zf51D+9uEShq/dlII+RwQRUVxkJpC8l0rD+HInibVKaynrP5ucRxIj0P8mpXolwV+MN1uCvaqauMURN942kwg8ylly5nmuCy9Cfq8Hdtov6gEpm8kX6zpwllszkldkVW9/OxtAKFZRJ/NyDnOoPL/HpfLsziRgG1bgqqnB4kiSjGQwlit4WwONXcCkp5qJJLvcaljPHOXrkJFLZQPP1rydUt5OW0CgDk6nLKsflotzxuirrj/cxO7cFb7CRav8LnE93UBkQyLlRpuKs+PdRdToBA/NSvg3b2NhcM8TO9jDXspuG3X6CnmVitWdD9hSeuPR5vBSe+bPCBW2ktbYbnyeEa7pn/kRoeI4U4PKEuKgJYxeyzHNy8ibDLL1XLnl/FW4PrHT8V0QOc/Kxw9kY6J00NB/KehtS8pSkFS++z/IauJjfb9bZjpKUMQcurqzFWAayEFXNUOEZZ2wYYIBw4iCVzd1QHSXcnzWYrXce5Ej0cOJkkG37NtK9e25FpdwrZvxXGpNLts5Wj8fnh0TPRVGGl1YMW+FyulviixJBL1/XGXrONLKvew+djacvSQ6CheTDG5UwEOSToi9zEj8XFi60TqNkqXG118blXxs5rvY1cuN1e2jgLD0VHciIJDObIDM3TSZ6HkPq4KggoF/g4OYqbjvQjsPnRfoCCEfWeGFaoZ2EkJimgalHEHIOoSpIqWQ9KMo4uSUEAomUCiZuFKcPgbroXiksg4ZVFkBBuF2gVCLjcaZGx3j88EtEo7MEVQ+Z6BnSUkCwk3Qqip6aQ0EF1YVpGlYbkCiGQChu0hu2c25qGCYO4Q3PklQoeRAzT7meSSWw2gKoTqb7niSwoRtv7c7852rVVpyh63FUb2P2qd9Z41NWz2U9Q2lmosRe/iobdtyD01ubvz47+DQv//AjDD7914yf/D5nHvg9Bp/+K0zTiqnl9NayYcc9xF7+KmZm6SDO3b/yVb741fv4H7cvVnzGYykMwBuoX3xjGUhTYVNrA4Jxnr/vn3hpJJw3FkhTw+NyrFBDGczFSAJ+f23RZWk2EPSrC65dXfJcLoTSy2PP9yNpZtfBHdTeup8WRTJw5H4rkfXlJJEkDfgCi+PGVwX8QIb0Ot/bV0UsQYq1z/GrhniUFKC6K9CWi9ln6JiA5lp8bMDhcrFuRVwsQRpQfZU4i+Sox+e7uHNNKALSM8Qnexg/+xg9Q3OgBPHXLF7HQnMt6hfN5QJ0dH1R8auHy9ifKyFNiS/gB2JM958kntYLwkopqNpFkCdjGeI0h2/FogBEIqRw4a6owKVacZqJRElpPjyVPhzErGs5LvX8X4BgjJHT50jjorprLwFlndbZZeR3Nb6Grl23sKFKllX+orR3teN1tdUPCCXG1OQskiAV9ZU4GhrxCkl8sm/F0JnS9OH1OIA4KTtXho2NDfPxwStq6kkNnVhW8SBEIJ+DQAb2097iX1RmcnIcqrtory3OpZF7jrv11qJY3DKwn61LxF0vhTTraLrhXey5YX/JmM9LPiebx2DuzPLKlVx+BlfLAZoC8/fX7t5tnWrOy7GZzlvelY8ZLwP76exckNhZRor+pgtRT+vu+ZggsvEW2moEc0MX/yRyue1Ydb1lzIFV11nu3AgPEE74cdf6cU2PMqWIvBdRsKVrPnzUcnWWOQ+K5Isc5sTzfaSqd8+P94J5+Eob/+X6r7NRXpR1ttKYl1rrNTvvKmqPFYc/ynj/6ew9xeuyHC7pPcMnGItLgi0H1hWjvmwqcuGNFs+p+Zw1Vh4Fqw3F/ZkzgJBdX6tFKFZSYZevar5Oe23kP79Ya2M5rsU1Mh43UUM7kL4NJCdi6LEkSB0zkyATmyI5c47XtKm8YecG6ppqkR4vitNhHQkzwTocpiCRmEYaYYZRZBQUFSlMpDBBSOtnWQRSSpACRfGguHwIRcnmWJ4fM6sqAVLJ/ttEmCbC4ybldTOaTDIVT2EIBY9L4GUWLXqK5MSL6LExBCqqM4jm8iEcblBUhBAIaSKlRHMGON+yh2F/G3pCxadR9PxCfB7v+sJursD5579G+Nz/QbgqL0n9S3FZPTAAYqe+jnPDzXS84VP0P/450nErv4KpJ4hNvLyovNNbS8cbPoU5e4rYqa8vW/fQZJKK2m723f1Rtj79BU7Gsgop717edcc2nOj0Db5U4s5JYgmAAJVtwNDiEkIxmY3EgSo69myFEyfzp5B8e3+LmzsvwsQ4Pci4Ce3b7+TOpgfyibPde9/P/ubiRXW1yXM5GXv4GQZ+aSNt297IbfEOFLOXow/3cdm9C144w4j+Grq23cmbW+/PJ/JWmn6Z123zgP4yPccupzwnGczczJZdb+b1dY/wxIRlEZbOvbzvc3/OwaZRfvKJD/C9wfX208rrZV3ELxBNXIc30EC19zjjS3kgTE+RMJvxV7VT4x7MJ/aVzs3UVmlgThCdXoccyWEi8S14fRtp7w4z0D9KRqukqmM7QbG8pV6pPcCmza14iDFx5lFGSpxWl94dbN69EVe8j7NHjufj00tTw+lwAiZGOsPCeS39TdTXnGFkJpVtbxehSgfIWRJz62jvpWYd/XmxEYogk9EBD77qIDIylzdgiIrt1AQuwl4yO0XMbCFY20ll3wiz2cTNkhoa9r6BDf4Io8/9H8aT2WfF50iZCq6qGpypKAkdYJZUpotALSipWeI688cOLvX8L4GcOcrg2Aa66ptp7WrixKmRkqdxy5n/zM5Y8ldvpNY7mE/kLZVG6lubCLijRM8WlL/U7V3teK26vWuvfzVkRkeId1Thq+qgRq9EyFlmR6Os+PfRu5HKAJCYYi7JNR0izMbG5uIRGx8n2cKicE+FiNHHOOW5iy3ZuNwy3svpM+N0L9RNDI8yt3k3Qfo4N0zRPhPvfYBTzNcBudjqpy9qaNt47wM8n7iFfYXPkRHGDn+nZIzwhUwd/y7sfBdtBeExwqcfYcxzkHnHzRmSCchFCxSRw8x2vIu9B0X+eaXiyA/GuorCuiwdJmT9lNeO8il7DqyBcuZGzlixpbWe8OlHyc3VXOgyFig71zsPChGRw5w442df9x723BDk1FP9iz5/pY1/yf6bOsrR42Lpz1fRv2vZDyaPHaL5pnvYm4/9P7bgxHfxuiyPS3dPLvlyxQIPHispdmdRWVkQdieX6Lhtqc+XuH+QjbjIeieVesfL7s+hjm5Gjp+h5xHouvUe9hYo7pODj3B0Qb6XleQtZHJynNYWK6lwXBH22rhMayPHtbhGBnoGcW7eScbrJhNJIRA4vAH0dDWqoRPSprhr/2Z2X9eC8HrA4QZToSgMihQIRUGmZ0GfRFEiCNVElasJuW8iTQNpupBaBcLhsTwfzDJ1GKpKLKPTPzZFImWgKioKCqqp4xczxNIGGXcXuFpw+BtwBi0DhpAKSNNqjTRRDYFZ3cpUww6UkRkaRgeRjYtP8MlsOMXU5MyyYsXjcQKB1Y3eleayGzCQBrNPfZzKm7/Cpjs/z4Xj32a6/9F8TowcQlGp7jjIhp3vxpx9mdmnPp6NX7Y0sfu/zoO3/Bm/uPEX+cQ/HOBc3whz0kuobRNNFQ6SA9/nP76/+AVcKOc5+tIgv9DRyh2f+Rrtg3NYqugIJ771RzzYa5U/9vCTXDhwFxvf8RW+tO80w9M6jsom2lvTDPTHYb0vaWP/ygPPvomP3LSdd3/hO9zUM0hEqaGtw2Ry2ITivJ9XnTx5Kndxz6c/T6mc9OM//wL3PbHOOO7nf8TRvnto77iNW9IaZu8zPHGeRX+M5a5f5TffvJmcr4hWb1n4a/Z+nI825eLbj3Po777IM+E1/BGc+le+/8gd/PYbt3Hv5+/jhrMDRKigqauLGneG0Qe/xcMzi+W6ZMx8h+89eDuf+IX9/OqXvsPB3iHmDDe17ZtprlSZfu5HPHpu/fKUu17WXv8EExdmqeuopL6ri+njPaVPD+tnGRnpYHNLiNb9b6Z6NkIGJ77KapyaQXzwJFOFCt9VyzHD6Nl+KndsxN98Pduaretm9CwT0QpC1UvfG6xvwefSgApqQo2MTPYvLhQdJZLpxl+5he4b64lE45hSRXNX4q9wI5NDTJVaKnMJvFvfRHdkhhROvIEq3E5B+sIpy9izxvbKQDdtzTX53VF4rJPirtr9tPlye2+c6dNHiZhrOXmz9v68FESGB0nUdeHvvIPttVPEUhLV5ccXMInN6bDewwR6D6MD7fg7Gmi/4W5ikQgZQ8UVrMHrEqTHzzJdFNYn+zLnr0KJjmVdpWdIJpzUBwTEhooDMVzi+V8KoejMnX6BmcobqWrYTdPEBUZmFr+4lTX/06cZGW5jU2stLfvvpno2TNpUcQdr8TghM/Yy49EC+S91e1c9Xqts7zrqXxXpfmbntuILthMyFGR4mOmFScwXIE0PVV2deIVJ7PxpEldx3GEbG5tLR7z3AY72UqQEsUJ7QNEJQ+UMvY+dKbqWS/ZayNHRBXXl76OkoqVUHYUK6lKhKQplFhSUWe4U6+hjHFkU5724/NTx7zK1RD35z7JYJ5MLaioh68J7ShmDEmfv50jRO3R5MhVeL+qDAkqN7UrtAKuvjo4Wy7KUHCvNgcV9ULquUrIuNzcWl1k4fw9TivXMg4VtKapLY9E8vFbHfzlK999Kn5e/zsreD5bbI4r2n9J9s0iWQmlXuCcnZ2HflrqnVP/D4vlZss0L6ln752eW7GtL7oL9ucTva5FnEVkjSWGIKHtt5K8uKftCytkPSz73GlsjqiKQ6hxzGTdGDEzTRKDgcFehew1EOsr17bB1cxPe+lpwOLNhqQ2s/hSABKGAUNET08j0OKqaBOm0jBeyHO8LKygUBpYBQ61Dqt75+q1W5Usu/l2AopJI6Zy/MIlQBBV+N0KoxIw0GjoufYp0woN0h1AcrWgOb7YmwwrlJOdr01QP6ZrNzMbGcJz+GeNjGdKqSlESw4o2K5ziUqE/szz71E/5tQ//Lo1NTWTSxdrb0eEB/v2fv7Ri31xuLr8BA5DpCDOPfRDflg/QtOtDNOx+L9Gx46SjljeG01+Lv34nioTYy1+1PC/KSHApzCP82x/+Tybe96sc3N9N05a9dIgM8ZlhXvzpQ/zH175F7xKKt75//nP+2f8x3rJ/I1t2u1CFQMpZog8C2Q0ideSLfOHLUd73jlvo3LCVbc0p5s6f4Ym/+2t6r/8KW9bZL0KJ8MxXPkMw8xHu3NtJ65btJCZ7OPy1LzP8ur+nc0H5q02e/H2+Nnbd0Fbys3MjPli09a1WrlEee+4Mb+26Dp/H4OyhHzNdamE27eTA9XtQF7j8BdoPcKDd+reUA4x/C55ZKiT5snKkOP63H+dLUx/lrQd307ZlLw5SRCde5ulH/oVv/tvPVgzbcTERis7p/+/jfH7qo7zz9n10bNlDm5kgMtXD0w9/j//49sOl+2kNlLNe1kNq4CgXQq+noXY3nVsM+s/0k15keDSJnX2UM8k9NDbV462ux4eBnpxgqu8kg8MX1n9qb+YwJw9foHZDA14H6PEJpkb68W9davZbRMeGiVe24ibK9MSFkmWEMsX5o0+ib7yO2ppKgnXVKBgYmSTJybOM9bxY2lBgjtD/cpi2zjaCHgeKHicy2sPg2YH1tddbT3X9BpQF68VR0UhNhfVvKWdJ9kNkrXk51tiflwIZPkbPixma21vw+2qpDJjo0SnGTz5PrO6OVZ4kWYxQTOL9j3AqtZvmpgZ8lfX4TB09Nc3U8GlGB0aK9gehhEkmDDS/k3R8NvuyHSOZ1NEqnKQnwgteMi/D/C/VLnOQwZ4WAtuaqNu0l5nnDhFfsDbLm/8msZ5HOZPcSWNTA76qerxGhkx6iqmBlxkdGs2HRbwc7V3teK2lvWutf3XtSDA5PkVjRR2aZhKZOLdsvRIflVteR1utExk7y9DgHJfdm9HGxsbmWiYfmuU01/T++Upph83asMff5hJjhUDqonuZXBtXJfbauCJoDheGrx7DGUKP69l8FQqoTlA1PJrOjdubqW+uBY8XDJkN6WSCVKzvhYoCqICCkZhEZqZRnFkDR95uUaYbhrQMGEKpRggXCNXSpisCdHN5bwyhkEikmZiYxu3S8Hk8CKFiGpJEMoUwU6j6KEasEt1fh+7xomkOEFnvi+y8MwWopkTqZ7JFAAAgAElEQVT4QiSruwhPvUS1M46ZiZDW559f27ERhlYOh/jiocf5SniGzVv3omrFpoHpiTHrH0aa6o2vw+HdgMO/gZYddwHkr2Fe3oSt4rY77pLpqdMrl7xUAmg+XE1vwBE6gOqxHLWMxBiZ8UOkRh5H6rErJpuNjc2VQzrbadu9jxqvipGYZHboRQaHl7ciXy5qdv43WqujnH/uAS7EL4880ruXbdd34Zw8xrGXlj8Rc61xJfrTxubVjDQVvM030NTSQMCjYcaHGDj2c2bT9vqzsbGxWQpv5120c4iT2TAq0txM1627CSb6FiXGLZeane+i1bP2+9fCpWiHzdqwx9/m1UQ+YXji2IqJ7+218erGH6gk0XCQ6Zo3kEr7UaSJRMWUkJo5R136JF/6jZvZf2M3bp8PMkbWFmGAUDBMiS4lCiqa5iJ67vsQ+w883h5Ut8cySFhuGOQMBFLKkkmxpSKRyRSZRBuG8114N96FFCqJVAJDSjyaA4eaSwpemBcja3Tx+njp+Mv85Zf/nsGRC/hcblRNIxJPMT0XIxqPYuo6accG9MqdOOv24K5sQFEFZjb3BoAUAkUKUB2YcyOo/Q/S4RsgFRsjlbEMCRd73Xi67sHd+qbSH5oZYie/Snq8tKfjxWQ6E2DDhsYr44FRiNRjJAceIDnwwJUWxcbG5ipCpM8xcDhCrGsXDRtqqQnVWgaMK4w0q3C7BcgEmcuZpD3HKyw2/RXvTxubVyUKvlALAVeS6OhLDPacJrWG0HA2NjY2rybivQ8wtnM+ZjsUxHu/hhRbr5R22KwNe/xtrhTlhBy6kthr4+pACIEpFFKGQjotLKcKASgCPRlHpGfY4E3T1FiN2+kBQ2QLSMuEoAimpsLMzs5REaigNlSLYA6hJhCaQt5uYT2t6Lml5QHDkJimhvAEQBEkkinO9Q0SnovR0tJIU0MIVVGgKDWCsKo3M6Tic8zOzOBSNBQhUITE69EwTDfpdBLdNFAIk0oOoIer0T1BNI8fS/mT9cOQlnFESJDOClK1W0lkokgxmX/icuHH1kKi5z4SPfddlLouBlfcgGFjY2OzFMKcYurMI0z2VBAMXH7NvTQ9VHbuodKdlwjNW0vAC/rkEDMmrziDwqXE7k8bm6sFk0j/zzkZGSVlmtgu8TY2NjblUSoO+EWp7zIrxy52O2zWhj3+NjalsdfGtYJACJH1OxDzOSVk7pq0zArlZ8xGSslsJEEyaKKqLqRpYKKgoJBJJnDLJB2NFQRqqkDVrBBOligIRWV6ZpYjR48xNRPmphuup9rIIMw5hJJEqCrCVK3cEpjkLRmFKS1yciAQiokiBKYhMEwXDk8tAonb6aSiIsjcXIzhoRHq62pQXY4S3SPANDF0HVM3LCOHEJjSRFUkAa+TdNrNbFhHCB2HOUUy0o8INKA43WiaEyktwwwi6zVi6qgOF7KqnYnRU/hNB47F4r8isQ0YNjY2Vz3CDBMJcwVOPmh4apup8efcCg2MdJzY+TMMn+0pitFvUw52f9rYXA0IxSQVHr7SYtjY2NjY2NjY2NjYXKM4vUEqm7bir+vAHazD6a1EKCrpRJhUdJLY5BDh0VPEZ5bJbL4IgaqoYKqYuoJQHCANBKCnE7g1SUdrCKfPBYoEYVgeGNnE3A5Fpauriw4BdaEahJFBTyZRZQYwkaqByBkFCnJhSDnvhSGElRLcNHSSMUinm5GefajeRpAKmpDU1Vbh8XnQDR1NxcrbLOZDPjFfNaZphafKO3lky6iKIOB1E09kSBsGipGA1CCZuRYcnio0n8MyEEk5n3gcE6FqCFeQKBVUuHw4lRipdGYNI3htYRswbGxsbJZAKBEuHPouS6TlvbyyxI9w8rEjl/WZF5urqT9tbGxsbGxsbGxsbGxsbGxWh8NbQVXzVqrb9hDc0IWncgNObyUOlx9FUUknI2QSEZJzE0Qm+pkZPM70wDES4bGy6nc7FIzUGKnpPmRFF0LTEEIBU8frUmjcUIvmUEHkvCiyugRp4vG42dgeRHG6wDDRU2lwtWBE6tAjEbRKM+vJIGBBCCnLwCBBGhgZSKUq0OlEqbgBZ3A/qiOYNyK43U7cPo9ltEjrIJdI5J1zQCl63HwicYeq4nU7IW1gpjM4M9Oko4PogSYMlx9VcwJGVsb5egSgCw+K5kWRGtgGDBsbGxsbGxsbGxsbGxsbGxsbGxsbm1crQii4A7XUdl1P4447qGrZjqq5MAzLKGCYJoZpIjQ37qAXb1UDlc3bqGrZjqsixPipnxGfHsE00ss8RaLINK7YWdxpQdw0EcFWFHcAIQQul5NgwG8ZNIryWVg4HKplTEilkCgoDgeu0AHS+iSpWBzhmEbxSAQK5MJeCSsUFqaJaUgM3UVGrycjdqBWvA531U4c7gBST2CFngIM0/oR6wveZEqJ26khhYI0ddKkMVNjGLExDG8tmubMe4SARJo6RiaFnopg6hoZ4cRhvjricNsGDBsbGxsbGxsbGxsbGxsbGxsbGxsbm0UIRcHhqaRxx+00730LvupmpGkipEHAraAUJMGWgG5I0roBSPx17XTedC8uXw1DR35AbHIQWZTwuphUKonmmCRAisz5GaLJG3HWbQUJQmgILWt8WGQ7EFn7QjbUEiZCgruiDSHuJjniIDb5Y/y1EYRbQYpc+gsrRJOZUkgl/OiiG7XidryhfWiOahQkGInSwi4MGbVIJIkiCrwnFmCaoKoCt6JgGCpRIdFkmFRiDCPdBL4gCBWMrOEiGSGdiGCmExiGRlR3oejKqyKVqG3AsLGxsbGxsbGxsbGxsbGxsbGxsbGxWYTm9lPXdT3Ne34BX2UDUkoUBWoDGge3B6n0OqxgTgIyumRgMsWRvigTcxlUBVSnl+Ydt5OJzTCSfojEbOnA0jkM3UA1I9RoQ2gzaWZjYaJmNZmAi7SuW4m4S9oOCi9KkApSN3H4mhHNbyatuIlO/wRP8DwOn0SiYMR1kjEPhnIdauXNeKoPoLkbEIqKkGY2PNS8F0T5WGXzHhQFt+ZyW5imiWlKFEVBUVTAxKkYZDIzGKk59HQC0zRJJeYwk1HMTBrMDAJQnW4SaQ8u04lPKJhLhbF6hWAbMGxsbGxsbGxsbGxsbGxsbGxsbGxsbBbhq26medeb8QRDIBSkaaI5BAGPSk3AwXTU4MJMmrQh0Q2TsbBOPGXmPTOEEDg8ARq2HSQRPs/ICgYMS7mvI/QIAZnGjUIqVkd8ppFIvBVTwnzui2wsqbyXg8waCwRSCsBEEQoO7wZE4xuRLj+p8E9JJwZAcWOqLahVO9B8O9F8G1HdFSiKAN1EsLSnSFlkw1NZtotC44clu2EYljFIzfqCSIlLMUiZMYz4NEklgGEk0FNzCBOEyCb2FqCoCknFh676cChRUpnU+mS9yrENGDY2NjY2NjY2NjY2NjY2NjY2NjY2NkW4fFVUNm0l2LgZoajI7El/IQSaainiz8+keXk4TjRpJdZOZiSGKSmILIWUEn+ojcqW7UwPHic5e2FZfwYpQRoGqpLAaQ5Tr4RxJ1MMD9Vj6DvBoWEluM4aMEwsFxCRjw1F3rAhdYRQUf31eBy3kFK9GIkhhOpG83bgrOhCddUihAYyhTQMBOpF6b9cgvDitloym6aJULK+HaYlqlNRUGWcdGIcw3AgpZUzRGjubCiqrLFDKOh4QPXhcDptA4aNjY2NjY2NjY2NjY2NjY2NjY2Njc2rC291C1XNO9Ac7tIFJKQyJpGEwVzCyOZ8EEXGixyK4iBQ10ll03VcCI9nwzMtj2lKzESEKkcGNzDU5ycZu40KlyN7v8TKf6GAplo/UoJpgGHkg0pJaYAp0VxBlIZbMA0ToSiomhuwykozaeX2RiCWMq/kjCRIsq4gS/YLQkFzaDhdTtKZFBKZrdeSWQiJoqpIKZGmxOVw4HKqKPE4ZnIGhB+huVEVLyiaFToLIyudgpQOFM2Jor3y1fuvhjwfNjY2NjY2NjY2NjY2NjY2NjY2NjY2q8BTWU8g1L5s+genQ+BzqwQ9Kj63iqaKkikqpGniqdxAoLYDWTqJxZKYeopUbIpUZIrY1LSVDwKZddUAFEEyoxOeixGJxNClUZASwzJJKFKCoaMIBU3TUBUFzCQYOmAiFIkQktLSZ9sgBIYQmEKhpJUmX1CCouDweKkIViBNME0ThLR+kCiKQHMouWwZ+N0e3KqCaiQRMoXicKK5KxEOd7YtJmBa5g8JQtGQQsUwJGI5WV4BvPJNNDY2NjY2NjY2NjY2NjY2NjY2NjY2NqvC6anEGaxbUlkvhKCr3kOt34FuSlIZkxcH44yFM2T0BWGkkLg8QZzBGgRydSmxpURKk0w6xeT0LI2N9bidGtI0EIr1+QMPPMz9Dz1KwO/lv7//nWzbtgWnqoKZ8/TIeT+YeQOKyOXLyObPEEWpKkTxvxWFeDzB9NQsiqrS1NIImZRlV5ivbD58lSJw+X3U1tUyMHgBTIHAkfXcEAhFRVU1hJ5GcwrcDh/xWAzTzKCoGZAGSM0qL3I+CAIpFIQwUTQH6YxJUk8h5Wp689rjihswhObD1fQGHKEDqJ56AIzEGJnxQ6RGHkfqsSssoY2Njc0rB6kECDZsosY1zbmeflBe2VZ6GxsbGxuby4k0NSq7bsKX6mfy/BBp0/47a2NjY2NjY3PtojqcOJzeZcu4nAoBU8WUkkRaLOmBgZSoTjea01eQp2IVZFNaGJkUUjdA1RCmZbwIRyM89PCjfP9HP6GmpopQfS0dm7pwBlyQzpA3XohcdCcVFAUpDCtBtiHJWjEWIxRMYGZ6lm995z954smnCdXVcc+9b+OGAztxOxxgGFDUasuq4XQ4qQgGMaSJIlWEUJGYYJpWnhApkKblSeLQHKR1A2EaoCfR0wlcLokUOUOQlZhcSKwE4YqGlAJdN1bpz3LtceUMGELFt+UD+K77EKaA6NhxYnOTADj9zfj330VwH8Re/iqxU1+3rE42NjZXBbLx7Xz4d/4bGznNj7/4GZ688ErfKl8ZaFU7aeveRIVHQ04f49yVFuhVgnR20LatGy9TnD/xHOG0vV5sbGxsXsk4AhvY0NZIqGWMC6ef5cJM4kqLZGNjY2NjY2OzJqSU2dwNpb/HSuD8TIqhyTSptEnGlMzGdAyztNOGlLKs3BcLEYpCIOCnuaGBUG1V1rNCBwyEdKAI0DNpYrEoXq8LpERoatZzodhaIqUgMxslE40iFROHz4vT67XKL8xrISVo/z977x0e13Wd/f72mV4xaIPeCICgWEGwSLIaKUuWLLnLV1LcrhOXOE5sJZ/j2HHsOPa9N7HjOLaT3LikyN2mYvtziWQpckhKskSxiL2CAEFUorfp7ezvjzMYzAADcGZQSCrzPg8fCWf22Wfttdfac2atvd8lCEViHD1+mid++itePHCYkuIi7E47mzatxWwyQjQh6eyz1BgWo57y0iKthoOUKEKgIogCEVVFSoGCgg4BMUEophINBUHnQbF4kVJFlYpGgiVm+k9SPopGH5VlMqhh7WbWrm9Dl1Q/IxaNcuSlZxkb7s+us1XANUlgCKMD121fQ3HdRP+JHzDetQ+ppiYohKKjqGE35Zvfj7H8NiZffAwZ9lwLcfPII485cN75em5rqgKq2H3X/88Le0autUh5XAX6kltYu74Wk+phrPMUV/p686cvVgm6skZKXAVAAe6yk0z1hq61SHnkkUceeawQhBJl5NTThKo3UVNbTcWm3RjPPkfPaP5UeR555JFHHnnkceMhFgkQCXgwWpzpG0jJlYkIZ3r9eAIxjWlpgSLeCEE07Cca9GYdcBdCocxdSVtrK8WlbiISwoEAQkZBmDDo9dyyYyv9V4YocBVw+607QQqikSg6qVXBQAEUhYgnROBSH8HePoReoC8rxtFcj77AoRUgn6FjkvEaG0hiqsrAwBWmp6cRQmAw6AkE/MhoJF40fEZQNHoqIRDRCDaTgdrqChShEIvFiEYjhCMRgtEooUgYr1chFlNRVYE/FCYYDlPsMFNYXIjfbKXbH0IKYzx+M/NPk0lVVRRFwaAzEglmHmfYtOMu3vehj9Hb10ckHE5ct9lt3LH7dXz9y5+lv+didhO0wlj9BIbQ4brta6jmcjqf+QRh/2jaZlKNMdb5GzxXjtNw1ydx3fY1JvZ/4KonMaRaQMN9H+Ch+3dQV1aEXR9menyAzpee4Ec//C9G0xzjluom3vONf+Ke8jP88C1/wDPXYVDv3s/t5V2bxtn3lw/x7dPXXr6F5MlF/9cD3O9+nL97W2PKNSkneekLb+Sbh5ZX5kztTarv5i9+/n7WLVKI5/LP3sVffq9nWeXLBNMnXqHj/gZqucSp48Pwqj+stnJYjfVH6tdSv64WkzrJwIm9DHmi5Ods9RAbH8ATKsDGBFNjQa617qVqwdmwg8rKYixGA0rc5uTESY4dPZtPbK0ApHkT6265CevkqRtSx9K2nQ071mAcP8rxkx3XWpxVg1QLqLrlPsqsw/Ts3cfYNZ63602e/2nIRv9C9eDpeYmzE5tp2bKO4nU78L68j/Fofs7ymI/izQ9Ta7nEhQOH8a/Ee6BjOxu2rcEsBMGevZztzG88Kt78MLUc59jJ9mstyorP/2rh1TKOPG4MvFrs7UYZR8g3QXBqEKPZsWAdDL0CRr2CUa9RHalSkq4kg0AQ8k0S9Fw9jiSEViNC0SkoQofF6qCmrol1G1oZ80SJyQiEghANI0QAnV7HLbfexrqNWxBCR1mZm8HecVxOKy6nGZNRAAooCoHBEUK9A+hGJ9GZDAT9QfTFLmw2GzqdHklMO8ExUyA8EsOswO03b+W5LZvxevxs3bKed7z9TTgsRghHkGo8tSAU5MypiIiKxWCgsrIMk1nP1LSPmFSJRiPodAK7UYff6yMQihFT9AglhDka4Y1338ktbdu5OKTjO/t6iRkVJiMKAVUXL0auJUliagSDHswGA9GQyLgOxs233cPBgwf56U9/knJdURTe+Y538ocf/zxf//u/orfrQkb9rQZWPYFhW/deFNc6Op/5ZEryQtFbsBTWozc5CE72EPIOAhD2j9L13Bdovu8L2Na9F9+5f1uwb6nquen9/8jH3lCHMTJO78UzXI6aKVuzlu1v+zTrmsv47Ge+x+h1vDDcyLiR9e/vPsbhg0OJvwvW7KC55BoKlATp6+bk6X7CaT4b7r42u/nEuW/w+fd+Y+avayJDHplBqgrO5ptw6GN4Ow/Ekxd5rCaE7ywXXzo789c1lQVAV7GThoYylNAkUyPe2ROyvslrKlceeeSRx6sOnpN09bhZv8ZNZWMVY+f6ESv4HmxtfIB1tQ6kv3PRYEjx5oepKxZMXfgxnQPX/nvpfzKkWorZspL9r6Vp2xro3cfRfOLiusNKz/+NgOQEWzIyXZ+sjQ/QYuvIKhmVyT1SLaX61t24LYsnrWfW3ZR7pYfhV56k3yMWbQez47Q2PkBLjX/BZ13t/nRtF0tYyspdbGspm/17zvdGNs9L9DGjs8DKJgfzfjOL1fKfwMQVpgc7cJQ1paeREmA363EXGHCYFWISpvwxguHYPDYmoSj4J/qZutKBZc19C/rPgFeH1eGisraJlq23U1dRhsFowOUsQF9QQSAaQ+oEitmOVFWklOgUgcGiUFooEEIhFJMMDA3TOzrF2tpiaquKtToVKsQ8XkRMxVRSjN5uR0ajxHwRYoEweqcJGVXjJyq0Ew8yBjqpUltZwZ/98e/zvnc+TIHTQWNjDfpQFElUq5OhKEihJVy0TI5AGI0UuUvYdNNaDhw8xpr6au6++w4aaioxGnRMTnnY99vDHHz5KE4p2LmzlXvu3UV5XTWlo35K3HYs9iK+85tLHOz0EBMCFBUh9AgZQ8YiONbuosnYk3EyzGq1Mjg0PO+6qqp8/wc/4NFHH+VPP/N3ae8NhoIcP3qYn3z7q0Qi6SKVK4NVTWAoBju2mz5I/8kfpiQvXLW3UrX9g6jRANHgJGZXLVO9h+g7+A1UNUzYP8rgqT1Ubf4ggY49qBFv+gdYH+JN99VhDJznJ5/5KL+6pB2fkbZdfOBLf8kdmx7izdu/x78dXY3R/g/EDax/7/P/wD8+P/v37Z96+rpJYDB5gj1//SX6rsPETx43AiopLjRBpJ/B7ukbbud3HssPm8uFjgjjF5+he3SOPeTtI4888shjWRHq6WCydieFxfU46WelCXGl30PI4qawAPxpHiYd2ykr8hL021dYkjwygVBG6D/4BP2wMt/BBU5MeJkazp+Yvh6x4vN/w8DL0JHUgP/V7DU5cCvHMntKNvfYmndQZhVpd5DP61cOpSQerI0P0LLtQZiTxEifXM583jO5X6qlFJbYmRobwllSh/Xi8Lxg5kyypPu/f5yQWVbuYkOzOyXhka28tuYduLnEheMXVtSe834zFyvvP76xHsZHPFTGogidIXEKQ5WSaExLHKytNFNVZESVkkhM0j0S4lSPn3FvBCUpwRKLhJke6mRq4Cz6itsX9J/I0Wdx1TWy654H8IeiTPm9WKQFfHqCXZcJBIPU1tURDASZnJzE7XZTUlyMotNpKQcFdFEVh6OQ8eEBAsFInLIqnpBARbGaMdkK0FlthDyToOjjn6txCimNPkpqg4WYikEIWmqrkdWVCFVFqBI1FiOm04HeiEBBRsIIEUXqdEihh5iK1Wjgjq2bqK2soGH9Wlq3bsJl1KPTK4QQlJa7aW1ag97nZ+PmFhwGEwYEjc1l1K6tZGrQh1UPakwijVqSJBaNQdQHuiBT7UcRG3dS39y95JOWUqr8+Mc/4uDBl7VTJHNgsVp585vfwt0PvoNnfv7tJT0rG6xqAsNYcTsSGL+0N3HNVrKW2ls+Ss/Bf2Ky+0VNKIuLNbd/gqrtv0vvoW9C/J7Kze/AWHE7wZ6n0z+gqoYSA8TOP8+THcHEYiZ8+/n1M6/FvbOIgMUARJHq/Xz0h3/ODlvyZGzknb94gXcmXZlL0SPVMja+/YO88c6t1FW4MKkBpsb7aN/3A/b85DnGkxYKufHP+fvP30/RqW/x6Rcb+L233UJtkYnI1BCXjzzBd//lFwzOoVSSxs287sMf5r62RorNKt7hdg488SWGFvjmzEoetY3f/dZX2F16kh/86X7qfv9httaXYCHA6KXDPP343/LfF1OLDGYlTxb6n5WpgOa3fIS337ON+rICTISYvNLOyWcf54e/OkZIyU1+qe7kff/6Je5yXeCJD32AJ8fn6Lnk/XzuG++mYexZ/r8P/D+05/jFl6n8udpbVrJkYW+56Cf9GBaWOSd7U0vZ9PBHePPuLdSWOjESwjPSxdm93+P7//EiXiU3/0rQNKlP8e8H63nbg03o+/fy75//KcV/+DnetqWIUPd+vv+Fv+bweLLNZWGfWcmz8vaQgMON1QhydOSqQROpmrDVbKWyyo3VYkKRMaLBCab7ztLTN5jygijVQqpvuRe3ZYjuwz1Y195EodOKjijhqX4GLr7CpF+d078DV3MbFWXFmPUQC44z1nWYYMXrqSvyM3ToSQb8ub+EShy4GlopcxdhNhvRCUksFCA0fYWhrpNM+pPWHmsbG3Y2YRw/zuk+K3WNddgsBpSoH99YJz0XzxNScx+vVKupv+M1FBtTx+Pt/CXtPfOLuSZT9Jy94qKuoRqrRYca8uEfPkv3pW6i836g5KZPRacDYsQii+gyp/k1YavZREV5BTabCUWNEglP4+k/w0DvINHEehinYZEddA0VUF1fhPB003XiAsZ1t1NdYkH19NB96jCeaPIc6DFXtlJdFe+fGBHfGJN9p+i/Mp6wT1l4C5u31OBv/ymdAyqSJpruasMph+h+fj/jCGTpbWzZUMLkiZ/TMyGS5F85+18IxqpdrGt2w9Rpzr9yhnCW30e5jzczfaZAlehLtlLXUIvNYkBE/fhG2+ltv0hoiYExqZqwVm+msqJ81n5C03gGzjHQO5Cwn+T2Gc9XFv6V3nfLqHvto9QlXZnryxnbpyoxN9zHTQ0u1IlTnD12Nsk3LBS33kddkR5/1z7Od40CNTnJk7X+s1k/C3ayaWs9yvAhTp69nNJPwfq3scYdY+TYz+mbio8r2/U2y/aa7lbGf3O1hxSoPXimt1NY5MLhAM9KH561+AmNu3E3tNCfZkelze3GNO5nuiifwPgfAYcd07WWIY88FoPDjgk/wSk0bvoMYG18gJaSYS7s3YOl9RFql/ke6dhOfQ1MjXlwFmUmUzJ8FzuYrmmlwO2m37PKJ5+qN2inRs56MW1bQ0X1YToHZj+W6loqauyEeg+nnPQQA/s5m6a7TDHT73T7k9c1FdKrDqvkP8aa3VTa+xhrf5GSljvRGYzEYjFiMcmoJ8KBdg8WgyaAEBBVYdwbJRJNjRsqio7RnpNMdB8n7J9OG5Ce8R97YQk2ewEFRSVcPH4cXzCA2WzCYjQhBAQDQUKhIOMTU4yOjtK6ZQsVZW50egPRWBQhJCaDDpfTgXfSiFQlqCpaFkNgLCogGoOoMILFCFgwuuzoTEaIqcwWtFC15EU8gUEsFk9cxCAahZiK1ClIVQ9K/NRFNApCo6BCJyAaRi9V1q9rYmPbZlzFhVgMeqTPA3oFU4GL5poqqgxmZDCIs9jG9OUB1HAAm8OA2WJBWvWUOQ1Y9VGmQiEMIoJNTKNX+jDJCaLRSfp6h3Gv3UDxxaVTzUopuXTp0oKf11RX09SynmeW9JTssLoJDPcOPEOnUwp2l218O+Nd+xLJC4BoYJLLL34ZW+m6xDWpxvAMncbo3rFwAqN/iMkYlJXW0KBAZ/JHv/gMf/2L5MbDdJ08htEMYKS8ZQNuyxS9xy8xkdRqqD/5x6mDto9+jT+6uwIlMEz3+WNMqTbKG9dyyzs+R3PNF/nzL/86JagJgP0uPvjecvRdHZwfdlDd3MSG+/4Xf2bx88m/fzYRrJCqg1s++jne9ZoiZHCEy+d78ehKuPJELEwAACAASURBVPWDn6a3b37tj5zlwclr/ugDuEQnnWeHcVQ2U7/ubt7zmULUjz3GvpHc5MlO/9qPzXXv+wc+/sZ69P5Bui4cx4udijVb2PW+v6Wh+FP81bcPo+Ygv1AO8dtjg9x1bzPb7q3jyT2pQeCSe26mToHhY88sIXmRjfzZ21vOyMDectPPIBePHACz9pe+bCNb6xco4pSCTO3NwuY//Bp/fG8V+tAoXReO45FOqprWc+s7P09d6ef5zD8/Ny+Ilal/AWDewp2bR+npmeampvt59FOVBBji0hU7NzXdz7ve8zKHv7ovLk+O9pmRPKtoDxYzeiAa8Sy6Q0WqCrbm3aytcSKiPrwTQ0RVI1ZXKcVrb8di/i0XOgbT9GGiuKUVk5jAO+ZDbyvGXthAQ6uVrkP7mYzOBu1szbfTUONARAP4JqeICAtFLa8htAzBHE3+O2iosUNoEs/oKFFVQW92YS9tosFp4dKB3zI1N8iqr6T+pgJ03gmmQ0asjkIcla00KwFOn+nOebzgwzvSBzrtL2FxU1SQQQhBV0t9iwMxPc500ITVWYiz9mZa9FHOnO9PCYJmqk+p2nA1bcEVf7zBoQACZ91t1CUnMXxddF8emDPmTOdXj6P5bppqHBDx4pscIqLqMTuLKW6+E4ftAGfOzykcr3NTWuzH5wlSULCG2s02ovjweY04CtZQt6af0+1XEvNrbbibtQ0uRMSLb3yYiKLH6ijDfVMJNvNztHeNav17pgkhMJkLgTGwOTHJCDFsmK2AHwwWKzp8+KeS7Wfl7H8hSOtG6hvd6CLD9JzJPnkB5DzejPWZBFVfRUNLIYpnAk/IiMVZiKOyjWYR5PS53px3wUlVwda0m+ZaJ4oawDc5TDhhP7fjdB7m7JmuxHqb83xl5F8BfOODKDoABYvLjUkfwj86kULlGEhJWGauT6EIgl0HGSh6LVWFN1FXfZnOAW2t15Xt0HauTZ/nctcoQhFINXt5ctJ/Lutntsh2vc2w/cr679L1LxSVUCgCmDFYgFVg/5zsuoRpWxNVjgupu3/VtVTUwPArA5iL3Cn3zFB/lFnjek3aEbkQR/fc63OpLJJ37yZTi1zwNSUoI5Kfk2jD4nzg6Sgz5tJlzMjWM+qmbg6t1lzqlGDPMaZKWhelPZHqWprubqUg/szk5yX0cBbqk8c/diylv4VksrQ+ktCjD/dV9ZSQ6SrjmKEKAyjb/ijuOC1HsOGRtHLMPDudDSTkZ45c8XtpfnBxWRexjXT2teC1pLoVS7GDuZjRVbBnL2cuMs8Ob8T5XwjLpe8FqeoKdrB+AT1k6uNXg7/zKY51AoogUyahTO+RainV6zXatSvsyCmBcS1RUuKG8eOMTk1gDqzBXdICA/PtwWQrBJYxuVJdiTNwiQt9JALpeb9ZHr9ZbuTsP31WCmtHsFRswOEqQaczoKoxJrwxXm73pNTjFjP/FBEv5q2gqjG8o31cOb2Xyf7zV32mXieIRsKMjI5y5coVIjKG0WhEIEHGCAUj6A1WPF4fgUAAn9+vFbSWKqpUEVI7ZyFQUZGoSEDVkgoSLOUlBA16Ir4wWE0YCkwYCwvQGQwQS9q4Ez+FoSUxYshYFCJRrU0silAlIqbTKEJnEhaxMFJIhFSAmHbaQ0iKKtwYjQaUQBB1ZBo1GtYKfnuDBANRZDiC1WEnPDaBTg2hIAgPXCGqCgpr61lbqafcNE7QF6DK6cVhMtO4sQFjzED7gUHoO8NwzW5c1TA2sKBqc4KMBpGoCKFD6EzEYjF0Ot3yPuQqWF0KKUs5YW/qImkpXMP4pX3z2ob9o4S7fzvn2ghme/nCD/D/nN8cfBstr7mPx76g56lf/JTnD5zFn+YHl1CO8p9/e5T/JGl3tqWPF/7qsYWL6DrexD07XUSGXuJ7f/lJXpwJvBa8nse+8km23fYQr/v2r/nVROptotpK5xffzXePapEDfeOH+PT/+zs03PZWdv/zszwz8wuo7Hd4/S1F4D/Njz7xGM/0a05jafsEn/5407LJg6hCOfPn/Nm/HiKsCKRSy32f/Trv2tzG/W/Zyr5/OZ6bPFnoH4DCR3j7/fUYJg/yzT/9OC/Fd77Lojfxx3/3Mdoe+L957f8+zLNzt41nKP+FvUcYvvcNNOx4kOIf/fPs8Ui1kju3NaJwhRN7D5Hzceos5M/J3mbg2sIjn/ri/BoY/b/h6995dl5AP1N7y1Y/QjnO0189zkz60P3uxzNLYGRqbyW/w1t3V6H3n+HHn/oov+7R7E2peg+f+OL7WHf3O3ndnud4Klf/ArAO8tyH/oTnwm2895tf5W5HH3/1oS9wyfgQf/rdx9hcvwm3updhReRsn5nIsyR7yBY6PQoQjV4luGVsoarKiYgM0/PK84wF47tPjWtp2tGKs3oDxZcHGZvbjXAgxvdzOh6ck6qF4s33UV9aTnltEZOX4hOmNFFR5UCoEwwc/W+GZoI9BdtZ1+pahoGWUlRqR0QH6Tr4HJOJ0y56nE234bYrmBww9xiKsFsInHia/qk45Z2xiabtbTjL1uHu7GZ4ruNlOF6hTDDW/hIzJ3L1tfdmlMAQDiPeE08yMBV/aTKvp3n7RuwVaylu70/0l50+9dhKqimec3rKXFwzk4/Uxj4xoSUwchgv+npKyyyo/j66j77I1ExiQ6mm/ubXUFSxjpKOXkaT7UfvZ+Tl55hQi6i65V7KDB46D75CUGmg4fadFNpL0Kvxnff6JqrqXCihfi4d/u1s//paGnbcQmHdRop69zOuAuFJQmGwWJzAGNjtGINjeIRbswE/WCxWCA8RjKL9yFpp+08DSSlVG1qwKSEmzh1kLJyj7+cy3mz0mQTFbsZ3atY+E/opvwl3Zy/DuZbY0bdQVe1EiYzQe+w5Rmd2vyuV1O24jeKym3B3dzHoj7fPcb4y8S+hjDF67nlGSTotpJ9i9ORzC+9kylKfQpli6MI5Cto24azfgWv4OSbUBmqbytGrk/SfP5HYfJKTPFkjt/UzW2S73mbcfgX9d7n0r0ajgCGeCFkFTB1maPwRyubs/rU1N+Ec76BjCua+yduaN8DZPRz1zCYSam/dQeDAYUZHh6ldm0pLpVFRwXT7bFKgba2V4Vf2cDapj5ZbiQeYNIjirdT79nJ030giuFXb2sJYhoGameDT1IUfczYeCNMCRI+w3rIvhTZBWBuptR3j6L5434pI8LrPDaTVWQVygX0jM3KakupIFDfuwKrOBqGEtZGW9Z1c2LsnKZnTytbNpASh0smULoB0NT1lMo6xk08wmpiXGXoRQfECctgaF7aBxDiT5YoH5ta9thE5pvWVTtar2cZc+5LqWlxFAMnXNM776d4LgFiyHSTr3Nr4wJyaMKWvivlfCLnqe7E5vJoe1jdOLEhpYrNYEcKRcrLtWtbnKWmNJ1guDkNzrn204mSYnovDq0pxNLsuX0AogolRL+6a1GS2UNqZHG+loHjrPPtcCkpK3BAYSNhC3m9W1m9msJr+Ew35meg5yXD3GYyyHn1BNYqiRwiBboHC3jNQYxEC08P0nniSkY4DhH3jC7ZN+M/lYWpLmygrKcFdXMq03w+KghBahMqgi1JRUcEai2YNzU2NCEVBVVUteSI0CrhwLIo/FCIc0ZFIragSvdGEtdINEo32SSgoUiLUWDz5IBLJDi33oYIahVgEqUYhGtOuSVBiYQRhZBhQFNDrQa9DChViEgQoBgWTyQDTXlSPFxmOIFRJKOgjODhB1GjGWFaKvqQAdDFMFj1qJExo0oM6HSAa9GNRxinXd2IuK6OloRzdxCmOv9SuCagIBCMEAyyYuMwFUo0Sne5FxmZf1BWjIyN6veVGhoeMbgwIxcPBr/4lPzx0BVPzvbzjz77JP33vCT77qT/j3s2VzKsek23/vh/wpffcz4f+4M8TyQIAMfVrTnaFQCmhrCHNfX0H+M8js8VRIxcf5+VOFXRlVKxNari2FrcCwdPPJJIFAP4j3+XowPxfPLnKA30c/9WhxE5PofbwzDNH8UhJac3G3OXJVv9b1lFtgIkTTyaCwwBi/JfsPTEOxjU0bVqC/Od+zckroNTfzJ3VSbeXvYEtDToYOMILV0/8Loyc5c8OwlbHlptfw445/7ZvbCDd7+CM7W2l9ZNAhvO1uZlKPQTOPJNIXgCo/d/lhTMB0NfRuGUJ4wUITjMR1mSa9gK+KW3fSXgMbxAwWrDOtM1xfrOS53qCqxCLArGJy4ngD4AItzM6EQXFhT3tDiQPk/2zO7WFEmCsf5CIlJjtST8AbQWYFJCTPQx5Z09wyYkzTHiW6QVLAFLMnvYEhBLFc+k5Ok++wHC653j7GJoIzrYPdzA8GQFsWNLm5zIcb67w9DE8MXssQvrPMz4tQdgw25LaZaFPoUwxcOgJju7bw9F9e+gciiBlkOGjP05cO7pvD8eOn0vzIyuz8Qq1g66XfsbJQy8lgrfa9T6mpqMgrFoANBmxIGEVwE80AkSDRADUENEYoDfMrnGuYqwKREYvpfYf7WF4NABKIfaCmasTBIOgmBzoVYnZZoXgCJ6gwGR1IVU9JosRAlMkKmqttP3PgXZiZQdum0L4yitcHvIv2PbqyGW82ehzFsI/wGCSfSb0I2yY59d5zBxFM/rvSiQvAIQ6wFBvL9PjPqQhqX2u85Wpf2WLHPQp/Ofo7hohZiynZm0ThS2bKTRF8V4+yPASqPRyRi7rZ7bIdr3NtP0q+++NgtHRYUw1GyiOv38n6D1GL6Rt7+/cnxTgGqGvdxgsdi1I1HeG4YCdAvfsqQ2b242JYSb74juWa9xMtz+Z2sfZS4l6HDOQ/k4uXxyOt2nnSq8XiiopVmWC1/zYwSNpd2ZLdS1Na90Ee/amBGeE5wiXe70p44X47tvjF1Lur6ixz7t/9Pg+hvyL/E4scGICQoHZYpdjnakySjlET3JAKi7TzNgWkmkhLKannMeR3H8aORa1gXRyeY4wNJ7alxYcBSxOrKrMzDb6BpjGPvs9Ul2JEy+hZJsrqKPA4iXoWbodpOihclei2PFMX/Ps8NU2/1nrOwv/XkAPM3OSzsf9nU+lvI+e7/FQ0PIojZWrHx2zNj5AbdFwyhgygRAatWDb7kdo2/0IrtE9HNu/f16iW1gbWZfUbuuuXSn2cdXnXOX+5HUZwDc8TIjUtRu05Ob5Hg+ieKvWz+b0P1IzlXcmcB/yJW3cyfvNsvnNYlht/4mFA0z0d+Jv/xVDF14kGg4hpVZAex7i19RomMn+c3Q89zh9x54iOJ2alFnIf0ZiUfw+LyaTnre+5a088vZHeOub3sRb3/Rm3vbmh3j7Qw9x8442bt6xjVt37qS0tFTLM8jkl1m0pIYUxFSJqkq0+h0CIUEnBToUFEBRk+pdyLj8UktkCCkRUgU1BjKGokoUKVFUiVBVUAVIgVB12r+YgBQ5FCQ6hCrweSOc7/NytHOCocEpglEw1lTgWteAo6IUYTSgFBYii8ugoBhjUQnGIhcDvYP0nz+NZ+wyNqcTvTJK74nzcWFnMTo6nPgOXgpkxE9kqovIRCf6ghbcb3uRskdPU/z6n2tTG1u94t0zWNUTGGpgEKO1PuVaYOIS9rJNTPYcSLlutJZgK13HRNIpDKO1FDWQyrU7FyJ6ime+8A5eaHyQe+69jQ3rbqJh24O8a9sdbH/is3zpR6/Mp6DJAlKpZvODb2ZLfRkumzGxd7+gRgfo0KXRqOqdYDyZX1AJ4fWHACMma1LDAu0Fcdw7mnK/UK4w7U1D2ZSjPEgPniFS01fdFzjfWUnx0DSKKjWahhzkyUr/NovGydr4Vj7yyden9GOqNAEmrGkCKJnKL5TTPH+0l3serKftnmb+93c7ACi9dyd1CvQffZrupeyIyFX+LCH7f8lffHiBIt5prmVqbyuun8QAMrQ3ixkjMJGGJ3TC4wUKMabZapGxf2WLHOd3xeRZacRPaoRD87efREIhwJJ+56gMEQ2TOr++caan7BgDQaQqteOUJhN6IBbxpditUAJErnY6JCOMMD7qpaSqjPpbX8fk+BgB7zT+6St4prwL7n6S0dC874RoKATY0KddPzMcb46QsWCKPEJRiWrRfESyPCuuzxmBMh+vVC3YKhtx2uwYjUri+8hg1yirlrSaGAyaCM5m6m5KzcwrVj2gQ2fU/hZKgGAgAoU2LIDOYiUSGMcvQpRbiwAjJpMgMjE1q7uVtv8ZWKqp31CIFDYcbjv4LtF1IXfqpZzHm4U+U4YbDc6jzZvRT7r2GWMR/YcGXo5zN4uM2i82Xxn7V7bIUZ+h3kP0F7+O2tJW6tERmzpF9+XJa1CQMrf1M1tku95m3H61/PdGQ5xGoKzZzVjnSCq9xwJIphwCLagCWtBlYtSLO14Q1oebwpIkDnVHHQUWMLc8SlvL/H5DDiBOYUdgOnd+9JSAWGofvoAfsGIuYPa0UMBLIMP7F8VUN1OBNZS1PMrWmgXoP+Y+K1OZFsJiesp1HFeRFxa2gUXlmtNXwOclkfUouLptCI+2I7w2vmPUZrHCeAeXfU20xG0OtxtTYJiJKZZuBzOwNLFhrRbQXHSX8w06//Np4TzxkzjZ6jsD/15kfGn1sAj8nU/RbXuY2podWPtyp5nKFrJyFy01MPxK9tzx8yj31u6muG9+P2npg7J41mL3zwToGe+YfW7cdt018znx/Z1PcbRzxue3snVXU9JJrdzkTbHJvN8sm9/IqYVkmj+OlfYfKSWxaJjQ2EU6T55gtPMQRXVbcFRtxuYsQGewoig6QgEP4WAAXWSIkWPP0dd3Gt9YL5HAdJo+0/vPMJJgwI/f52fDpkokgnBUO5UrUACJEMRpjBRisSiqmkTxGg/sK0JBVSWhcJRwNIrZZEwkV2azFWhFu8XMfTJ+WCO+uSd+GkMgkChI5AxPCUiQid+62r1SkUghEjRaGHQIk4FQIMaxoSiHu2NYhIHScjuuahdGpwO9UdutJVUQBhNCb9SSGU47UaeDsy+8Qv9AL6GgF6tOt7hfxDcf5LxFTqpEvANY1rwdc+396GwVRPxDXHnhC9S99m/QF67l4PNPcqWvI9cn5IRVTWCEhw/j2P4GhKJL1MEYOv0TGu/+HN7hMylFvOtv+xiBqcuJBIZQdDjKNuI58h8ZPcvf+SS/7HySXwKW5nfxB594P1se+hMeOvIu9nRe9fa0kNbdvPcLn+TuanPaSuyrfYRmOeUR/d/nHz/+fe2PZVjkMtJ/3KFtNW3sqJnfh5TRjN/JF5L/8m8O0f9ADTVtb6Dy21+hnxruaGtEkT0c/+9T5PzSv8zyXyusqH4WQdr5ElcLcIrV1eerYH6BxG7aVVVduJ3uY9qRxdUK/ghFxXfxOTqjbVSWleKqKKQovi6qoXHGOw/RfWVyReS5FuO9lkg3XqlUULXtVsoc+gW+jxapGJ4F9M4KitPs1JYyNanu8/mgzIZJcaI36whOjuFX/OgcDgzoMJsg5Bub39EyYDF7EOYiispnt4JH/GMEVZZ8HjbX8WaqzzwyQ7b6FIqPsSujVBVVoCOK58ql3OqgLBHXcv283rDS67lcxvzy1ZCadIDCGjeh0TNaMGOOHDNUG06G6f7veD2Kyl20JW3K9Q0PE6rRCsJ2eLRdplPDqYGghWkrbmzbmdk13pdMmbQQj/kNikxsYCm4mm0EfF4ocWJVSykssTPdewGfx0moJn4CxGYnNLoy+jbFg48L9X2jzv+M3P2pV4Hc9L2a/p2SBFsFzOyWF0JQtv1RylI+1eh5ajOsSTB6/DiuLKnxlgXVlVqtieKttO3eOufDsgU58cdOPsHoTG2SbbsJ7l168V/I+80MlsNvFpMpHVbDf2Q0hGeoE//EANNDE1TvFDBpQdFrlMlqLIKMBAmHvZgLLDT4Ixzrm5+8mIu5/hMKBxkeGUZVY+j0BpT46QnihbillEQii3PYKnEqqWhUEouqkMLqnBQ0FcnXZPyCANT4/ypoBS5VEKqWoBAadRNSgJCgSNDF62AoOoReAaMebwR6Bn10DQboDBgYNDiosUqctWVYis1a+iOmFRgXUnuuUECYLHh8Xk509nN6oJ/RsZHUEyYrBBkNgRrDufUTeHp+g0FqO4EmRzqpAywNbyUwfZkTJ3654rIkY3UTGFd+iwCK1tzNWMezAPhG2+l5+R+o2v5BKra8k2hwErOrlqneQ/QfeTxxb9GauxHxPrJF4OL3+caTt/BP795E664N7Ok8m5P8a97xfnZXm5g8+V3+5V9+wtneycROxNs/9TQf2J5TtznjepNnISyo//jxrIEn/5BP/uupBe5e4pdb15Mc73kbVXU7uLMJfuR7A1vrFWT3QfZ3sbSg0WrIv9JYSf1ki5njegs3mHs6bmXxaphfgFgEFdCZMiggvZKQMe01YM42Z6kqS92bn4DAh6frBc53SoS5CKuzGHthNaWVbopbbiE09TRDwav3c0NgFfSZDcx1Wyhz6IiMnuJS+0V8wUgi+Few/m2scV+lgwzhv/w057umFvh0dtyRgI8YRZgKCjFYggS9EWKKl2idA4tdwaSEmPYGWW0flhMnOXb0LFIpp3rnnbhLN1PjHqB7NLSkfnMdb6b6zCMzZKtPSTV1jeXooj5Cqg1XwzYcwy/iUa9BEiOr9fMakN7e4NAZjUAMdZVzg76LHUzXtFLRasdpWYSPPU6Fkbzz2Gaxkrx3T6MLWkNtSQs2ixvTeMfs7s+paUKAyeJmWYvCzsUiz5mRNzjFwu+vC95fiNkCV9viKzxHOLv/SLz+QiMV1YfjJ8RIu9tR44S/pO3GXc536iWOIy0ysIHllTUVWoLMTWE1FFiGGeoD6GYqsBtXdQsUeZnqiifMlmoHMwh0cOaskw3b1tDSOn3V4PSraf6XS9/zsEx6sNjsEOhYtUB3+gCxRinVUuOfVwh68b7a6WivZFvLVhorL6xKLY+ZBEy6BEGicPoiO/JnKOPcS0xYprORvN+snt8kultF/4mFA0xfOcDZXxyY99lS/WdNRTuToQjDw0OoUkWREIupSZvlMnkfFfFC4lr9i5Q7xJz7Uz+M/1OQIhZPTgiEoiAVBXQKSCVxn5xJYOgAvQ70ehSdnrBQGJuOcbYvzItnpuiYCFHbVkNFjYEGQ5CiYhtCjcSfnZyc0U54qAJ6ewZ48plDBCJXCExPZbbhPNNTSwtAzuhGZ2T80gs4yluwlmxOfK4rXI/RvRND0QYmX/yTJTwpO6xqDQw14sV37luUb3oEo7UkcX2y5wDnfvlheg78I8Nnf077U39Kz4F/QFU1Ti2jtYTyTY/gO/ct1Ih3oe5p+d1v8eVv7eH375kfqPP7QsQAq6Ns/o0ZQKoKzbUVCIZ5Zc+/crp/KpEskKoei8lwlR4ywLSPIGC3l6RclmoFTrtuzrXrSx7IQf++AKG515YZQulk/ytdSKrZsnsTJXdvp0aRdB99UivUvBSsgvwrjRXVT7YIBAkDNsd83ulChx2IEF7ib6is8CqYXwD8XkKAzlyAfjEexFgUFdCb5m/XMJhMLDnw4gsQBnQ2F8YUOcqw2ZbX1oQiIDyBf7SD4Yv76eidBsWJvXj+uij0pnl60ZtMQJRorgWJVwOrqM+rQaoSm8MO+BjvOos/HE2ilVLQ6ZdBnoiWiNMbMixU4PEQwoS5oACTTuOixeMlpLdhcdkw4NOuzWCl7X8OBEP0X7hMGBNFTW04lCUGhLMdb7b6nJFbb9b4YZNgiPtLbCmHbBbRv6nyNTRt2UV5ocyo/UrM11WRgz6lasJ1UxvFZhVfz2/p7JtAmqqpW9cwT8eriYzWz2hMS4wbTCn1zaSqx2DUARHUNOtntuttxu2vN3uYA6nasFoMgJ/Qwj9jVgQzHOAFxWWEes8sGkAQwpHg9paO7dTX2Oe1GR0dhqIm6ktSa2nMPMdce3cK77Z0bGf9Atzq6SDVUqpufpitN29Py9284HPidQym2xcPkszUZzDV7KDKMXt/SWurtnM5IcdaGnc9nOCFl47tNDbOKewsPSnrqhBl1LbO8oTIyl3UFQume5d/t3Gm48i63wxsIOs+M7WNqW6mAnbMJXZM4wOMKSJxishZ0zRLy7JYnxnaQYp8niOceeUSoaLW2fmeY4evyvlfDn2n8e+r6SGdjxdvfiBlHFodCi/DXdoaM9cfM0Eu9yxrv31nGPJLnDU7lsxDnxHidEXp7G22no1Wd0EbQ6rOZxIgxG0hWwhFKxxsshXO9pn3m2Xzm8XwqvUfn4q9cjuFVieEw6jhKDPFtkWW2/UURaDTKSCEVgMjIZDQkhAz/1J6jZ+qiJ++kEKAooJORegEQqcg9Dow6BEGnfb/ej1SZwTFhNQbCen0XByJ8rOXxvj3p0c5eBGkswC9ScEsw9hETEt4JMuQLIfewPS4h4vtA0QU7R09k3HbLNal0XVmgCuvPM7U5f9CmFwr9ox0WNUTGAC+89/GWH4bDXd9kq7nvkDYr9VXUKMBfCPn5rU3WktouOuTqJPn8Z3/9qJ9944GKShpYduDH2H9gS9x1hcPoFjbePjeDRiJcqnndJo7R/EFABy46oDe+S2EojLp8QOFNGxdD2fOJjJftrY/4rbGZTCOCz0Mq1C/8T7uq3oqUTjb3PZutlenfvFdb/JADvo/cZaeyG2s2/J67izdy/Mj2lEoaWzjXV/4G3ZXDfDrj7+Xn/YsbSxDz75M91vWULfhdbzW34CidnLs2Usstrt00uMDnBSUuZgl7Z2DnOW/ur2tJnLRz4rgRDv90dfQtOE+Xl/7ZKKQt1L1Hu7YYIHoOTqOr6Y8q2OfK24P/kG8gZuwOioosp5keKETCONjBNRq7IX1FJt7EoVQpXEtJYV6UEfwji9BjmAfHv86rLY11LdM0d01QETvorBhI06x+DFIpWQHzWtrseBjpH0f/Wl2q0vrJta2rsHkv8TFoycJJSV0jQYjoBILR5hr19JeRVlxO/0Tofh4m3C7PbI+OAAAH49JREFUDCAnSUPRef1gCfpcbghFxI/uWrAVOZGe6UQCQxRspNixDGvJ5Bg+tQZnSSOuS/1MxgslS4qpaLuLcruHgUP/xXAw/iz/NCFVwVRYjDHkJRAFmCQUacJRAkpoEn+U2W0cK23/aSAnjtEzVE5TWTW1TVWcOd+fdkdNJvaf9Xiz1ecMHNWUF5xnwKOtzwn9yAmCC/hLRvJPTmj6L1pDibUnUchbKpWU1VbhMHvxXkxqv2rzFY4Hyk3orcBC62cO+tSVbae2zIw6fY7uy5MEOcJgyd1UuFupLRvi8ki6fVMZypOEFVk/PaP4I02YCuopd3Qy6NPsQRRsotgpIDyJx8O8bVLZrrcZt7/e7GEurGtwOYDAGNNBVnn7mLZjNFjDPLqnZIiB/Zy3PMC6OFe39HdyoX2Ylrkxhr4Bpte24uQSl/tIGYu/8ynOM9sHxPs5cGFZ67r4O5/ilcAutiU/R3oYOvLjtHzgczF28gnY/DB1STQxUxf2MmTZzexhwQmCAZhhhBOeI0w2PEzbbpF4Xjqu+B5fUwp1y8LUIUtHZuPIHBnbQA7IxDZmgoDrasuYurCPGVudoS5jTiBvqXaQDOE5wpl2O9tatrL1ZifnX+ya9/mrbf5z0Xcm/p2LHkaPH6b61kdoS/D7D83ZsZ3qj5khl3uWr9+ZYs0Fc073aEWxG1PayiRqqplixnULfb7A/T2swUT8REC675j42u1uaKH/ZDsde6Hp7kdoSwrcB3v2cmxOLZiryZuM0dFhamu0wsF+ReT9hpX1mxm8Wv2n6+RZbnn9dnbuqiCKQDfSjywqR5jMWow/k8SgBIREpyiYjEZ0ioqqzp5wmD3tkNw+flWAGq94IVAQSjyfEaeUEkIHSgxUFa3YtwICFIMOVWdgzKvyfLuHE1f0dA1Y8YYsFBQZqF9jx6hXEQEVk0Gr3aGV4YghUGHGJ4UCioEzZy5y5PBLnO+I0JTqiumHHKc3C41OXLWt3+/H4Vj+WV5JrHoCAxlj8sXHcN32NZrv+yKDJ3/EeNe+RE2MGQhFR1HDbso3/w7q5DkmX3wMrsLJ7Hvy2zy9669505o38fFv7uDypX6mpRV3XTNVBQaC3T/nZz+f//IulCscO93DGxtqufezj1PfM432U8zDmR98mqc7tfbHn32BwR0PsOahr/GVbRfoG49icFVRXxumu8sPS33BG/ohTx28nw/fupHf+dKPubWjB49STF2DymifCql1Ia87ebLW/8SP+enT9/DxN27n977yY3Z39jIdM1NSv5Zql47xQ79i32WW/kPvyq84dukR6htey66wHrXzZZ6/sni/7QdPML7rtax/9Ft8avNlPLGZhe0y+//665xSRM7yZ2pvCbi28Minvkg4jZzDL32JPc8vkcc9Q/3ILb/HH75+LTNnb/Rl2o6K4rbH+EjVzNbbYQ5//cu8PJXDS8fYD/n53nv549dt4NEv7uHmi914KKCqqYlic4SBp3/AsxPz5VoxrJJ9Zm0PWfc/wsjgJKUNLsqamhg/2TGvKCoA0Yv09zewtsZN7fbXUzTpIYIRm6sIoz6Gv+csY8kB0KzlmGDgYheuTWuwV+9kQ7V2XfVeZMRbgLto4XudZTXYTHqggGJ3Jf2jXfMbeQfwRFqwu9bRcksZHq8fVerQm13YC8zIYC9j6VxlOoB1/f20eCYIYcTqKMRsFIQHz2vJnhzHKx0t1FUXJ75thEXbmW0q2U6dbea7zM/4hWM50cUsRZ8rAU9fD4HSJuyN97KxZAxfSKIz2bE5VHzTUVjq5oxoBwPd9dgbKqi/+UF8Hg+RmA6TsxirSRAevsi4n6T5ir8g2wtRvEPxI9kTBANGyhwCfL2ppBgrbP/pIJQo0xdOMOG6hcKKVqpGBumfmJ98ysj+sx5vtvrUID1R7FseoGV6UvMXZyEmPUSunGN4bjHkbOQPX6C/r47m2hJqtj9I0eQUYVWH2VmCxQiRoXMMe5P6X6X5EkqAqbEpKp0FlLe+Drs3FC8dEGb60gHG/CInfUp9I3XNVejVSQbOawkDwQRXzl+kYPs6Cpt3MDnxXCIRkrU82eo/y/VTKD1cudyEs7mEim0P4JycJIIZm8uFQYkwffkUnnTfM9mut5m2v97sIQlStVDY1IhVqPiuXCCwwqdb/Z1PcayTlMCIRt8Byb9/hNJO5/72lGszBV2TcWxgTl+J+0iblEjXR3KAOh1FS7LMgqQ2i52kGNjP0Xlc7qntx04+wdgC/SQ+i0PbfZzUUxpZ596TLhkUuPgkR1Pe2zKTKfl6ig6SkG5urzYO0HR1bCBVloXkuJoNzNdB+r7SybqYbcxvM9d+j5AOS7GDuWNJ6UvPPDu8Ued/MWSr76vNYbI8YyntkteQ+T6edm1QFrgnDdLZZS73pMNcvafrN93cwHxdptXfnH5y/7x9wfVOkztp7U7zdy7yzEM8SZJMEZX3m+Xxm8Vw7f1HIISIx/4FCVomKfBfeobjlyRSp4CUWfmPPnieoR4npk2NrGuuJzIyhi8qiRWXoXfY0cUPKqiqRC5W/FdqRbz1Bj1CiRKTUksSiDnJCyDxoihmtC8Rcqb+BQipIDGAVJEihlAFSO35Qmi1LkJR6BwKc/BSkItjTkZ8OgKRIOjCWBw6ikqshCN+hArGWAwx5UE1GeO0WDNFxAXCoGd0ZIRTJ45x5ODL+HxTHO1h/nfSXJ8vqNPozRaiDE3CwRd/w/s+9DEqq6qIhFOjjQN93fzkO19Z9P5rgdVPYAAy7GFi/wewrXsvVVs+SEXrO/EOnSTs1U5jGO0l2Ms2o0jwnfuWdvIig4KSQj3Kf/zF/2LkXb/H7u0tVK1ro0FE8E/0ceo3z/Czx39A5wKBokvf+Ru+Y/8ob9i+hnWtJnRCIOUk3qeB+EISOvplvvRVL+96aBeN5evZUB1i+ko7z3/9H+nc+TXWLVEvQvHw8tc+izPyYe5ra6R23UYCox0cefyr9N3xDeYm3K43ebLVv1CiXPi3x/ji2Ed4+z3baFi3lTo1gGesgwPP/pSf/ehZxpelgNQA+w+18+amm7BZYlw8/J9X7Tf08pf5h8cF737Ddupbb8Gsn8loO2kHTi1R/kzsLSG/rY4tN9el7edyvw0yev1aGBnrp2ozO3ZuRTfniKWjfgc76rX/l7Kb4R/AywtRgC8qR4iT//wYXxn7CG/e3UrdujYMhPCOnOPA3u/x/f/4bfrA+wphtewTsrOHXBDqPsag+04qSlppXBejq72L8LxErorv4j7ag1uprCrDWlSGjRjR4Ahjl87S0ze49B2UE0c4e2SQkvIKrAaI+kcY6+/Cvn7x7QTeoT78rlrMeBkfGUzbRihjXDn2AtE1N1FS7MJZWoRCjFgkSHD0IkMdp9InCtR+us5NUddYh9NiQIn68Qx00HOxe2njtZZRVFYeLzQ2C0NBJcUF2v9LOUmwCzy51uXIUZ8rATl1nI5TEarra7DbSnA5VKLeMYbPvoKv9N4l7+ARioq/ay/nQ61UV1Vgc5VhU6NEQ+OM9V1goLs/ZX0QyhTBQAy93UjYPxn/ceMjGIyiLzASHpma83K/CvafblxqDz0dNTg2VFHa3MbEocP45/hmZvaf/Xiz0WcC0ctcvuCitr6aAoseoj48A+30tvcuqJ/M5FfxdeyjPbiZyqoKbIVlWGMRIuExxrrPMdA7kKDJTLRfpfkKdr/MZWMblSWFOEoK44UAg0SSTstlo0+pWihZvxmXMYb/0mEGvdomK01Zp+npraSlrpza9S14j1+YNw+ZyJOMlVo/g73PcyHaSnVtJTZXGVZiRH2DDPWcYGBoOr3+s11vM2x/vdnDDCQ2XOvuoK7EiPRdpLdnmlU/3ZpHZkjQr1zghp6jV8s48sgN+fnP4xpCo0xqomWRWhvXJfJ+syQYrU5cVeuxlzZgdpZitLoQio5wYIqQdxTfaC9TA+fxT6SpIL8IdAJGPNMM+rxsKSpgYmCYkHcQbyQGwSIsZhNGoxGjQY+iKICWSEiXy1BQUBQdKlFiajqmAjnnv8nXk68pWo5DL7TiFKoKMl6TQ69j1BfjdFeAVzpDdHpMCJOTSMyPosQwWcBgkVhteiKTAqGCCAYJjY6iLytGMcZp+IX2HDUa5viRVzh7+jTBYOY86iUNa6A3MxrFU4ef42tTE6xd34ZOn5oaGB8Z0v4nFqZozR0YrOUY7OXUbHoAIHENdXULjIrX3vuADI9duHrLlRJAb8NUdRcG9w50Fu0gVywwRGT4MKH+55BR3zWTLY888sjj1QJprKeudRvFVh2xwCiTvafo6bt6Zn41ULz5/6K2yMuVQ08xmGYH60pAWtvYsLMJ4+hxjp9efAfSjYZroc888sgjj4WQ7Xp7o6/PUlWwVt9MVU0FDose1d9L9/GXmAzn1+PrAdbGB6jnMGfjVClSXUvT3a04A5fmFb/NFMWbH6bWkvv9uWAlxpFHbsjPfx55aEgUDA8cT0szlYy839zYMFgLKKxeT1HdVpzlTVhc5RitLgwmO4qiIxz0EAl4CE6P4BnpYqLnJOPdxwlMDWX8jKZ1G3jzm9/IG+64memeQUZHpukPCiYNdiyuAhx2B3abFYvZgF6voAglcYJBSoGIk0AhBe3dvRgJ0lLjorzUAWosDQ3V3PkXSBmnSZVi9nMp47kNCUKiShj1hfntaS/PnQzSP22koLwUi0XPYP8gMqLD6bLhcKtsu62S4aFJnOPDtJk8NBcJrFWlGGwOrUC4gFgsxmDnZf7tu3t46dBBAoHMCqithE9Zmh7BXHt/+g/VCL6z3yI8nP700XJiPOKgvLzy2pzASIaM+gh2P0Ww+6lrLUoeeeSRx6sWInyZ7iMefE1bqCgvodhdoiUwrjGkWojZLEAGiKxmkfYZrDIX+UrjmuszjzzyyGMhZLve3rDrs4LNXYPDFMQ7cJqejguEcqAKzGNl4O98iqHNs7zskMTpfgMFr14t48gjN+TnP4/rEVejHrrWyPvN0iGEgtlRQknTTio33UthzUZ0ehNSqnE6JZVYTEVvtKA3WrEWVuCq3kBhzUZMBW6Gz/8W/3g/aiwdQXrScxQdVosFm92JUlRMgcVOlC5G+6aJBiJM4sEz5cdoNGG3m3EVWLHb7RgMBoSigJDx5IVERSWmqtqhCRmnaJLz51ujgoIEZxRCo4aaYZuSgBCoUqPLklKgSsHIdJhfvDjG/uMhQhRRWOJCxmKEQwGCwSAWoxOL1YwQPgwGndazVNEZDegKLITDEsUs0Ol0CBkhMDHKb57Zz4X2iwRCmf+gX4w6M1cEOvYQ6NizbP0tFdc8gZFHHnnkkcfqQKhjjLXvZbSjAKdj9SNDUrXgatyKy5yQCL21BIcVoqO9TKjcwAGr1Uden3nkkUce1yNUPF0vcdYzQEhVyVNSXH/IlP8+6/5WOQC23OPIIzfk5z+PPLJH3m9uPAhFwWBxUbnpHqrb3oCtqBqpqqix6Ly2Wl0KiYxplE320noab30Ek62Y3qO/wDfaM68OcuI5QuBwOqmrqqG6opz/0969/cZ1XXcc/66997nOjRdRIiVSvsVO7NgJWgRN0wIFCvSlD/1HC/SlDwVapECQpo3R1kYjO04sW5IliyKHlyGHczlzbnv34VCyZDtIL44vyfoAA4LAYObMOQAxMz+u9QsI5ekp9dExsmpx6RpiDEaEtm2YzeesVkuS6Yw8z8nzjDSJSeIIYwziuyLv4LsgAxd1HRjhcp2UD+AvV0E9857tqfdwcplhSNepUVaeyWzF7QcL3vzlnLfueopVn/WtAVFiWJRznMuI4oQ4izAWvG9APMEIVdXQAtnVTYIXxDmoK5hNWT085c7pivNVRfBe30U+RQMMpZT6AyN+ymzKV/CfJo7syi6b/cedMi1ttWRxcJuHH3z4zI579T+h51Mppb5uxHjK6cOv+jCUUkoppb4wLu2z9a0/YfeP/obe2s6T8uzPq8N+2uNPpC7usfvGX1Evztiv/pHi/LPdbCJCFMdc277Bd15/g93nn4e6IUSO3tYaa2HOrGpZWIsx0k1MSKD1ntWqom0Dq7IkiR1JkpAlKUkcEzlheb7i6P4xg7IhzSxRbBFn8JHDRu5yJVS3curxgYuFx/8R2HV/e4KHs0nFojQsSscHH684vjAMMkgywSWC1IGqLhEDkXOIsfggBASMoaobyrLCWgiRI1QVXJwzPz3j9rTleOt56vRW14muH+mf0ABDKaXUl0LMjMP/+Ft+Q43sl3ssy7d57ydvf6nP+UX7Op1PpZT6Tf63f29/H/4+K6WUUkr9Pult7LL7/b8mG14FMVgJrPcd6z3H/llFUfrPBBmD1LK9FmOt8PC0ZGkGbH/3LymmB+x/ToABQpr1+d73v89333iN/qBPWM6JhiNYFrjzClcL1jmMCYgERMxlkbcQQqAuK9q2pqpq6rIhTVNCCEymFQ9Oltx5WHDt5pC8rdjJ4NqVHmHU9WJ0K6OkWz9FoG0a2rZ7VW2AaRN4NPPUlePa1iZXr2b0e6e4s4YotrjI4pwliiJWqwJjBBc5BAPB4APYyFITWKwqqCpwghQLFuMJv3o051/KnPrmC8RrmzQH92j5/EmVP0QaYCillFJKKaWUUkoppZR6RtJbZ+3Gawyvv4IYS+tbtjcSXt/NWetbIifcHa9YlB4jl9sBCOxtJrx6IyOODP3UcOv+gv7Wc6ztvc7kwS1W54fPhB4ujrh2Y48//dEPee7mDpRFt7oqclwsa+ZVoI5TbGQxcBlg0K2KEoOIxUhALtcol3VN3XqaxjOtDL+8EGaNY/dKhjs45wd2wV+sCtbrlhBaRMAboW4Di2XL6XlB7YQsdqxq4Z2Dmrc+bvnut7fZ3cvZSYWbOyn3DpdESYp1CcYIURRTFAXORbjIIgSCB9940iymjBMW1ZKwKAm2xi4WPHo052d3a94aJWzt5uTDAUUUQa0BxmMaYCillFJKKaWUUkoppZR6Rr6xx/ruG9ioK1/MIsOLV1Ne38txVjAIdQv7k5KmDVgjjHLLyzspz28lOGuInbB/WnEyDwy2XmTtxqscTo+edFGEIPQHQ/7sz37EzZdewMYRoVh13RS+xntPE8V4l2GNwYi9DC+61VNdgGEwErDmcaghBCM0tZCNcob9Ef7GdWZpzEVrkbMxo3PPD3JPZAOBwLL1HF543j8q+bDw5Dc2ub6xQTGr+dn+Ib+67en3YbkMbK47rl/J6KcLWtPipSuhFBGci/Hed6uuDATvqaqWXp6y6A1YTqa00wus8fiy5e5R4BdHlmoUEfcGECW0ulXhGQ5gUg++6uNQSimllFJKKaWUUkop9TUxHDxHvvUSBBADNzdTbl5JSGNDCPDc1RQRYb3nOJvX5Inl5e2MGxsxcdSNQ6z3HN/azlh+vCQa7uA2vs1p/fYnZdrA0G3w2quvsNHLoWnpisBrwvSC5nQKTYzLE7AR1nTTF4JchhgGMYKRT24iAlaI45g8b8mDY+4M4hsG19Y5jgx/P5ny8/drcttCaGnE0bgeYX2b/DtrpKOUqh9T5iuyGy3cOeFwXDI5K3lur8dLN9fZGk0Y1w3ee4I31HUgilOaqsFId47qqqUqKgZrGZIlzEPEctHQzwNH45Jfjw1HbcbaKMPEEYvGclYm+FbnDh7TM6GUUkoppZRSSimllFLqGWk2Ih1udoEAsLMesdF3hNAVeBtgdyNmey2i9QEjQmQFa6TrxgacEfY2Yz4cr4izAdlw40kBuADOWYb9nJ2tTWJnoW0QCXgC5XzJrGioXI8oToGAmIBI9xxdkPHJ1IU8E2BYIgexMbg2YEILvuuiaNYGXMQxVR0YREJuIHMxeZoS92Kyfow1FrEWcS1xLyEbJlyUnkfHC14re1y/1mfvasp8DBLAe1iVJVmW4RwIFgKE1lJV3TGbNKVwKUfzFZnAux97fj1x+FFGb62Hb2psCETGUra6QuoxDTCUUkoppZRSSimllFJKPcNGMXGSARACfDyp6CWWKwMHCNtrEZETok+tPAoBWh+oW8+s8Nw/LlmWLVGS4uKcxwlGCIEkiriyNqTX7yFGugkM6UY+QpYzy/usJCVxFmgRI5crowzmcYBxOYUhQlfGLQYxBhMFYmuwrSeEQJCA8TDIIvJRTiaG3Dn6kSVzlsgI0OLblrYNGAu0LU1d0x9khMZweF5xdLLg6pUhL17vsz+tWAVP4z2rYkmaxgQ8IXgEh9BNXPjGk/VzlnmP+2czoqXh1mHCfglRPyLpJzSLY0Jdf6nX+JtAAwyllFJKKaWUUkoppZRSn9L1Q8hlQPFoUrEqPVeGjmujmCtDh7PdtMWnlXXg4aTi/YOCw7OaRXnZ7PDU6qgAxHHE+voIl6VgurVLBIMIxJubNCclbdGtizJGELGXvRddB0c3dWFBHk9ndNMPYgBniJzgKrBBsM7Rt4ZREpN4qM4Lev2UXmwQWuomQBAEizHdi1qtambTkkGvTyQ5p0XBw3HB7rUrvLg34t0HRxyWFT5YDAFLoGpKykowSY4xESfHM67v9RmOUuphj/d+FRgXng/O+6xcYNhzuMiwnE4plwvatvldX9hvFPNVH4BSSimllFJKKaWUUkqpr5emKiiX8ye/r2rPx5OKu0cl89J/bnABIAJ1Gzg8r3nnwYKTWU3joa1WVKtFl1xcctaSpwnGGpCnirkRrAixGCxdB4ezjshGOOO6Qm8rGGs+uZlPbtYYmralripCUZIUDbtpjxfWBuxkKcujBW/920cc7s9pfYu10k11GBAJWOcoiobx/pzTw5o8y8n6ObMq4mDi8aFmb3fEzoYjpsJi2bpylTzPCQ1cTBYsLkoiF3P0aMrFRUGeO6Jhj/cWPf7ho5hHC4iHlmwzxlqYHRwjbYWL9Cv7p+kEhlJKKaWUUkoppZRSSqlnFIspy+mYNOt3q5kAIzxZ3fTbiPBUH4ZQzKcsL04+da/LsgwJgOdJuiECxpBnEeerkqoJ9PIMIWDEY0S6+0g3MdFNXvjLEMRhBWKXEk0cs8NzPnq/YnV9zjizFIuak4MV00ngjhtjbMO1nXXSLEEstK3n7HTGvQ/HPLq/YJCtE0cxwULROMYXFY+OZty4ts5L1/scnC0ZVyW9UR8RT5KkrGYzlhcFWW9IUwqLWU1VtgzX+2y/ssNHDx/QJiWbN9YY7gxp20Deb9n83ogHdY+7H0y/yEv5jaYBhlJKKaWUUkoppZRSSqlnzCeHnB3cY337xSdrpP6vxBhmZwdMDu7yOKQQEeqmZVmsLjdLdc8RJHQ1GHiurmfMFwUn58dItcK4iGAEc3lDBBMEkQCEy4Jxg289VVNzfF7Stn3yMKA4taxsoG1iEpOxfdWBr3h4Z8Xx/pgocdgIqspTLlqW80AiI4b9YVcM7lsQx1lR88GDKde3N/nW8+vcOyw5/nhOCDkCZHnCwi6oVyvqMiOJcs5PCi7OC4abA7IbI/IXMubTJTIAk8S09ZLN/gnZ+oqj7P93rn/faIChlFJKKaWUUkoppZRS6hmz032OHrzH3mt/3pV5yydfrP+2r9jlU/dp64qzw7tMHr5PeGr3VFU3TM4uKKYXjPIeYgxcNm/gPcMocD31yPmc2cmMQxkwi/qsKoMvG4wRnA9EsUWMwXvwQfAeVnXDvM4I8ZDNjSGVbwi+xcaGyEUYI9RNQ1HMmc5LQmguJzACEix5OiTrZ1gjeO+R4LHGsqhj7o5n/PG8YGurx83tnA8fnTNfLonyjDhO6PVzVrIiBE8/G3F2fMbD/SlXsohFZrjy6ibyMOAtFNMFqT9iK91nWsxZLdsv8jJ+42mAoZRSSimllFJKKaWUUuoZdVkwefQhB3feZu/bP8TFKb5taX1gUba0l33c8jlpxqr2zMsWEIwxHN7/Jcf33mW1nD1zv6puGB9N+Oi9O6wP+qSDPqEBQoCqhPmMnSgwGkV8cDHh3SbhME44PhXmJzWxE+JgyXoZLnL4QFel7bufuAhjIxCwziIYCIHWtzQeTBD6eZ8eA3wQQvCI6dZQESCEQN0EpGsX76ZG2oTxvObBwZQ3Xr7C3naP6+sXvDeeY9IU5xyD0ZA0yxAXSJKc5dmc+/emnEiLbGT0rw4JBGanK04/vE988Qt2tg45erDibPIbykX+QGmAoZRSSimllFJKKaWUUuozFudj7v7XP9Nbu8rm9ktYF1M1nvG05vZBwSC1nwkwQoDxecV42hBCYHa6z0e3fsrJ/u3PPH7rW8anE378459y9doaL7zyEjQQ2oYwnyLLJSBdkOANVTbE2wykRaSHTRJsnCJRRLDmSYVGtSrwrYe2wUtDwGPEIxiMdIXh3nerqrruDenCDRGg7UKQy9ciAMGDeCKXICZh3iS8d++C3Wsjdq7lvHIz5u7BOeVqhGQWl0a4JCJIi/EwzDY4Go+ZnB2y8Z01krUc1+tjjucc/ue/8+jnf8f5c0Nm5wXzefU7vKLfPA5ge/v6V30cSimllFJKKaWUUkoppb5mpJhwdPtNIhcz3NojBMt4WvFPt2qET08LXPZYEAjeU8wmHN5+k/r8AWv9HPr5Zx7fiOGd+wf85Mf/SlQHbu7uEOYzQlN23RsGjHO4tTUsGctJQblosCYiiROiKMFeNou3vsFXM673F8TO03gomxbahmEvxYjDE0B8t34qSLewSkAuOzXaNlA1nrZtu3VSAnFksM4wX0Wcr3qEkHDvOHD/YMb3Xl7j5Revcft+yTtHU8RYWhGqZUFTe3zjaSsIpcHXhoOzCT4+A2M4v3OLs3ffJC4umBxakqzHxsYQaw3G2C/h6n79/TcCwXcC2GjiCwAAAABJRU5ErkJggg==;" vertex="1" parent="1">
          <mxGeometry x="450" y="275" width="578.87" height="110" as="geometry" />
        </mxCell>
      </root>
    </mxGraphModel>
  </diagram>
</mxfile>
